<?xml version="1.0" standalone="no"?>
<!DOCTYPE svg PUBLIC "-//W3C//DTD SVG 1.1//EN" "http://www.w3.org/Graphics/SVG/1.1/DTD/svg11.dtd" >
<svg>
<metadata>
Created by FontForge 20120731 at Fri Oct 24 00:45:42 2014
 By Orthosie Webhosting
(c) 2006 OM Mony, portions (c) 2006 Microsoft Corporation, all rights reserved.
</metadata>
<defs>
<font id="DaunPenhRegular" horiz-adv-x="0" >
  <font-face 
    font-family="DaunPenhRegular"
    font-weight="400"
    font-stretch="normal"
    units-per-em="2048"
    panose-1="1 1 1 1 1 1 1 1 1 1"
    ascent="1638"
    descent="-410"
    x-height="571"
    cap-height="960"
    bbox="-946 -1374 1950 1770"
    underline-thickness="10"
    underline-position="-40"
    unicode-range="U+0020-25CC"
  />
<missing-glyph horiz-adv-x="890" 
d="M118 -4v902h647v-902h-647zM174 54h534v786h-534v-786zM415 293q2 23 3 42.5t8 36.5q5 16 17 40.5t26 56.5q13 32 22 57t13 43q3 13 4 23.5t1 18.5q0 37 -17 63q-8 13 -18 23.5t-22 15.5q-25 13 -51 13q-33 0 -64 -16q-30 -17 -30 -40q0 -8 5 -16q2 -3 5 -6.5t8 -9.5
q5 -5 8.5 -9t6.5 -7q4 -9 4 -18q0 -20 -9 -24q-10 -7 -31 -14q-47 5 -47 57q0 40 23 71q20 28 60 44q19 8 38.5 12t40.5 5q28 0 66 -12q18 -5 32.5 -11t26.5 -12q58 -37 58 -115v-5q0 -14 -4.5 -28.5t-11.5 -29.5q-9 -14 -17.5 -27t-18.5 -24q-9 -12 -22 -26.5t-29 -31.5
q-14 -15 -19 -38.5t-10 -46t-14 -39t-30 -16.5h-11zM466 221q15 -15 15 -35t-15 -32q-17 -15 -40 -15q-21 0 -37 15q-17 12 -17 32q0 19 17 34q4 3 10.5 5.5t12.5 4.5l14 4q23 0 40 -13z" />
    <glyph glyph-name=".notdef" horiz-adv-x="890" 
d="M118 -4v902h647v-902h-647zM174 54h534v786h-534v-786zM415 293q2 23 3 42.5t8 36.5q5 16 17 40.5t26 56.5q13 32 22 57t13 43q3 13 4 23.5t1 18.5q0 37 -17 63q-8 13 -18 23.5t-22 15.5q-25 13 -51 13q-33 0 -64 -16q-30 -17 -30 -40q0 -8 5 -16q2 -3 5 -6.5t8 -9.5
q5 -5 8.5 -9t6.5 -7q4 -9 4 -18q0 -20 -9 -24q-10 -7 -31 -14q-47 5 -47 57q0 40 23 71q20 28 60 44q19 8 38.5 12t40.5 5q28 0 66 -12q18 -5 32.5 -11t26.5 -12q58 -37 58 -115v-5q0 -14 -4.5 -28.5t-11.5 -29.5q-9 -14 -17.5 -27t-18.5 -24q-9 -12 -22 -26.5t-29 -31.5
q-14 -15 -19 -38.5t-10 -46t-14 -39t-30 -16.5h-11zM466 221q15 -15 15 -35t-15 -32q-17 -15 -40 -15q-21 0 -37 15q-17 12 -17 32q0 19 17 34q4 3 10.5 5.5t12.5 4.5l14 4q23 0 40 -13z" />
    <glyph glyph-name=".null" 
 />
    <glyph glyph-name="nonmarkingreturn" horiz-adv-x="217" 
 />
    <glyph glyph-name="space" unicode=" " horiz-adv-x="500" 
 />
    <glyph glyph-name="exclam" unicode="!" horiz-adv-x="388" 
d="M281 945l7 -7q-12 -72 -22.5 -161.5t-19 -182t-15.5 -180.5t-12 -158l-44 -5q-3 66 -8 156.5t-11 185.5t-12.5 184t-12.5 152zM120 63q0 33 22.5 56.5t54.5 23.5t54.5 -23.5t22.5 -56.5t-22.5 -56.5t-54.5 -23.5t-54.5 23.5t-22.5 56.5z" />
    <glyph glyph-name="quotedbl" unicode="&#x22;" horiz-adv-x="572" 
d="M382 662l-38 334l129 25l9 -9q-5 -17 -13 -60.5t-16.5 -95.5t-16 -103.5t-10.5 -85.5zM138 662l-38 334l129 25l9 -9q-5 -17 -13.5 -60.5t-17.5 -95.5t-16.5 -103.5t-10.5 -85.5z" />
    <glyph glyph-name="numbersign" unicode="#" horiz-adv-x="680" 
d="M497 521l-47 -208l137 3l-19 -65l-133 -3l-49 -213l-65 -5l50 217l-155 -2l-48 -210l-65 -5l48 214l-137 -2l19 64l133 2l47 209l-137 -2l20 64l132 2l49 214l66 5l-50 -218l155 3l48 210l65 5l-49 -214l138 3l-20 -65zM231 309l155 3l40 208l-148 -2z" />
    <glyph glyph-name="dollar" unicode="$" horiz-adv-x="680" 
d="M370 845q57 -1 106 -6.5t104 -19.5q-5 -50 -6.5 -90.5t-1.5 -87.5l-44 -5q-12 69 -52 109.5t-106 46.5v-314q43 -19 86 -39.5t77.5 -48.5t56 -67t21.5 -96q0 -51 -20 -92t-53.5 -71.5t-78.5 -50t-94 -26.5v-92l-58 -6v95q-54 0 -102.5 10.5t-109.5 26.5q-6 51 -13 97
t-20 97l47 12q13 -38 29.5 -70.5t40 -57.5t55 -41t73.5 -20v340q-43 19 -85 39t-75.5 47.5t-54 65.5t-20.5 93q0 49 18.5 87.5t51 66t76 44t94.5 22.5v86l58 6v-90zM499 185q0 32 -10.5 57t-28.5 45t-42.5 35.5t-52.5 29.5v-313q58 8 96 47t38 99zM184 664q0 -30 10 -54
t27 -43t40.5 -34.5t50.5 -28.5v286q-57 -5 -92.5 -37t-35.5 -89z" />
    <glyph glyph-name="percent" unicode="%" horiz-adv-x="1260" 
d="M947 546q56 0 96.5 -21.5t66.5 -57.5t38 -83.5t12 -99.5q0 -138 -61.5 -216.5t-179.5 -78.5q-56 0 -96.5 21t-66 57t-37.5 84t-12 101q0 67 15.5 121.5t46 93t75 59t103.5 20.5zM340 971q56 0 96.5 -21.5t66.5 -57.5t38 -83.5t12 -99.5q0 -138 -61.5 -216.5t-179.5 -78.5
q-56 0 -96.5 21t-66 57t-37.5 84t-12 101q0 67 15.5 121.5t46 93t75 59t103.5 20.5zM929 500q-23 0 -44 -10.5t-37.5 -36t-26 -67.5t-9.5 -106q0 -71 12.5 -118.5t31 -76t40.5 -40.5t42 -12q24 0 45 10.5t37 36t25.5 67.5t9.5 106q0 71 -12 118.5t-30.5 76t-41 40.5
t-42.5 12zM322 925q-23 0 -44 -10.5t-37.5 -36t-26 -67.5t-9.5 -106q0 -71 12.5 -118.5t31 -76t40.5 -40.5t42 -12q24 0 45 10.5t37 36t25.5 67.5t9.5 106q0 71 -12 118.5t-30.5 76t-41 40.5t-42.5 12zM980 979l-652 -1033l-48 33l648 1032z" />
    <glyph glyph-name="ampersand" unicode="&#x26;" horiz-adv-x="1045" 
d="M993 536q-42 -4 -70 -11.5t-47.5 -20t-34.5 -32.5t-32 -49q-22 -37 -44.5 -75t-51.5 -76q26 -30 45.5 -54t39.5 -49q23 -29 45 -53t47 -41.5t55.5 -28t69.5 -11.5l-2 -36q-16 0 -38 0.5t-45 0.5q-22 0 -42 0.5t-32 0.5q-27 0 -45.5 -1t-33.5 -1q-32 57 -65 100t-68 82
q-33 -42 -68.5 -79t-75.5 -64t-85 -43t-97 -16q-53 0 -98 18.5t-78.5 51t-52.5 75t-19 90.5t16.5 93t45 84t65 71t77.5 55q-45 43 -72.5 90t-27.5 110q0 49 19.5 88.5t52.5 68t76 44t90 15.5q39 0 75.5 -12.5t64.5 -35.5t45 -56t17 -75q0 -41 -15.5 -73t-41.5 -58t-60 -48
t-71 -44q1 -1 0 -1q63 -49 129.5 -105.5t120.5 -113.5q40 55 64.5 100t24.5 78q0 15 -8 24t-20.5 13.5t-29 6.5t-34.5 3l2 34q29 0 70.5 -1t86.5 -1q19 0 41 0.5t43 0.5q22 0 41 0.5t33 0.5zM310 486q-60 -36 -95.5 -93.5t-35.5 -124.5q0 -40 14.5 -75.5t40 -62t60.5 -42
t76 -15.5q36 0 70 12t64.5 32t56.5 47.5t46 57.5q-30 33 -61.5 63t-67.5 61.5t-77 65.5t-90 74h-1zM390 562q58 28 90.5 69.5t32.5 104.5q0 27 -8.5 53t-24.5 46.5t-39.5 32.5t-52.5 12q-26 0 -47 -11t-35.5 -29t-22 -42t-7.5 -49q0 -33 9 -59t24.5 -48.5t36 -41.5t44.5 -38
z" />
    <glyph glyph-name="quotesingle" unicode="'" horiz-adv-x="359" 
d="M138 662l-38 334l129 25l9 -9q-5 -17 -13.5 -60.5t-17.5 -95.5t-16.5 -103.5t-10.5 -85.5z" />
    <glyph glyph-name="parenleft" unicode="(" horiz-adv-x="499" 
d="M150 387q0 -93 14 -181.5t44 -169t77.5 -152t115.5 -132.5l-29 -34q-80 60 -139 135.5t-97.5 161.5t-57.5 180t-19 191q0 96 18.5 190.5t57 181.5t97.5 163.5t140 136.5l29 -34q-68 -61 -115.5 -133t-77.5 -153t-44 -169.5t-14 -181.5z" />
    <glyph glyph-name="parenright" unicode=")" horiz-adv-x="499" 
d="M349 389q0 94 -14 182t-44.5 168t-78 152t-114.5 133l29 34q80 -60 139 -135.5t97.5 -162t57.5 -180.5t19 -190t-18.5 -190.5t-57 -181.5t-97.5 -163.5t-140 -136.5l-29 34q67 61 114.5 133t78 153t44.5 169.5t14 181.5z" />
    <glyph glyph-name="asterisk" unicode="*" horiz-adv-x="527" 
d="M353 938q-25 -29 -40 -67t-15 -79l179 46q-10 -38 8 -71q-18 -17 -17 -59l-37 2q-63 48 -101 13l81 -142q-59 20 -75 10.5t-33 -41.5q-8 32 -35 39q15 45 6.5 80.5t-24.5 64.5l-119 -151q-15 49 -31 65t-38 23q22 9 40 21.5t42 27t48.5 29t3.5 27.5l-146 64
q32 34 42 53.5t16 51.5q11 -32 40 -30q5 -33 37 -59.5t68 -30.5l-14 156l53 9q13 -13 33.5 -19t44.5 -18z" />
    <glyph glyph-name="plus" unicode="+" horiz-adv-x="680" 
d="M373 362v-252l-66 -5v257h-246l5 66h241v252l66 5v-257h247l-5 -66h-242z" />
    <glyph glyph-name="comma" unicode="," horiz-adv-x="342" 
d="M81 -143q45 20 74 53.5t29 85.5q0 35 -19.5 57.5t-57.5 24.5q-11 6 -16 18t-5 23q0 29 21.5 45.5t48.5 16.5q28 0 50 -13.5t37 -34.5t23 -46.5t8 -50.5q0 -39 -14.5 -72.5t-39 -61.5t-56.5 -49t-67 -34z" />
    <glyph glyph-name="hyphen" unicode="-" horiz-adv-x="435" 
d="M409 409l-369 -33l-10 10l11 65l366 -3z" />
    <glyph glyph-name="period" unicode="." horiz-adv-x="342" 
d="M90 67q0 17 6.5 32.5t17.5 27t25.5 18t31.5 6.5q16 0 31 -6.5t26 -18t17.5 -27t6.5 -32.5t-6.5 -32.5t-17.5 -27t-26 -18t-31 -6.5q-17 0 -31.5 6.5t-25.5 18t-17.5 27t-6.5 32.5z" />
    <glyph glyph-name="slash" unicode="/" horiz-adv-x="540" 
d="M379 1001l69 -11l-316 -1131l-68 11z" />
    <glyph glyph-name="zero" unicode="0" horiz-adv-x="680" 
d="M359 850q74 0 127 -33.5t86.5 -90t49.5 -131.5t16 -157q0 -106 -20.5 -191t-60.5 -144t-99 -91t-136 -32q-74 0 -127 33.5t-87 90t-50 131t-16 157.5q0 106 20.5 191t61 144t99.5 91t136 32zM334 796q-33 0 -64 -17t-54 -58t-37 -110.5t-14 -174.5q0 -116 17.5 -193
t44.5 -123.5t59 -66t61 -19.5q33 0 63.5 17t54 58t37 110.5t13.5 174.5q0 115 -17.5 192.5t-44 124t-58.5 66t-61 19.5z" />
    <glyph glyph-name="one" unicode="1" horiz-adv-x="680" 
d="M101 740q91 22 169.5 49t145.5 56l10 -8q-3 -25 -5 -53t-3 -55.5t-1.5 -52t-0.5 -42.5v-502q0 -24 3.5 -41.5t20 -29.5t50 -18t93.5 -7l-2 -36q-32 0 -84.5 1t-137.5 1t-145.5 -1t-88.5 -1l-3 34q65 1 102 7t55 22t22.5 44.5t4.5 73.5v546l-197 -29z" />
    <glyph glyph-name="two" unicode="2" horiz-adv-x="680" 
d="M88 593q0 54 -1 97t-5 85q55 36 113 55.5t124 19.5q51 0 100 -14.5t88 -43.5t62.5 -71.5t23.5 -98.5q0 -55 -18.5 -101.5t-50 -88t-72.5 -80.5t-86 -79l-201 -185l316 7q18 0 32.5 3t28 14.5t27 33t29.5 59.5l38 -9q-6 -23 -12 -49.5t-11 -53t-8.5 -51t-4.5 -42.5h-142
q-57 0 -95 0.5t-64 0.5h-103q-30 0 -61 -0.5t-58 -0.5h-39l-10 21l232 225q43 42 81.5 83.5t68 84t46.5 86.5t17 91q0 39 -13.5 71.5t-37.5 56t-56 36.5t-68 13q-38 0 -67.5 -13.5t-51 -37t-34 -56.5t-15.5 -72z" />
    <glyph glyph-name="three" unicode="3" horiz-adv-x="680" 
d="M79 654q0 35 -1.5 62.5t-4.5 59.5q60 35 117 54.5t126 19.5q47 0 93.5 -12t83 -37t59.5 -62t23 -87q0 -13 -4.5 -34.5t-20 -49t-45 -60.5t-79.5 -69v-3q41 -11 78 -31t64.5 -48t43.5 -63.5t16 -78.5q0 -90 -38.5 -158t-100 -114t-138.5 -69.5t-155 -23.5q-27 0 -56 3.5
t-53 13.5t-39.5 27.5t-15.5 44.5q0 26 20 46t45 26h3q36 -40 88.5 -62.5t106.5 -22.5q49 0 87.5 17t65 47t40.5 72t14 92q0 52 -16.5 90t-45.5 63.5t-70.5 38t-90.5 12.5q-23 0 -48 -2t-45 -10l-9 45q49 11 98.5 26.5t90 41.5t66 65.5t25.5 97.5q0 34 -13 62t-35 47
t-51 29.5t-61 10.5q-38 0 -69 -12t-54 -34t-36.5 -53.5t-16.5 -70.5l-42 3v50z" />
    <glyph glyph-name="four" unicode="4" horiz-adv-x="680" 
d="M414 152l-397 -1l-17 39q60 76 127 163t132 174.5t124.5 170t105.5 150.5l47 -13q-5 -45 -8 -90.5t-3 -99.5v-409l118 2l12 -12l-5 -75h-125v-187q-29 -2 -54.5 -4t-59.5 -5q2 42 2.5 67.5t0.5 42.5v87zM414 639l-5 2q-78 -97 -154.5 -200t-155.5 -212l315 5v405z" />
    <glyph glyph-name="five" unicode="5" horiz-adv-x="680" 
d="M140 445q46 24 94 35.5t93 11.5q60 0 113.5 -19.5t93 -55.5t63 -87.5t23.5 -115.5q0 -85 -36 -152.5t-95.5 -114.5t-136.5 -72t-158 -25q-23 0 -51.5 3t-53.5 12t-42 26.5t-17 46.5q0 12 6 24t15.5 21.5t22 16.5t25.5 10h5q16 -20 38 -35.5t47 -26.5t51.5 -17t52.5 -6
q50 0 88 19.5t63.5 52.5t38 75.5t12.5 89.5q0 57 -17.5 103t-50 78.5t-79.5 49.5t-106 17q-38 0 -80 -9.5t-75 -21.5l-14 13q12 100 34.5 211.5t47.5 226.5q45 0 88.5 -1t95.5 -1q29 0 61 0.5l64 1t62 1t55 0.5l-21 -115l-366 8q-19 -74 -31 -139.5t-23 -139.5z" />
    <glyph glyph-name="six" unicode="6" horiz-adv-x="680" 
d="M592 930q-98 -23 -170 -65t-123 -99t-82 -127.5t-45 -149.5q51 36 104.5 53.5t105.5 17.5t99 -17.5t82.5 -50.5t56 -81.5t20.5 -109.5q0 -68 -22.5 -126.5t-63 -102t-97 -68t-124.5 -24.5q-75 0 -130.5 29.5t-92 79.5t-54 115.5t-17.5 136.5q0 125 37 231.5t107 189
t169.5 138t225.5 79.5zM169 439q-2 -16 -3 -32.5t-1 -33.5q0 -47 8.5 -106t31 -111t61 -87t98.5 -35q39 0 67.5 17t47 46.5t28 69t9.5 84.5q0 49 -11.5 90t-35 69.5t-60 44.5t-86.5 16q-37 0 -79.5 -9t-74.5 -23z" />
    <glyph glyph-name="seven" unicode="7" horiz-adv-x="680" 
d="M65 597v53q0 39 -1 81t-4 99h128t100 -0.5t77 -0.5h61h63q28 0 56.5 0.5t52.5 0.5h38l10 -21q-54 -98 -110 -201.5t-104.5 -210t-85.5 -215.5t-53 -218q-19 -2 -48.5 -3t-68.5 -5l-8 11q14 57 39.5 122t57.5 132.5t68 136t72.5 133t70.5 123.5t61 108q7 15 -10 15
l-290 -4q-30 0 -52 -3t-38 -16.5t-26.5 -41.5t-16.5 -77z" />
    <glyph glyph-name="eight" unicode="8" horiz-adv-x="680" 
d="M236 482q-78 38 -124 95.5t-46 138.5q0 58 23.5 106.5t64 83.5t94 54.5t113.5 19.5q63 0 110.5 -19.5t80 -50.5t48.5 -70t16 -78q0 -23 -6 -48.5t-26 -55t-57.5 -64t-100.5 -75.5q94 -40 151.5 -104t57.5 -156q0 -63 -26.5 -114.5t-70.5 -88t-101 -56.5t-118 -20
q-57 0 -108 14.5t-89.5 43t-61 71.5t-22.5 101q0 22 5 51t25 63.5t59.5 74t108.5 83.5zM287 455q-60 -42 -92 -92.5t-32 -120.5q0 -43 13.5 -80.5t38.5 -65.5t61.5 -44.5t81.5 -16.5q37 0 67 14t50.5 38t31.5 55.5t11 66.5q0 49 -18.5 86t-50 65.5t-73.5 51t-89 43.5z
M373 545q60 34 92 85t32 117q0 46 -14.5 80t-37 56t-51 32.5t-56.5 10.5q-36 0 -65.5 -12.5t-49.5 -34.5t-31 -51t-11 -62q0 -45 12.5 -77t37 -57t60 -45t82.5 -42z" />
    <glyph glyph-name="nine" unicode="9" horiz-adv-x="680" 
d="M510 335q-52 -34 -104.5 -50t-102.5 -16q-54 0 -102 18.5t-84 53.5t-56.5 85t-20.5 113q0 68 22.5 125t63 98.5t97 64.5t124.5 23q80 0 136 -32.5t91 -85t51 -119t16 -135.5q0 -136 -39 -245t-110.5 -188.5t-170.5 -128.5t-219 -65l-12 51q192 39 294.5 145.5
t125.5 287.5zM515 387q1 1 1 12v38q0 33 -3 72.5t-10.5 79t-21.5 76.5t-36 65.5t-53.5 46t-73.5 17.5q-39 0 -67.5 -15.5t-48 -42.5t-29 -64.5t-9.5 -82.5q0 -50 11.5 -92t35 -72.5t60 -48t86.5 -17.5q26 0 65 6.5t93 21.5z" />
    <glyph glyph-name="colon" unicode=":" horiz-adv-x="342" 
d="M120 509q0 17 6.5 32.5t17.5 27t25.5 18t31.5 6.5q16 0 31 -6.5t26 -18t17.5 -27t6.5 -32.5t-6.5 -32.5t-17.5 -27t-26 -18t-31 -6.5q-17 0 -31.5 6.5t-25.5 18t-17.5 27t-6.5 32.5zM120 67q0 17 6.5 32.5t17.5 27t25.5 18t31.5 6.5q16 0 31 -6.5t26 -18t17.5 -27
t6.5 -32.5t-6.5 -32.5t-17.5 -27t-26 -18t-31 -6.5q-17 0 -31.5 6.5t-25.5 18t-17.5 27t-6.5 32.5z" />
    <glyph glyph-name="semicolon" unicode=";" horiz-adv-x="342" 
d="M106 -143q45 20 74 53.5t29 85.5q0 35 -19.5 57.5t-57.5 24.5q-11 6 -16 18t-5 23q0 29 21.5 45.5t48.5 16.5q28 0 50 -13.5t37 -34.5t23 -46.5t8 -50.5q0 -39 -14.5 -72.5t-39 -61.5t-56.5 -49t-67 -34zM120 509q0 17 6.5 32.5t17.5 27t25.5 18t31.5 6.5q16 0 31 -6.5
t26 -18t17.5 -27t6.5 -32.5t-6.5 -32.5t-17.5 -27t-26 -18t-31 -6.5q-17 0 -31.5 6.5t-25.5 18t-17.5 27t-6.5 32.5z" />
    <glyph glyph-name="less" unicode="&#x3c;" horiz-adv-x="680" 
d="M65 310l545 271l7 -64l-486 -231v-2l486 -231l-7 -64l-550 270z" />
    <glyph glyph-name="equal" unicode="=" horiz-adv-x="680" 
d="M60 253l5 66h555l-5 -66h-555zM60 472l5 66h555l-5 -66h-555z" />
    <glyph glyph-name="greater" unicode="&#x3e;" horiz-adv-x="680" 
d="M615 260l-545 -271l-7 64l486 231v2l-486 231l7 64l550 -269z" />
    <glyph glyph-name="question" unicode="?" horiz-adv-x="544" 
d="M305 249q-74 56 -108.5 99.5t-34.5 89.5q0 29 13 53.5t33.5 46t44.5 40t46 35.5q21 17 40.5 31.5t33.5 30t22.5 36t8.5 49.5q0 42 -27 66.5t-69 24.5q-45 0 -74 -21t-55 -57h-6q-21 8 -42 26.5t-21 41.5q0 25 17 43.5t41 31.5t50.5 19.5t45.5 6.5q40 0 82.5 -21
t77.5 -54.5t57.5 -75t22.5 -82.5q0 -32 -13.5 -57t-34.5 -46.5t-46 -40t-47 -36.5q-42 -32 -66.5 -59t-24.5 -65q0 -36 17 -66t46 -59zM188 63q0 33 22.5 56.5t54.5 23.5t54.5 -23.5t22.5 -56.5t-22.5 -56.5t-54.5 -23.5t-54.5 23.5t-22.5 56.5z" />
    <glyph glyph-name="at" unicode="@" horiz-adv-x="1197" 
d="M842 576q-18 -58 -33.5 -124t-27 -130t-18 -121t-6.5 -97q0 -32 15 -44t37 -12q64 0 111 36.5t78 91.5t46.5 118t15.5 116q0 81 -28.5 149t-79.5 116.5t-121 76t-153 27.5q-117 0 -212 -42t-162 -114.5t-103.5 -169.5t-36.5 -206q0 -104 33.5 -194t95 -157t149 -105.5
t195.5 -38.5q60 0 123.5 14t115.5 43l21 -39q-66 -45 -147 -66t-162 -21q-116 0 -211.5 40t-164.5 110.5t-107 166.5t-38 207q0 87 21.5 168t61 151.5t96 128.5t126.5 99.5t152 64t173 22.5q93 0 173 -32t138.5 -88.5t91.5 -134t33 -168.5q0 -79 -26 -157t-75 -139.5
t-118.5 -100t-156.5 -38.5q-38 0 -64.5 17.5t-27.5 59.5q0 18 2 47t7 61l-2 2q-88 -100 -144 -144t-78 -44t-41 14t-33.5 37t-22.5 52.5t-8 61.5q0 74 22 135t56.5 109.5t76 84.5t80.5 60t71 35.5t46 11.5q16 0 33.5 -3.5t34.5 -8.5q37 5 73 12zM729 486q-9 6 -29.5 11.5
t-40.5 5.5q-42 0 -79 -28t-65.5 -72t-45 -98t-16.5 -106q0 -12 1.5 -29t6.5 -32t14 -26t25 -11q20 0 66 32.5t112 104.5q10 66 23 129.5t28 118.5z" />
    <glyph glyph-name="A" unicode="A" horiz-adv-x="962" 
d="M618 355h-333l-77 -197q-20 -57 -20 -72q0 -26 24.5 -36t87.5 -13l-3 -36q-37 0 -83 1t-91 1q-37 0 -76.5 -1t-76.5 -1l-2 34q39 3 64 9.5t43.5 24t35 48t38.5 81.5l277 677q12 30 25.5 52.5t23.5 48.5l63 8q11 -48 23.5 -88t23.5 -73l225 -652q15 -44 27 -69t28 -38.5
t40.5 -18.5t63.5 -8l-3 -36q-42 0 -92.5 1t-101.5 1q-42 0 -85 -1t-85 -1l-3 34q56 4 80 13.5t24 35.5q0 11 -4 25.5t-10 32.5zM308 413h291l-131 396h-3z" />
    <glyph glyph-name="B" unicode="B" horiz-adv-x="847" 
d="M57 960q16 0 38 -0.5t46 -0.5q25 0 51 -0.5t51 -0.5q40 0 90 5t105 5q63 0 121 -11.5t102.5 -38t70.5 -69.5t26 -106q0 -52 -18 -88.5t-45.5 -61.5t-60 -40.5t-61.5 -24.5v-4q112 -17 173 -81t61 -170q0 -77 -32.5 -130.5t-86 -87.5t-122 -49.5t-140.5 -15.5
q-23 0 -48.5 2t-51.5 4l-52 4t-48 2q-20 0 -42.5 -0.5t-45.5 -0.5t-44 -0.5t-37 -0.5l-3 34q42 3 68 9t40 20t18.5 37.5t4.5 61.5v673q0 24 -4 40t-17.5 26.5t-39.5 15.5t-69 7zM301 153q0 -33 3.5 -54.5t17 -33.5t40 -16.5t73.5 -4.5q105 0 168.5 53t63.5 157
q0 61 -21 105.5t-58.5 73t-90 42t-116.5 13.5h-80v-335zM301 539h83q124 0 181.5 47.5t57.5 140.5q0 34 -9.5 67.5t-34 60.5t-68.5 44t-113 17q-36 0 -56 -4.5t-29 -13t-10.5 -21t-1.5 -28.5v-310z" />
    <glyph glyph-name="C" unicode="C" horiz-adv-x="1013" 
d="M207 498q0 -96 24 -180.5t72.5 -147t121.5 -99t172 -36.5q54 0 103.5 15t87.5 49q36 32 62.5 78.5t52.5 109.5l40 -10q-17 -66 -27 -124t-17 -124q-79 -23 -156.5 -36t-155.5 -13q-113 0 -208.5 35t-165 99t-108.5 154.5t-39 201.5q0 128 47 223.5t127.5 159.5
t186.5 95.5t224 31.5q61 0 130.5 -9t129.5 -25q-6 -64 -7.5 -121.5t-1.5 -121.5l-42 -4q-4 59 -23.5 102.5t-52 72t-75.5 42t-94 13.5q-100 0 -176 -31.5t-127.5 -88t-78 -136t-26.5 -175.5z" />
    <glyph glyph-name="D" unicode="D" horiz-adv-x="1080" 
d="M53 960q36 0 87.5 -1t102.5 -1t107 5.5t108 5.5q108 0 208 -23t177.5 -76t124 -138.5t46.5 -209.5q0 -128 -46 -227t-124 -167t-181.5 -103.5t-218.5 -35.5q-51 0 -109 6.5t-109 6.5q-20 0 -42.5 -0.5t-45.5 -0.5t-44 -0.5t-37 -0.5l-3 34q42 3 68 9t40 20t18.5 37.5
t4.5 61.5v669q0 27 -4 44t-17.5 27.5t-40.5 15t-72 6.5zM301 178q0 -29 2 -53.5t15 -42.5t42 -28t83 -10q97 0 176.5 30.5t136.5 88.5t88.5 141t31.5 187q0 106 -32.5 185.5t-89.5 133t-135 80.5t-169 27q-32 0 -59 -4t-47 -11t-31.5 -15t-11.5 -17v-692z" />
    <glyph glyph-name="E" unicode="E" horiz-adv-x="816" 
d="M300 163q0 -34 4.5 -56t18 -34.5t38 -17.5t65.5 -5h73q58 0 94.5 9.5t61.5 32t44.5 59.5t42.5 91l39 -9q-8 -29 -15 -62t-13 -65t-10 -60t-5 -46q-199 0 -322.5 1t-184.5 1q-18 0 -42.5 -0.5t-50.5 -0.5t-50.5 -0.5t-41.5 -0.5l-3 34q46 3 74 9.5t43 20t20 37t5 61.5v673
q0 24 -4.5 40t-18 26.5t-39 15.5t-68.5 7l3 36q19 0 43.5 -0.5t49.5 -0.5q26 0 50.5 -0.5t45.5 -0.5q39 0 164 1t318 1q-6 -51 -9 -107t-4 -119l-40 -1q-9 52 -20 86t-31 54.5t-52 29t-83 8.5h-143q-30 0 -38.5 -6t-8.5 -31v-346l338 10l7 -7l-2 -83q-91 8 -179.5 11
t-163.5 5v-301z" />
    <glyph glyph-name="F" unicode="F" horiz-adv-x="744" 
d="M50 960q21 0 46.5 -0.5t51.5 -0.5t52 -0.5t47 -0.5q39 0 153.5 1t313.5 1q-6 -51 -9 -109t-4 -121l-40 -1q-9 53 -20 88t-31 56t-52 29.5t-83 8.5h-128q-30 0 -38.5 -6t-8.5 -31v-367l323 10l7 -7l-2 -84q-91 8 -172 11.5t-156 5.5v-316q0 -24 4.5 -41t21 -27.5t48.5 -16
t88 -6.5l-2 -36q-20 0 -50 0.5t-63 0.5t-64 0.5t-52 0.5q-17 0 -40 -0.5t-47 -0.5t-47 -0.5t-40 -0.5l-3 34q42 3 67.5 9.5t39.5 20.5t19 37.5t5 60.5v673q0 24 -4.5 40t-18.5 26.5t-41.5 15.5t-73.5 7z" />
    <glyph glyph-name="G" unicode="G" horiz-adv-x="1061" 
d="M881 696q-4 59 -26.5 103t-58.5 73t-84 43t-103 14q-103 0 -179 -31.5t-126 -88t-74.5 -136t-24.5 -175.5t25 -180.5t75 -147t126.5 -99t178.5 -36.5q14 0 46.5 3t66.5 11t59.5 21t25.5 33v198q0 24 -6 40t-24 26.5t-51.5 15.5t-88.5 7l2 36q24 0 52.5 -0.5t56.5 -0.5
q29 0 56 -0.5t49 -0.5q20 0 42 0.5t43 0.5t40 0.5t34 0.5l3 -34q-29 -3 -47 -9t-28.5 -20t-14 -37.5t-3.5 -60.5v-64q0 -48 1 -92.5t6 -72.5q-81 -22 -165.5 -39t-163.5 -17q-117 0 -215.5 35t-170 99t-111.5 154.5t-40 201.5q0 128 45.5 223.5t124.5 159.5t185 95.5
t228 31.5q31 0 68 -3t74.5 -8.5t74 -12.5t66.5 -15q-6 -64 -6.5 -120.5t-0.5 -120.5z" />
    <glyph glyph-name="H" unicode="H" horiz-adv-x="1135" 
d="M835 535v300q0 24 -3.5 40t-16 26.5t-36.5 15.5t-66 7l2 36q16 0 38.5 -0.5t47.5 -0.5q26 0 53 -0.5t51 -0.5q19 0 42 0.5t45 0.5q23 0 43 0.5t34 0.5l2 -34q-39 -3 -62.5 -9.5t-36.5 -20t-17.5 -37.5t-4.5 -61v-673q0 -24 4 -40t16.5 -26.5t37.5 -15.5t67 -7l-2 -36
q-16 0 -39 0.5t-49 0.5t-53 0.5t-51 0.5q-20 0 -42.5 -0.5t-44.5 -0.5t-41.5 -0.5t-33.5 -0.5l-3 34q39 3 62 9.5t36 20t17 37t4 61.5v314h-535v-351q0 -24 3.5 -40t16 -26.5t36.5 -15.5t66 -7l-2 -36q-16 0 -38.5 0.5t-48 1t-52.5 1t-51 0.5q-19 0 -42 -0.5t-46 -0.5
q-22 0 -42 -0.5t-34 -0.5l-2 34q39 3 62.5 9.5t36.5 20t17.5 37t4.5 61.5v672q0 24 -4 40t-16.5 26.5t-37.5 15.5t-67 7l2 36h44q25 0 50.5 -0.5t49.5 -0.5h46h42q23 0 45.5 0.5t42.5 0.5h34l3 -34q-39 -3 -62 -9.5t-36 -20t-17 -37.5t-4 -61v-263h535z" />
    <glyph glyph-name="I" unicode="I" horiz-adv-x="485" 
d="M61 34q39 3 63 9.5t37.5 20t18.5 37t5 61.5v673q0 24 -4 40t-17.5 26.5t-38.5 15.5t-66 7l2 36q16 0 39 -0.5t49 -0.5q27 0 54.5 -0.5t51.5 -0.5q19 0 42.5 0.5t46.5 0.5t43.5 0.5t34.5 0.5l4 -34q-39 -3 -63.5 -9.5t-38.5 -20t-19 -37t-5 -60.5v-674q0 -24 4 -40
t17 -26.5t38 -15.5t67 -7v-36q-16 0 -40 0.5t-51 0.5q-26 0 -53 0.5t-51 0.5q-20 0 -43 -0.5t-46 -0.5t-43.5 -0.5t-34.5 -0.5z" />
    <glyph glyph-name="J" unicode="J" horiz-adv-x="460" 
d="M52 960q16 0 39 -0.5t49 -0.5t53.5 -0.5t51.5 -0.5h42q24 0 47.5 0.5t44.5 0.5h38l3 -34q-40 -3 -65 -9.5t-39.5 -20t-19.5 -37.5t-5 -61v-404q0 -43 0.5 -87.5t0.5 -89.5q0 -43 0.5 -78.5t0.5 -60.5v-30q0 -97 -27 -169t-72 -120q-37 -42 -89 -62.5t-109 -20.5
q-17 0 -34.5 3.5t-32.5 12t-24.5 22.5t-9.5 34q0 24 19.5 40t42.5 21h3q19 -17 50 -33.5t65 -16.5q19 0 37 6.5t30 23.5q13 17 20 41.5t10 53t3.5 59.5t0.5 62v831q0 24 -4 40t-17.5 26.5t-38.5 15.5t-66 7z" />
    <glyph glyph-name="K" unicode="K" horiz-adv-x="992" 
d="M426 926q-40 -3 -64.5 -9.5t-38 -20t-18.5 -37t-5 -60.5v-285q29 5 52.5 17t52.5 38q31 29 66 64t69.5 71.5t66.5 72.5t57 67q14 18 20.5 32t-0.5 24.5t-28.5 16.5t-62.5 8l3 35q14 0 35.5 -0.5t45.5 -0.5q25 0 50.5 -0.5t47.5 -0.5q19 0 44.5 0.5t50.5 0.5q26 0 48 0.5
t36 0.5l3 -34q-36 -3 -65.5 -10t-57 -20t-54.5 -32.5t-57 -47.5q-22 -20 -53.5 -51t-68 -68.5t-76.5 -78t-78 -79.5q42 -52 89.5 -110t94 -112.5t87 -101t67.5 -74.5q30 -31 50.5 -50t39.5 -30.5t41 -16.5t56 -8l-2 -36q-38 0 -83.5 1t-90.5 1q-14 0 -29.5 -0.5t-29.5 -1.5
q-8 15 -28 42t-48 62t-61.5 75.5t-69 83t-71 84t-66.5 78.5q-20 23 -36.5 32.5t-33.5 9.5q-11 0 -23 -3v-339q0 -24 3.5 -40t16.5 -26.5t38 -15.5t68 -7v-36q-16 0 -39 0.5t-50 0.5t-54.5 0.5t-51.5 0.5q-20 0 -43.5 -0.5t-47.5 -0.5t-45 -0.5t-35 -0.5l-3 34q42 3 67 9.5
t38.5 20t18 37t4.5 61.5v673q0 24 -4 40t-17.5 26.5t-39.5 15.5t-69 7l2 36q16 0 40 -0.5t51 -0.5t55 -0.5t52 -0.5q19 0 42.5 0.5t46.5 0.5q24 0 46 0.5t36 0.5v-34z" />
    <glyph glyph-name="L" unicode="L" horiz-adv-x="780" 
d="M430 926q-41 -3 -66.5 -9.5t-39.5 -20t-19 -37.5t-5 -61v-635q0 -34 4.5 -56t18 -34.5t38 -17.5t65.5 -5h52q58 0 95 9.5t62.5 32t44.5 59.5t42 91l38 -9q-8 -29 -15 -62t-13 -65t-10 -60t-5 -46h-152q-66 0 -114 0.5t-82 0.5t-59 0.5t-44 0.5h-35q-20 0 -44 -0.5
t-48 -0.5t-45.5 -0.5t-35.5 -0.5l-3 34q41 3 66.5 9.5t39.5 20t19 37t5 61.5v673q0 24 -4.5 40t-18 26.5t-39 15.5t-68.5 7l3 36q16 0 39.5 -0.5t50.5 -0.5t55 -0.5t52 -0.5q19 0 43 0.5t48 0.5t45 0.5t35 0.5z" />
    <glyph glyph-name="M" unicode="M" horiz-adv-x="1272" 
d="M33 960q12 0 41.5 -0.5t65.5 -0.5t73 -0.5t64 -0.5q18 -43 36.5 -85t37.5 -85l283 -630h3l277 643q17 39 33 78.5t32 78.5q19 0 54.5 0.5t72.5 0.5q38 0 71 0.5t47 0.5l2 -34q-44 -3 -70.5 -9.5t-40.5 -20t-18 -37.5t-3 -61l21 -673q1 -24 6.5 -40t20 -26.5t41 -15.5
t70.5 -7l-2 -36q-18 0 -42 0.5t-51 0.5q-26 0 -53 0.5t-51 0.5q-20 0 -41.5 -0.5t-42.5 -0.5t-40 -0.5t-33 -0.5l-3 34q36 3 57.5 9.5t33 20.5t14 37.5t1.5 60.5l-18 635l-3 3q-88 -203 -173.5 -402.5t-170.5 -405.5l-48 -6q-85 198 -170.5 385t-173.5 382l-4 -2l-20 -576
q-2 -47 2 -73.5t17 -40t37 -18t62 -7.5l-2 -36q-32 0 -69 1t-85 1q-38 0 -79.5 -1t-76.5 -1l-3 34q41 4 67 9.5t41 22.5t21 51t8 94l21 517q1 36 0 61.5t-5 44t-11 31.5t-18 24q-19 19 -48 26t-67 9z" />
    <glyph glyph-name="N" unicode="N" horiz-adv-x="1098" 
d="M881 -14q-26 37 -52 71.5t-55 69.5l-535 635l-4 -2v-585q0 -47 5.5 -73.5t20.5 -40t40.5 -18t66.5 -7.5l-2 -36q-32 0 -75.5 1t-91.5 1q-38 0 -79.5 -1t-76.5 -1l-3 34q40 4 66 9.5t41.5 22.5t21.5 51t6 94v501q0 42 -1 68t-4.5 42.5t-9.5 27.5t-16 23q-10 13 -20 22
t-23 15t-32 9t-47 5l2 36q12 0 35.5 -0.5t52.5 -0.5t60 -0.5t58 -0.5l640 -755l3 2v579q0 47 -5.5 73.5t-20.5 40t-41 18t-67 7.5l2 36q32 0 76 -1t92 -1q19 0 40 0.5t41.5 1t39 1t32.5 0.5l1 -34q-39 -4 -64 -10t-39.5 -23t-20.5 -51t-6 -94v-752z" />
    <glyph glyph-name="O" unicode="O" horiz-adv-x="1122" 
d="M561 980q109 0 200.5 -34.5t156.5 -98.5t101.5 -154.5t36.5 -202.5q0 -111 -36 -204.5t-101 -161.5t-156 -106t-202 -38q-109 0 -200 34.5t-156.5 98.5t-102 154.5t-36.5 202.5q0 111 36 204.5t101 161.5t156 106t202 38zM555 926q-69 0 -132.5 -22.5t-112 -72.5
t-77.5 -129.5t-29 -193.5q0 -134 33 -225t85 -146.5t116.5 -79t128.5 -23.5q69 0 132.5 22.5t112 72.5t77.5 129.5t29 193.5q0 134 -33 225t-85 146.5t-116.5 79t-128.5 23.5z" />
    <glyph glyph-name="P" unicode="P" horiz-adv-x="805" 
d="M300 127q0 -24 3 -40.5t18 -27.5t45.5 -16.5t85.5 -6.5l-2 -36q-54 0 -113 1t-107 1q-19 0 -42 -0.5t-46 -0.5q-22 0 -42 -0.5t-34 -0.5l-2 34q39 3 62.5 9.5t36.5 20t17.5 37t4.5 61.5v673q0 24 -4 40t-16.5 26.5t-37.5 15.5t-67 7l2 36q16 0 37.5 -0.5t46.5 -0.5
t51 -0.5t50 -0.5q36 0 82 5t91 5q71 0 135.5 -14t113 -46t77.5 -84.5t29 -128.5q0 -77 -31 -134t-81 -95t-112 -57t-125 -19q-38 0 -72.5 5t-53.5 13v-281zM300 458q23 -7 49 -10.5t58 -3.5q39 0 80 12t74.5 40.5t55.5 75.5t22 118q0 115 -62.5 170t-174.5 55q-35 0 -55 -4
t-30.5 -12.5t-13.5 -22.5t-3 -35v-383z" />
    <glyph glyph-name="Q" unicode="Q" horiz-adv-x="1121" 
d="M561 980q109 0 200.5 -34.5t156.5 -98.5t101.5 -154t36.5 -202q0 -98 -31 -182.5t-86 -150t-131 -108.5t-166 -58l-2 -7q58 -23 114 -48.5t110 -50.5q61 -29 111 -49.5t93 -34t81 -20t74 -6.5q45 0 88 11.5t94 31.5l18 -33q-93 -58 -162.5 -86.5t-132.5 -28.5
q-33 0 -64 6t-64 19.5t-70.5 34.5t-82.5 51q-80 53 -140 89.5t-107 60.5t-83.5 38t-69.5 21q-84 17 -154 58t-120.5 102.5t-78.5 142t-28 177.5q0 111 36 204t101 161t156 106t202 38zM555 926q-69 0 -132.5 -22.5t-112 -72t-77.5 -129t-29 -193.5q0 -134 34 -225t87 -146
t119 -78.5t130 -23.5q69 0 131.5 22.5t109.5 72t75 129t28 193.5q0 134 -33 225t-85 146t-116.5 78.5t-128.5 23.5z" />
    <glyph glyph-name="R" unicode="R" horiz-adv-x="915" 
d="M300 127q0 -24 2 -40.5t14 -27.5t37.5 -16.5t72.5 -6.5v-36q-48 0 -98 1t-98 1q-19 0 -42 -0.5t-46 -0.5q-22 0 -42 -0.5t-34 -0.5l-2 34q39 3 62.5 9.5t36.5 20t17.5 37t4.5 61.5v673q0 24 -4 40t-16.5 26.5t-37.5 15.5t-67 7l2 36q16 0 37.5 -0.5t46.5 -0.5t51 -0.5
t50 -0.5q40 0 80.5 5.5t82.5 5.5q60 0 120 -10t108.5 -36t78.5 -70.5t30 -113.5q0 -46 -14.5 -87t-40.5 -74.5t-61.5 -59t-78.5 -41.5q32 -61 63 -117t57.5 -102.5t48 -81.5t35.5 -55q19 -26 33 -41.5t30.5 -24t38.5 -12.5t57 -7l-2 -36q-30 0 -78.5 1t-93.5 1
q-14 0 -30.5 -0.5t-30.5 -1.5q-10 21 -31 61.5t-50 94t-64 116.5t-73 128q-6 10 -11.5 18t-14 13.5t-22.5 8.5t-37 3h-30q-8 0 -19.5 0.5t-27.5 1.5v-318zM300 493q8 -1 16 -1.5t16 -0.5h32q118 0 182.5 54t64.5 175q0 102 -61.5 149t-163.5 47q-31 0 -48.5 -5.5
t-25.5 -16.5t-10 -27t-2 -36v-338z" />
    <glyph glyph-name="S" unicode="S" horiz-adv-x="707" 
d="M84 279q20 -52 42.5 -96t54 -76.5t73.5 -51t101 -18.5q39 0 72 13t58 37t39 56.5t14 71.5q0 49 -18 84t-48 60.5t-68 44.5t-78 37q-45 20 -90.5 44t-81.5 57t-59 76t-23 102q0 63 25.5 111.5t69 81.5t101 50t122.5 17q63 0 116.5 -9.5t114.5 -25.5q-3 -32 -5 -59.5
t-2.5 -54t-1 -54t-0.5 -59.5l-42 -4q-9 106 -64.5 158.5t-149.5 52.5q-36 0 -66 -11t-52 -32t-34.5 -50t-12.5 -65q0 -48 15.5 -80.5t42.5 -56.5t62.5 -41.5t74.5 -34.5q48 -21 96.5 -46t87 -59t62.5 -79t24 -106q0 -68 -28 -120.5t-74 -89t-106 -55.5t-123 -19
q-55 0 -114 11t-125 30q-7 66 -17 124t-27 124z" />
    <glyph glyph-name="T" unicode="T" horiz-adv-x="878" 
d="M426 958q34 0 87 0.5t107 0.5q55 0 114 0.5t119 0.5q-3 -35 -5.5 -64.5t-4 -58t-2 -57.5t-0.5 -63l-38 -2q-9 54 -19.5 91t-30.5 60.5t-54 33.5t-90 10h-114v-785q0 -24 4 -40t18 -26.5t42.5 -15.5t77.5 -7l-2 -36q-21 0 -47.5 0.5t-54.5 0.5t-55.5 0.5t-51.5 0.5
q-20 0 -43.5 -0.5t-47.5 -0.5t-48 -0.5t-43 -0.5l-3 34q46 3 74 9t42 20t18.5 37.5t4.5 61.5v748h-111q-56 0 -90.5 -10t-55.5 -33.5t-32 -60.5t-20 -91l-38 2v63q0 45 -1.5 86t-6.5 94q60 0 118 -0.5t112 -0.5t95 -0.5t76 -0.5z" />
    <glyph glyph-name="U" unicode="U" horiz-adv-x="1047" 
d="M284 329q0 -72 24 -123.5t63.5 -84t89.5 -48t103 -15.5q54 0 103 16.5t87 53t60.5 94t22.5 138.5v420q0 44 -6.5 71t-24 42t-48.5 21t-80 9l2 36q35 0 84.5 -1t103.5 -1q44 0 92 1.5t80 1.5l1 -34q-44 -4 -71.5 -9.5t-44 -21.5t-22.5 -47t-6 -85v-423q0 -98 -33 -166
t-86.5 -111.5t-121 -63t-137.5 -19.5q-69 0 -132 19t-111.5 58t-77.5 98t-29 139v534q0 24 -4.5 41t-19 28.5t-41.5 17.5t-72 8l2 36q18 0 42.5 -0.5t51.5 -0.5q28 0 56.5 -0.5t53.5 -0.5q20 0 44.5 0.5t49.5 0.5t47.5 0.5t39.5 0.5l3 -34q-43 -3 -70 -10t-42 -22
t-20.5 -39.5t-5.5 -61.5v-463z" />
    <glyph glyph-name="V" unicode="V" horiz-adv-x="962" 
d="M360 926q-57 -5 -80 -14.5t-23 -35.5q0 -11 3.5 -25t9.5 -32l234 -661h3l244 647q8 23 13 40t5 30t-5.5 21.5t-18.5 14t-35 8.5t-55 5l2 36q37 0 83 -1t91 -1q37 0 76.5 1t76.5 1l3 -34q-39 -3 -63.5 -9.5t-42.5 -24t-33 -48t-36 -81.5q-78 -196 -154.5 -385.5
t-152.5 -386.5l-60 -6q-73 205 -147 403t-149 402q-16 43 -28 68t-28 38.5t-40 19t-63 8.5l2 36q42 0 92.5 -1t101.5 -1q42 0 85.5 1t85.5 1z" />
    <glyph glyph-name="W" unicode="W" horiz-adv-x="1375" 
d="M478 164l192 479l-48 147q-14 43 -25.5 68.5t-27 39t-37.5 18.5t-58 8l2 36q42 0 92.5 -1t101.5 -1q42 0 84.5 1t84.5 1l3 -34q-62 -5 -87 -15t-25 -37q0 -11 11 -55l205 -655h2l218 640q17 54 17 71q0 26 -26.5 35.5t-95.5 13.5l2 36q45 0 91 -1t91 -1q37 0 76.5 1
t76.5 1l3 -34q-39 -3 -64.5 -9.5t-44.5 -23t-34.5 -47t-34.5 -82.5q-72 -196 -139 -386.5t-137 -387.5l-60 -5q-48 149 -96.5 291.5t-91.5 277.5q-25 -59 -55 -133t-60 -150.5t-58 -149.5t-49 -131l-58 -5q-66 205 -132 403t-135 402q-14 43 -26 68.5t-28.5 39t-40.5 18.5
t-63 8l2 36q42 0 92.5 -1t101.5 -1q42 0 84.5 1t84.5 1l3 -34q-57 -5 -80 -15t-23 -36q0 -11 3.5 -24.5t8.5 -31.5l205 -655h2z" />
    <glyph glyph-name="X" unicode="X" horiz-adv-x="966" 
d="M328 0q-31 0 -81 1t-96 1q-50 0 -84 -1t-69 -1l-2 36q42 2 70.5 11t52 26.5t45.5 45.5t51 67l211 289l-226 325q-27 39 -44.5 62.5t-36.5 36.5t-43.5 18t-65.5 7l2 36q15 0 38.5 -0.5t50.5 -0.5t54 -0.5t50 -0.5q46 0 94 1t79 1l3 -34q-54 -5 -73.5 -13t-19.5 -22t20 -43
l189 -277l178 259q14 20 21.5 34t7.5 25q0 16 -20.5 24t-71.5 13l3 34q31 0 77 -1t92 -1t77.5 1t62.5 1l2 -36q-41 -2 -68 -10t-49 -25t-42.5 -43.5t-48.5 -65.5l-187 -259l244 -355q28 -41 48 -65.5t41 -38.5t47.5 -19t68.5 -7l-2 -36q-18 0 -41.5 0.5t-49.5 0.5t-53.5 0.5
t-52.5 0.5q-23 0 -49.5 -0.5t-53.5 -0.5q-26 0 -49 -0.5t-38 -0.5l-5 33q59 5 81 12.5t22 22.5t-19 43l-213 312l-200 -293q-14 -20 -21 -33.5t-7 -24.5q0 -17 23 -25.5t81 -13.5z" />
    <glyph glyph-name="Y" unicode="Y" horiz-adv-x="870" 
d="M380 314q0 29 -1 49.5t-6.5 41t-16.5 44.5t-31 60q-27 48 -65.5 116t-97.5 166q-23 39 -39.5 63.5t-35 39t-43.5 21t-64 9.5l2 36q42 0 92.5 -1t101.5 -1q42 0 85.5 1t85.5 1l3 -34q-54 -4 -74.5 -13t-20.5 -27q0 -12 7 -28t19 -39l182 -335l176 318q16 29 24.5 48.5
t8.5 33.5q0 19 -22.5 27.5t-79.5 12.5l2 36q37 0 78 -1t86 -1q37 0 76.5 1t76.5 1l3 -34q-39 -3 -64.5 -10t-45.5 -24t-39.5 -46t-47.5 -76q-51 -85 -88 -150.5t-58 -107.5q-21 -41 -32 -66t-16 -44t-5.5 -36.5t-0.5 -42.5v-198q0 -24 4 -40t18 -26.5t42.5 -15.5t77.5 -7
l-2 -36q-21 0 -47.5 0.5t-54.5 0.5t-55.5 0.5t-51.5 0.5q-20 0 -43.5 -0.5t-47.5 -0.5t-48 -0.5t-43 -0.5l-3 34q46 3 74 9t42 20t18.5 37.5t4.5 61.5v152z" />
    <glyph glyph-name="Z" unicode="Z" horiz-adv-x="908" 
d="M50 16q21 27 54 72t73 101.5t85.5 120.5t90 128.5t87 125t76.5 110t58 84t33 47.5l72 104h-297q-59 0 -96 -5t-61 -24.5t-38 -58.5t-26 -106l-38 2v65q0 45 -2 85t-6 93q69 0 136.5 -0.5t125.5 -0.5q60 0 103 -0.5t63 -0.5h34q23 0 53 0.5t62 0.5q33 0 62.5 0.5t51.5 0.5
h32l12 -16q-18 -23 -49.5 -66.5t-71.5 -99.5t-85 -120.5t-90.5 -130t-88.5 -127t-78 -111.5t-59 -84.5t-32 -45.5l-74 -106h363q41 0 77.5 8.5t69 31t61.5 61.5t54 99l39 -10q-24 -77 -37 -142.5t-15 -100.5q-85 0 -162 0.5t-143 0.5q-64 0 -112.5 0.5t-74.5 0.5h-37
q-23 0 -52 -0.5t-60 -0.5q-30 0 -57.5 -0.5t-48.5 -0.5h-28z" />
    <glyph glyph-name="bracketleft" unicode="[" horiz-adv-x="499" 
d="M121 1038h260l4 -38q-62 -5 -97 -10.5t-52 -19.5t-21 -39.5t-4 -69.5v-946q0 -44 4 -69.5t21 -39.5t52 -19.5t97 -10.5l-4 -38h-260v1300z" />
    <glyph glyph-name="backslash" unicode="\" horiz-adv-x="540" 
d="M476 -130l-68 -11l-316 1131l69 11z" />
    <glyph glyph-name="bracketright" unicode="]" horiz-adv-x="499" 
d="M377 -263l-259 1l-4 38q62 5 97 10.5t52 19.5t21 39.5t4 69.5v946q0 44 -4 69.5t-21 39.5t-52 19.5t-97 10.5l4 38l259 -1v-1300z" />
    <glyph glyph-name="asciicircum" unicode="^" horiz-adv-x="680" 
d="M366 970l270 -550l-64 -7l-231 486h-2l-231 -486l-64 7l271 545z" />
    <glyph glyph-name="underscore" unicode="_" horiz-adv-x="1024" 
d="M1024 -171v-65h-1024v65h1024z" />
    <glyph glyph-name="grave" unicode="`" horiz-adv-x="476" 
d="M334 648l-3 -6l-35 -6l-155 245l5 11l105 9z" />
    <glyph glyph-name="a" unicode="a" horiz-adv-x="620" 
d="M392 323q1 7 1 17v23v50q0 51 -24.5 84.5t-78.5 33.5q-29 0 -49.5 -10.5t-34 -27.5t-20 -39t-6.5 -46q-16 -13 -44 -13q-23 0 -43.5 10.5t-20.5 31.5q0 16 12.5 33t33 33.5t45.5 31.5t51 26q67 29 132 29q32 0 60 -8.5t49 -27t33 -47.5t12 -69q0 -60 -2 -138.5t-2 -174.5
q0 -39 15 -61t42 -22q24 0 52 17l18 -27q-23 -22 -56.5 -36t-67.5 -14q-35 0 -64.5 19t-39.5 65q-10 -7 -31 -21t-48 -28.5t-58 -25.5t-59 -11q-33 0 -60 12t-46.5 32.5t-30 47t-10.5 56.5q0 51 29.5 87.5t77.5 56.5q35 14 93.5 28.5t139.5 22.5zM390 114q0 42 1 82t1 82
q-27 -3 -54.5 -7.5t-53.5 -11.5t-49 -18t-39 -26q-25 -22 -25 -57q0 -42 21.5 -71t66.5 -29q32 0 67 15t64 41z" />
    <glyph glyph-name="b" unicode="b" horiz-adv-x="722" 
d="M228 1073q-3 -25 -5.5 -59t-4 -67.5t-2.5 -63.5t-1 -48v-308q48 32 96 47.5t93 15.5q59 0 107.5 -23t83 -62t53.5 -90t19 -108q0 -73 -27 -133t-73.5 -103t-109.5 -67t-136 -24q-51 0 -107.5 11.5t-107.5 37.5q2 76 2 113v54v696q0 29 -3 46.5t-13.5 27.5t-29.5 15
t-52 10l-4 29q23 4 51 11t56.5 15t55.5 17t48 18zM215 123q0 -18 11.5 -34.5t30.5 -29t44.5 -20t53.5 -7.5q49 0 85.5 20.5t60 54.5t35 77.5t11.5 89.5q0 48 -14 91t-40.5 75.5t-65 51.5t-87.5 19q-29 0 -60.5 -7t-64.5 -26v-355z" />
    <glyph glyph-name="c" unicode="c" horiz-adv-x="584" 
d="M566 127q-17 -35 -44 -62t-59.5 -46t-68.5 -29t-72 -10q-60 0 -110 23.5t-86 62.5t-56 90.5t-20 108.5q0 69 27.5 128t74 103t107.5 69t129 25q33 0 66.5 -6t65.5 -23q14 -7 19.5 -18.5t5.5 -22.5q0 -18 -14 -37.5t-46 -35.5h-5q-37 38 -71 56t-79 18q-42 0 -73.5 -17
t-52.5 -45t-32 -64.5t-11 -75.5q0 -49 14.5 -94t41.5 -79t66.5 -54.5t90.5 -20.5q48 0 92 20t71 62z" />
    <glyph glyph-name="d" unicode="d" horiz-adv-x="733" 
d="M623 1073q-3 -25 -5.5 -59t-4 -68t-2.5 -64t-1 -48v-684q0 -29 3 -45.5t14 -25.5t32.5 -13.5t57.5 -9.5l4 -28q-32 -5 -65 -10.5t-61.5 -11.5t-50 -11.5t-31.5 -8.5l-10 8v65q-49 -41 -98.5 -59.5t-99.5 -18.5q-52 0 -98 20t-80.5 56t-54.5 87.5t-20 114.5
q0 72 27.5 132.5t75 104.5t110.5 69t135 25q14 0 44 -2.5t59 -9.5v332q0 28 -3 44.5t-14.5 26t-33 14.5t-58.5 11l-3 28q37 6 73 13t66.5 13.5t52 12t30.5 8.5zM503 477q-27 31 -65 46t-77 15q-48 0 -83 -20t-58 -53t-34.5 -76t-11.5 -89q0 -47 12.5 -90.5t37.5 -76.5
t61.5 -53t83.5 -20q42 0 75.5 12.5t58.5 33.5v371z" />
    <glyph glyph-name="e" unicode="e" horiz-adv-x="604" 
d="M559 111q-32 -42 -66 -67.5t-65 -39.5t-57 -19t-41 -5q-63 0 -115 24t-89 64.5t-57.5 95t-20.5 115.5q0 66 24.5 122.5t64.5 98.5t92 66t108 24q45 0 86 -14.5t71.5 -41.5t49 -65t18.5 -85v-14q0 -13 -1 -14q-5 -27 -28 -27h-378q1 -69 21 -118t51.5 -80t70.5 -45.5
t77 -14.5q41 0 78 14t78 55zM411 374q20 0 26 7.5t6 25.5q0 27 -9.5 51t-27 42t-43 28t-56.5 10q-24 0 -47.5 -11t-44 -32t-35.5 -51.5t-21 -69.5h252z" />
    <glyph glyph-name="f" unicode="f" horiz-adv-x="417" 
d="M247 503v-389q0 -25 5 -40t19 -22.5t39.5 -10.5t67.5 -4l-3 -37q-16 0 -38 0.5t-47 0.5t-51.5 0.5t-50.5 0.5q-39 0 -78 -1t-67 -1l-3 32q33 3 52.5 8.5t30 18.5t14 35.5t3.5 60.5v348h-95l-7 7l4 38l98 8v156q0 94 27 164t75 118q42 42 94 62t112 20q15 0 34.5 -3
t36.5 -10.5t29 -21t12 -33.5q0 -32 -16.5 -46t-44.5 -25h-3q-25 23 -61 40.5t-72 17.5q-20 0 -38.5 -6.5t-32.5 -20.5q-17 -17 -26 -42t-13.5 -54t-5 -60.5t-0.5 -60.5v-193l165 3l8 -7l-3 -51h-170z" />
    <glyph glyph-name="g" unicode="g" horiz-adv-x="682" 
d="M67 353q0 50 20.5 93.5t55 75.5t79.5 50t95 18q80 0 138 -34q11 -7 20.5 -9.5t22.5 -2.5q11 1 16 1l153 11l7 -8l-6 -58h-141q41 -53 41 -117q0 -59 -23.5 -104t-61 -75.5t-83 -46t-89.5 -15.5q-39 0 -83 10q-23 -11 -38.5 -32.5t-15.5 -40.5q0 -14 10.5 -24.5t26 -17.5
t33 -10t31.5 -3q39 0 81.5 1.5t79.5 1.5q40 0 80 -7.5t72.5 -27t52.5 -53.5t20 -86q0 -63 -28 -118.5t-78 -96t-119.5 -64t-152.5 -23.5q-43 0 -88.5 11.5t-82.5 35t-60.5 59t-23.5 83.5q0 34 13 62.5t34 52.5t47 44t52 38q-41 15 -70.5 40t-29.5 63q0 17 11.5 36t27.5 37
t34 33t31 26q-111 56 -111 191zM334 -85q-33 0 -54.5 -0.5t-35.5 -3.5t-25 -9t-23 -16q-31 -26 -46 -58.5t-15 -67.5q0 -41 20 -69t51 -45.5t69 -25.5t74 -8q45 0 85 9.5t70 30.5t47.5 54t17.5 79q0 42 -18 70t-52 42q-29 13 -64 15.5t-81 2.5h-20zM327 176q32 0 55 15
t37.5 39t21.5 54t7 59q0 36 -7.5 72.5t-24 65.5t-43 47t-65.5 18q-33 0 -56 -14.5t-37.5 -38.5t-21 -53.5t-6.5 -59.5q0 -34 8 -70t24.5 -66t43 -49t64.5 -19z" />
    <glyph glyph-name="h" unicode="h" horiz-adv-x="769" 
d="M254 1073q-4 -25 -6.5 -59t-4 -68t-2.5 -64t-1 -48v-325q51 34 111 57.5t117 23.5q36 0 68 -11t56 -35.5t38 -64t14 -96.5v-269q0 -24 2.5 -38.5t12.5 -22.5t30 -11t54 -5l-2 -37q-32 0 -73.5 1t-89.5 1q-39 0 -74 -1t-63 -1l-3 32q31 3 50.5 8t30 16.5t14 33t3.5 59.5
v211q0 81 -36 116t-93 35q-38 0 -81 -13.5t-86 -38.5v-345q0 -24 3 -38.5t13 -22.5t29.5 -11t52.5 -5l-3 -37q-32 0 -71.5 1t-87.5 1q-39 0 -76 -1t-65 -1l-2 32q33 3 52.5 9t30.5 18.5t14.5 35t3.5 60.5v745q0 29 -3.5 45.5t-14 25.5t-31.5 14t-55 11l-3 29q28 5 59.5 12
t60.5 14.5t54.5 15t41.5 14.5z" />
    <glyph glyph-name="i" unicode="i" horiz-adv-x="375" 
d="M355 0q-32 0 -77 1t-93 1q-39 0 -76 -1t-65 -1l-2 32q33 3 52.5 8.5t30.5 18.5t14.5 35.5t3.5 60.5v263q0 28 -3 44t-12.5 25t-28 14t-48.5 10l-3 29q31 6 62.5 12.5t59 13.5t49 13t32.5 11l10 -8q-3 -25 -5 -53t-3 -55.5t-1.5 -52t-0.5 -42.5v-265q0 -24 3 -38.5
t13.5 -22.5t31.5 -11t58 -5zM122 830q0 33 20 53.5t53 20.5q35 0 55.5 -20.5t20.5 -53.5t-20.5 -53.5t-55.5 -20.5q-33 0 -53 20.5t-20 53.5z" />
    <glyph glyph-name="j" unicode="j" horiz-adv-x="349" 
d="M256 582q-3 -25 -5 -54t-3.5 -57.5t-2 -53.5t-0.5 -43v-256q0 -51 0.5 -94.5t0.5 -73.5v-41q0 -45 -8 -85.5t-20 -71.5q-23 -57 -79.5 -114t-132.5 -102l-24 36q60 42 92 88.5t46.5 99t16 112t1.5 128.5v418q0 28 -3 44t-12.5 25t-28 14t-48.5 10l-3 29q31 6 62.5 12.5
t59 13.5t49 13t32.5 11zM116 830q0 33 20 53.5t53 20.5q35 0 55.5 -20.5t20.5 -53.5t-20.5 -53.5t-55.5 -20.5q-33 0 -53 20.5t-20 53.5z" />
    <glyph glyph-name="k" unicode="k" horiz-adv-x="725" 
d="M260 293q-20 0 -20 -8v-171q0 -24 2.5 -38.5t12 -22.5t28.5 -11t53 -5l-2 -37q-32 0 -71 1t-87 1q-39 0 -79.5 -1t-68.5 -1l-2 32q35 3 56.5 8.5t33 18.5t15 35.5t3.5 60.5v747q0 29 -3 45.5t-13.5 25.5t-30.5 14t-54 11l-4 29q29 6 60.5 13t60.5 14t53.5 14t39.5 13
l11 -8q-4 -26 -7 -59.5t-4.5 -67.5t-2 -64t-0.5 -48v-495q0 -5 3 -6.5t15 -1.5q25 0 47.5 13t51.5 44l53 57q25 27 35.5 41t10.5 23q0 13 -17 19.5t-46 9.5l3 30h19q13 0 26.5 -0.5t25.5 -0.5h57q28 0 63 0.5t87 3.5l3 -34q-21 -3 -39.5 -5.5t-36 -7.5t-35.5 -14t-38 -25
q-45 -35 -78 -69t-52 -54q-12 -12 -12 -18q0 -7 7 -14l139 -164q36 -42 58.5 -67t41 -38t39.5 -17.5t54 -6.5l-2 -37q-27 0 -72 1t-96 1q-36 0 -68 -1t-61 -1l-4 32q25 3 42.5 6.5t17.5 17.5q0 8 -5 15t-16 20l-156 183q-9 10 -21 14.5t-24 4.5z" />
    <glyph glyph-name="l" unicode="l" horiz-adv-x="367" 
d="M254 1073q-4 -26 -7 -59.5t-4.5 -67.5t-2 -64t-0.5 -48v-720q0 -24 3 -38.5t14 -22.5t32 -11t58 -5l-2 -37q-32 0 -76.5 1t-92.5 1q-39 0 -77 -1t-66 -1l-3 32q34 3 54.5 8.5t31.5 18.5t14.5 35.5t3.5 60.5v747q0 29 -3 45.5t-14 25.5t-31.5 14t-55.5 11l-3 29
q30 6 62 13t61.5 14t53.5 14t39 13z" />
    <glyph glyph-name="m" unicode="m" horiz-adv-x="1148" 
d="M346 0q-32 0 -72 1t-88 1q-39 0 -77.5 -1t-66.5 -1l-3 32q34 3 54.5 9t32 18.5t15 35t3.5 60.5v259q0 28 -3 44t-12.5 25.5t-28 14.5t-48.5 10l-3 28q25 5 53.5 12t55.5 14.5t50.5 14.5t38.5 13l12 -8q-3 -21 -5 -41.5t-2 -41.5q52 43 110 67t111 24q50 0 89.5 -24.5
t59.5 -78.5q57 49 118 76t119 27q34 0 64.5 -11.5t52.5 -36.5t35 -63.5t13 -93.5v-271q0 -24 3 -38.5t12.5 -22.5t28.5 -11t51 -5l-2 -37q-32 0 -70.5 1t-85.5 1q-39 0 -74.5 -1t-63.5 -1l-3 32q31 3 50 8t29 16.5t13 33t3 59.5v211q0 80 -33.5 115.5t-85.5 35.5
q-37 0 -79 -17t-84 -46q2 -14 3.5 -28.5t1.5 -30.5v-275q0 -24 3 -38.5t12.5 -22.5t28.5 -11t51 -5l-2 -37q-32 0 -70.5 1t-85.5 1q-39 0 -74.5 -1t-63.5 -1l-11 32q31 3 51.5 8t31.5 16.5t15.5 33t4.5 59.5v211q0 80 -33.5 115.5t-85.5 35.5q-35 0 -76 -15.5t-82 -43.5
v-338q0 -24 2.5 -38.5t12.5 -22.5t29.5 -11t52.5 -5z" />
    <glyph glyph-name="n" unicode="n" horiz-adv-x="778" 
d="M346 0q-32 0 -72 1t-88 1q-39 0 -77.5 -1t-66.5 -1l-3 32q34 3 54.5 9t32 18.5t15 35t3.5 60.5v259q0 28 -3 44t-12.5 25.5t-28 14.5t-48.5 10l-3 28q25 5 53.5 12t55.5 14.5t50.5 14.5t38.5 13l12 -8q-3 -21 -5 -41.5t-2 -41.5q54 43 114.5 67t115.5 24q36 0 67.5 -11.5
t54.5 -36.5t36.5 -63.5t13.5 -93.5v-271q0 -24 3 -38.5t12.5 -22.5t28.5 -11t51 -5l-2 -37q-32 0 -70.5 1t-86.5 1q-39 0 -74.5 -1t-63.5 -1l-3 32q31 3 50 8t29 16.5t13 33t3 59.5v211q0 80 -35.5 115.5t-89.5 35.5q-38 0 -81 -15.5t-86 -43.5v-338q0 -24 2.5 -38.5
t12.5 -22.5t29.5 -11t52.5 -5z" />
    <glyph glyph-name="o" unicode="o" horiz-adv-x="711" 
d="M54 279q0 64 23.5 121t64 99t95.5 66.5t118 24.5q68 0 124 -23.5t95.5 -64t61 -95t21.5 -116.5q0 -65 -23.5 -121.5t-64 -98.5t-96 -66.5t-118.5 -24.5q-68 0 -123.5 23.5t-95 64t-61 95t-21.5 116.5zM368 29q44 0 75.5 21t52 54t30 74t9.5 82q0 48 -10.5 98t-33.5 90.5
t-59.5 66.5t-88.5 26q-45 0 -76.5 -20.5t-51.5 -53.5t-29.5 -74t-9.5 -82q0 -46 11 -96t34 -91t59.5 -68t87.5 -27z" />
    <glyph glyph-name="p" unicode="p" horiz-adv-x="742" 
d="M243 582q-2 -17 -4 -30t-2 -36v-4l1 2q46 40 94 58t95 18q52 0 99.5 -21t83.5 -58t57.5 -88.5t21.5 -111.5q0 -73 -27.5 -134t-75 -104.5t-110.5 -68t-135 -24.5q-7 0 -18.5 1t-25.5 3t-29.5 5.5t-30.5 8.5v-325q0 -24 3.5 -39t17 -23.5t41 -12.5t75.5 -6l-2 -37
q-16 0 -40 0.5t-52 0.5q-27 0 -55 0.5t-52 0.5q-39 0 -77 -1t-66 -1l-3 32q34 3 54.5 9t31.5 18.5t14.5 35t3.5 60.5v704q0 28 -3 44t-14 25.5t-31.5 14.5t-55.5 10l-3 28q30 6 61 13t59.5 14.5t51 14.5t35.5 12zM238 93q27 -31 65 -44t77 -13q48 0 83 19t58 51.5t34.5 74.5
t11.5 88q0 47 -13 90.5t-37.5 77t-61 53.5t-83.5 20q-83 0 -134 -43v-374z" />
    <glyph glyph-name="q" unicode="q" horiz-adv-x="721" 
d="M626 574q-3 -26 -5.5 -58t-4 -63.5t-2.5 -59.5t-1 -46v-677q0 -24 3 -38.5t13.5 -22.5t31.5 -11t57 -5l-3 -37q-32 0 -75.5 1t-91.5 1q-19 0 -42 -0.5t-46 -0.5t-43.5 -0.5t-34.5 -0.5l-3 32q45 3 70 9t38 18.5t16 35t3 60.5v338q-51 -36 -100.5 -52t-97.5 -16
q-58 0 -105.5 22t-81 59.5t-51.5 88.5t-18 109q0 73 27.5 133.5t75.5 104t112 68t136 24.5q26 0 69.5 -6.5t84.5 -19.5q14 3 31 8.5t28 9.5zM506 476q-29 31 -67.5 46.5t-80.5 15.5q-31 0 -63.5 -13t-59.5 -41.5t-44 -74t-17 -111.5q0 -59 17.5 -103.5t46 -75.5t63.5 -46.5
t71 -15.5t70.5 9.5t63.5 32.5v377z" />
    <glyph glyph-name="r" unicode="r" horiz-adv-x="512" 
d="M377 0q-16 0 -38.5 0.5t-48.5 0.5t-53 0.5t-51 0.5q-39 0 -75 -1t-64 -1l-3 32q33 3 52.5 8.5t30 18.5t14 35.5t3.5 60.5v259q0 28 -3 44t-12.5 25.5t-28.5 14.5t-51 10l-3 28q27 5 56 11.5t56 14t50.5 15t38.5 13.5l12 -8q-5 -31 -6 -61.5t-1 -60.5q32 39 56.5 64.5
t45 40t37.5 20t35 5.5q13 0 27 -3t26 -10t19.5 -17.5t7.5 -25.5q0 -20 -25 -44t-55 -44q-18 16 -34 24.5t-39 8.5t-50 -20t-44 -58q-5 -11 -6 -19.5t-1 -22.5v-245q0 -24 3.5 -38.5t16.5 -22.5t38 -11t69 -5z" />
    <glyph glyph-name="s" unicode="s" horiz-adv-x="522" 
d="M417 400q-3 31 -15.5 57.5t-33 45.5t-47.5 29.5t-58 10.5q-19 0 -36.5 -6t-31 -17t-21.5 -27.5t-8 -37.5q0 -25 12.5 -43.5t33 -33t47 -25.5t54.5 -22q31 -13 61.5 -27.5t54.5 -34t38.5 -46.5t14.5 -64q0 -47 -20 -80.5t-52 -55.5t-72.5 -32.5t-81.5 -10.5q-26 0 -52.5 4
t-49.5 9q-21 5 -40.5 9.5t-42.5 6.5q-1 17 -3.5 43t-5.5 53t-6.5 51.5t-7.5 38.5l34 9q14 -34 31 -66t40.5 -56.5t53.5 -39.5t71 -15q39 0 69 21.5t30 65.5q0 25 -11.5 44.5t-31 34.5t-44 26.5t-51.5 22.5q-31 13 -61.5 27.5t-54.5 34t-39 46.5t-15 65q0 46 19.5 79t50 54.5
t69.5 31.5t78 10q40 0 79.5 -8t89.5 -10q-3 -32 -4 -60.5t-1 -61.5v-49z" />
    <glyph glyph-name="t" unicode="t" horiz-adv-x="434" 
d="M231 780q-2 -24 -3.5 -55.5t-2.5 -63t-1.5 -59t-0.5 -44.5l171 3l8 -7l-3 -51h-176v-322q0 -39 7.5 -64t21 -40t31.5 -20.5t39 -5.5q22 0 46 5t47 10l7 -36q-39 -19 -84 -32.5t-87 -13.5q-29 0 -53.5 7.5t-43.5 25.5t-29.5 47.5t-10.5 72.5v27q0 18 0.5 58t0.5 107v174
h-90l-7 7l4 39l93 7v83q0 25 -0.5 51t-0.5 50q15 6 31 12.5t31 12.5t26.5 11.5t17.5 9.5z" />
    <glyph glyph-name="u" unicode="u" horiz-adv-x="755" 
d="M509 -6q2 18 3 42.5t1 42.5q-52 -47 -111.5 -73t-114.5 -26q-37 0 -68 12t-54 37.5t-36 65.5t-13 96v239q0 28 -3 44t-12.5 25.5t-27 14t-46.5 9.5l-2 29q32 4 63.5 9t59 10t48 10t31.5 9l10 -8q-3 -25 -4.5 -53.5t-3 -55.5t-2 -51.5t-0.5 -42.5v-150q0 -47 9.5 -79.5
t25.5 -52.5t38 -28.5t47 -8.5q41 0 84.5 17.5t81.5 46.5v306q0 28 -3 44t-13 25.5t-29.5 14t-52.5 9.5l-2 29q34 4 67.5 9t61.5 10.5t49 10t30 8.5l11 -8q-3 -25 -5 -53.5t-3.5 -55.5t-2 -51.5t-0.5 -42.5v-233q0 -29 3 -45t13.5 -25t30.5 -13.5t55 -9.5l4 -29
q-30 -3 -61.5 -7.5t-60 -9.5t-51.5 -11t-35 -10z" />
    <glyph glyph-name="v" unicode="v" horiz-adv-x="644" 
d="M295 -19q-43 121 -89.5 233t-94.5 224q-13 30 -23.5 48t-24 28t-32 14t-47.5 6l2 37q33 0 74 -1t86 -1q39 0 71.5 1t61.5 1l2 -33q-40 -5 -56 -12t-16 -24q0 -8 3.5 -19.5t8.5 -25.5l128 -319l135 321q5 13 8.5 23.5t3.5 18.5q0 16 -17.5 25t-62.5 11l2 34q31 0 61 -1
t76 -1q35 0 61.5 1t51.5 1l2 -32q-30 -4 -48 -9t-31.5 -15.5t-24.5 -28.5t-26 -48q-18 -35 -40.5 -83t-48 -106t-53.5 -125t-57 -139z" />
    <glyph glyph-name="w" unicode="w" horiz-adv-x="975" 
d="M735 571q31 0 64.5 -1t79.5 -1q35 0 61.5 1t51.5 1l2 -32q-30 -4 -48 -8t-30 -13t-21.5 -26t-21.5 -47q-16 -39 -36 -90.5t-42.5 -111.5t-46.5 -125.5t-49 -132.5l-40 -4q-42 111 -84 215.5t-87 218.5q-43 -106 -85.5 -209t-85.5 -221l-40 -4q-39 118 -78 235t-82 229
q-11 28 -19 45t-19 26t-28 12.5t-47 5.5l2 37q33 0 69 -1t81 -1q39 0 76.5 1t66.5 1l2 -33q-46 -4 -64 -11.5t-18 -27.5q0 -22 7 -35q24 -75 50 -154.5t54 -155.5q38 91 80 192t87 210l44 5q39 -100 79 -202t88 -205q13 34 27.5 72.5t28.5 78.5t27.5 79.5t24.5 74.5
q8 32 8 37q0 21 -20 28.5t-71 12.5z" />
    <glyph glyph-name="x" unicode="x" horiz-adv-x="673" 
d="M311 538q-28 -2 -40 -7.5t-12 -16.5q0 -12 13 -31l86 -126l80 117q16 22 16 36q0 22 -56 27l2 34q32 0 65.5 -1t65.5 -1t60 1t60 1l2 -32q-33 -4 -56 -9.5t-42.5 -16.5t-37.5 -29.5t-41 -48.5l-91 -118l129 -188q20 -29 34.5 -46t30.5 -27t36.5 -13.5t52.5 -5.5l-2 -37
q-32 0 -74.5 1t-80.5 1t-74 -1t-65 -1l-2 32q56 4 56 28q0 5 -3.5 14.5t-11.5 22.5l-96 140l-90 -132q-18 -26 -18 -41q0 -14 15 -21t50 -9l-2 -34q-32 0 -69 1t-69 1t-60 -1t-60 -1l-2 32q29 3 50 8t38.5 15.5t34.5 27.5t38 44l116 151l-121 177q-17 25 -29 40t-26 23
t-33 11t-50 5l2 37q32 0 71 -1t76 -1q32 0 67 1t65 1z" />
    <glyph glyph-name="y" unicode="y" horiz-adv-x="661" 
d="M687 539q-30 -4 -48 -9t-31.5 -15.5t-24.5 -28.5t-26 -48q-23 -46 -50 -106.5t-55.5 -128.5t-57.5 -140.5t-56 -142.5q-20 -49 -41.5 -100.5t-44.5 -97.5t-47 -82.5t-48 -55.5q-50 -42 -101 -42q-26 0 -45.5 16t-19.5 44q0 22 12.5 38.5t32.5 27.5q11 -2 20 -3.5t17 -1.5
q23 0 43.5 6.5t36.5 22.5q36 38 70.5 107t69.5 160l2 8l-3 14q-20 54 -43 114t-46.5 120t-47 117t-44.5 106q-13 30 -23.5 48t-24 28t-32 14t-47.5 6l2 37q33 0 74 -1t86 -1q39 0 71.5 1t61.5 1l2 -33q-40 -5 -56 -12t-16 -24q0 -8 3.5 -19.5t8.5 -25.5l133 -346l146 348
q11 35 11 40q0 19 -17 27.5t-62 10.5l2 34q31 0 61 -1t76 -1q35 0 62 1t52 1z" />
    <glyph glyph-name="z" unicode="z" horiz-adv-x="605" 
d="M42 16q34 46 77 104.5t84.5 115.5t76.5 105.5t52 73.5l75 109h-115q-48 0 -78 -4.5t-48.5 -19t-29.5 -41t-21 -69.5l-33 1q0 54 -1 95t-5 84h127q51 0 85.5 -0.5t56.5 -0.5h43q16 0 37.5 0.5t43.5 0.5t42.5 0.5t34.5 0.5l12 -16q-34 -46 -77 -105.5t-84 -116.5
t-75 -104.5t-49 -69.5l-78 -113h163q40 0 67.5 7t48.5 23.5t38.5 43t38.5 66.5l34 -9q-12 -44 -21.5 -93t-11.5 -84h-140q-54 0 -90.5 0.5t-61.5 0.5h-93q-22 0 -44 -0.5t-41 -0.5h-31z" />
    <glyph glyph-name="braceleft" unicode="{" horiz-adv-x="499" 
d="M31 406q49 3 77 16.5t42.5 32.5t18.5 41t4 42q0 37 -3 76.5t-7 79.5t-7 78.5t-3 73.5q0 66 21.5 105t55.5 59t74 26t78 6l2 -37q-46 -3 -73.5 -16.5t-42 -33.5t-19 -44t-4.5 -49q0 -34 3.5 -68.5t8 -69.5t8 -70.5t3.5 -70.5q0 -32 -5.5 -61t-20.5 -54.5t-41 -46
t-66 -33.5v-3q40 -13 66 -33t41 -45.5t20.5 -55t5.5 -60.5q0 -35 -3.5 -70.5t-8 -70.5t-8 -70t-3.5 -69q0 -24 4.5 -48t19 -44t42 -33.5t73.5 -16.5l-2 -37q-38 0 -78 6t-74 26t-55.5 59t-21.5 105q0 35 3 73.5t7 78.5t7 79.5t3 76.5q0 20 -4 42t-19 41t-44 32.5t-79 16.5z
" />
    <glyph glyph-name="bar" unicode="|" horiz-adv-x="385" 
d="M225 -463l-65 -4v1567l65 7v-1570z" />
    <glyph glyph-name="braceright" unicode="}" horiz-adv-x="499" 
d="M468 368q-49 -3 -77 -16.5t-42.5 -32.5t-18.5 -41t-4 -42q0 -37 3 -76.5t7 -79.5t7 -78.5t3 -73.5q0 -66 -21.5 -105t-55.5 -59t-74.5 -26t-77.5 -6l-2 37q46 3 73.5 16.5t42 33.5t19 44t4.5 49q0 34 -3.5 68.5t-8 69.5t-8 70.5t-3.5 70.5q0 31 5.5 60.5t20.5 55t40.5 46
t66.5 33.5v3q-41 13 -66.5 33t-40.5 45.5t-20.5 54.5t-5.5 61q0 35 3.5 70.5t8 70.5t8 69.5t3.5 69.5q0 24 -4.5 48t-19 44t-42 33.5t-73.5 16.5l2 37q37 0 77.5 -6t74.5 -26t55.5 -59t21.5 -105q0 -35 -3 -73.5t-7 -78.5t-7 -79.5t-3 -76.5q0 -20 4 -42t19 -41t44 -32.5
t79 -16.5z" />
    <glyph glyph-name="asciitilde" unicode="~" horiz-adv-x="680" 
d="M46 239q16 63 59.5 100t103.5 37q42 0 77.5 -15.5t68.5 -34.5q31 -17 61.5 -31t62.5 -14q42 0 63 26t36 68l56 -23q-16 -63 -59.5 -100t-103.5 -37q-42 0 -77.5 15.5t-68.5 34.5q-31 17 -61.5 31t-62.5 14q-42 0 -63 -26t-36 -68z" />
    <glyph glyph-name="uni00A0" unicode="&#xa0;" horiz-adv-x="500" 
 />
    <glyph glyph-name="exclamdown" unicode="&#xa1;" horiz-adv-x="388" 
d="M107 -372l-7 7q12 72 22.5 161.5t19 181.5t15.5 180t12 159l44 5q3 -66 8 -156.5t11 -185.5t12.5 -184t12.5 -152zM268 510q0 -33 -22.5 -56.5t-54.5 -23.5t-54.5 23.5t-22.5 56.5t22.5 56.5t54.5 23.5t54.5 -23.5t22.5 -56.5z" />
    <glyph glyph-name="cent" unicode="&#xa2;" horiz-adv-x="680" 
d="M398 680v-92q1 1 10 1h18q35 0 69.5 -5.5t67.5 -22.5q14 -7 19.5 -18.5t5.5 -22.5q0 -18 -12.5 -35.5t-44.5 -33.5h-5q-32 29 -62.5 46t-65.5 22v-454q55 0 103.5 18.5t78.5 63.5l29 -26q-31 -57 -88 -92t-123 -45v-89l-58 -6v93q-61 3 -111 27t-86 62.5t-56 88.5
t-20 105q0 58 21 110t57.5 93t86.5 70.5t108 42.5v94zM340 520q-41 -4 -71.5 -22.5t-51 -46t-31 -63t-10.5 -72.5q0 -42 11 -81t32 -71.5t51.5 -56t69.5 -34.5v447z" />
    <glyph glyph-name="sterling" unicode="&#xa3;" horiz-adv-x="680" 
d="M513 761q-19 25 -51.5 37.5t-62.5 12.5q-35 0 -60.5 -16.5t-41.5 -43.5t-23.5 -60.5t-7.5 -67.5q0 -38 8 -84.5t10 -100.5l219 8l8 -7l-9 -56h-218q-4 -58 -30.5 -116.5t-86.5 -118.5l2 -4q9 4 38 4q31 0 60.5 -11t59.5 -24t60 -24t61 -11q28 0 50 12t38.5 31.5t29 43.5
t22.5 48l38 -9q-7 -23 -14 -50.5t-13 -53.5t-9.5 -48.5t-3.5 -35.5q-35 -15 -73 -25.5t-77 -10.5q-56 0 -94 13t-68.5 28.5t-58 28.5t-62.5 13q-37 0 -64 -18.5t-53 -47.5l-31 34q58 49 90 92.5t48 80.5t19.5 67t3.5 53q0 14 -1 28.5t-2 30.5h-117l-7 7l9 40l110 3
q-5 34 -8 66t-3 62q0 36 12 75t34 76t52.5 71t68.5 59t82 40t92 15q10 0 24 -2.5t26.5 -9.5t21 -18.5t8.5 -29.5q0 -34 -15 -49.5t-38 -26.5h-2z" />
    <glyph glyph-name="currency" unicode="&#xa4;" horiz-adv-x="680" 
d="M114 742l86 -100q29 22 64.5 33.5t75.5 11.5q38 0 73 -11.5t64 -31.5l82 85l65 -43l-99 -86q26 -31 40.5 -69.5t14.5 -83.5t-14.5 -83t-40.5 -69l82 -78l-43 -65l-86 99q-29 -21 -64.5 -32.5t-73.5 -11.5q-40 0 -75 12t-63 33l-82 -85l-65 43l99 86q-54 63 -54 151
t54 151l-83 79zM176 448q0 -37 12 -69t33.5 -56t51.5 -38t67 -14t67 14t51.5 38t33.5 56t12 69t-12 69.5t-33.5 56.5t-51.5 38t-67 14t-67 -14t-51.5 -38t-33.5 -56.5t-12 -69.5z" />
    <glyph glyph-name="yen" unicode="&#xa5;" horiz-adv-x="680" 
d="M70 414h194q-21 45 -37.5 76.5t-33.5 60t-36 59t-45 73.5q-23 39 -39.5 63t-34 38.5t-39.5 20.5t-55 9l2 36q34 0 81 -1t98 -1q42 0 78 1t71 1l3 -34q-42 -4 -61 -13t-19 -27q0 -12 7 -29t19 -38l133 -235l127 221q19 32 25.5 49t6.5 31q0 32 -89 39l3 36q18 0 34 -0.5
t32 -0.5q17 0 35 -0.5t41 -0.5q37 0 71.5 1t71.5 1l3 -34q-36 -3 -59 -10t-42.5 -23.5t-39 -45.5t-47.5 -75q-24 -40 -43 -72t-34.5 -60.5t-29.5 -56.5t-28 -59h197l-4 -52h-201v-90h194l-4 -52h-190v-95q0 -24 4 -40t18 -26.5t42.5 -15.5t77.5 -7l-2 -36q-21 0 -46.5 0.5
t-53.5 0.5q-27 0 -55 0.5t-52 0.5q-20 0 -43 -0.5t-47 -0.5t-47.5 -0.5t-42.5 -0.5l-3 34q46 3 74 9t42 20t18.5 37.5t4.5 61.5v58h-190l-4 52h194v90h-201z" />
    <glyph glyph-name="brokenbar" unicode="&#xa6;" horiz-adv-x="449" 
d="M180 210h89v-530h-89v530zM180 960h89v-530h-89v530z" />
    <glyph glyph-name="section" unicode="&#xa7;" horiz-adv-x="792" 
d="M514 842q-20 19 -52 33.5t-62 14.5q-24 0 -45.5 -7.5t-38 -21t-26 -34t-9.5 -45.5q0 -43 34 -77q35 -35 75 -74.5t79.5 -80t76 -82t65.5 -81.5q32 -46 51.5 -90.5t19.5 -84.5q0 -33 -7 -62t-20.5 -57t-34.5 -56t-49 -58q11 -25 11 -49q0 -44 -25 -89.5t-63.5 -82
t-85.5 -60t-91 -23.5q-17 0 -37 4.5t-37 14t-28.5 24.5t-11.5 37q0 25 19 38t43 17h3q22 -20 51.5 -32.5t59.5 -12.5q25 0 46.5 9.5t37 26.5t24.5 39.5t9 48.5q0 11 -2 18.5t-7 17.5q-5 9 -11 17.5t-14 16.5q-35 35 -74 73t-78 77.5t-75 80t-64 80.5q-32 46 -51.5 89.5
t-19.5 83.5q0 33 6.5 62t19.5 56.5t33.5 55.5t48.5 60q-13 29 -13 57q0 40 25.5 83.5t64.5 79.5t86 59.5t89 23.5q22 0 44.5 -5.5t40.5 -15t29 -23.5t11 -32q0 -24 -18 -40t-50 -22h-3zM184 516q0 -40 19 -81.5t48 -83.5q23 -33 50.5 -65t56 -62t56.5 -57.5t52 -51.5
q22 -22 43.5 -45.5t38.5 -48.5q17 17 33.5 45.5t16.5 72.5q0 40 -19 82.5t-48 84.5q-23 33 -51 66t-57.5 64.5t-58.5 60t-53 52.5q-21 21 -41.5 42.5t-36.5 44.5q-17 -16 -33 -45.5t-16 -74.5z" />
    <glyph glyph-name="dieresis" unicode="&#xa8;" horiz-adv-x="700" 
d="M477 718q-27 0 -46 19.5t-19 46.5q0 28 19 47t46 19q28 0 47 -19t19 -47q0 -27 -19.5 -46.5t-46.5 -19.5zM222 718q-27 0 -46 19.5t-19 46.5t19 46.5t46 19.5q28 0 47 -19t19 -47q0 -27 -19.5 -46.5t-46.5 -19.5z" />
    <glyph glyph-name="copyright" unicode="&#xa9;" horiz-adv-x="1170" 
d="M100 481q0 99 38.5 185.5t104.5 150.5t154.5 101t188.5 37q99 0 187 -37t154 -101t104.5 -150.5t38.5 -185.5q0 -100 -38.5 -186.5t-104.5 -151t-154 -101.5t-187 -37q-100 0 -188.5 37t-154.5 101.5t-104.5 151t-38.5 186.5zM164 480q0 -89 33.5 -166.5t90.5 -135
t133.5 -90.5t163.5 -33t163.5 33t133.5 90.5t90.5 135t33.5 166.5t-33.5 166.5t-90.5 135t-133.5 90.5t-163.5 33t-163.5 -33t-133.5 -90.5t-90.5 -135t-33.5 -166.5zM735 589q-4 60 -37 88t-81 28q-47 0 -82.5 -15.5t-59.5 -44t-36.5 -68t-12.5 -86.5t11.5 -88.5t35 -73
t58.5 -49.5t82 -18q26 0 50.5 7.5t42.5 25.5q17 16 29.5 41t24.5 56l31 -8q-9 -38 -14.5 -70t-8.5 -69q-45 -12 -86 -19.5t-86 -7.5q-62 0 -114.5 18t-91 52t-60.5 82t-22 107q0 67 26 117.5t70 84.5t102.5 50.5t123.5 16.5q34 0 72.5 -5t71.5 -14q-3 -35 -4 -67.5t-1 -67.5
z" />
    <glyph glyph-name="ordfeminine" unicode="&#xaa;" horiz-adv-x="534" 
d="M519 427q-18 -17 -42.5 -28t-50.5 -11q-29 0 -51.5 12.5t-35.5 48.5q-8 -5 -25.5 -15.5t-39 -21t-46.5 -18.5t-48 -8q-27 0 -49 9.5t-37.5 25t-24.5 36t-9 43.5q0 40 23.5 68.5t61.5 42.5q29 11 76.5 21t110.5 17q1 1 1 12v50q0 36 -18 59.5t-56 23.5q-42 0 -59.5 -26
t-18.5 -61q-13 -10 -43 -10q-22 0 -42.5 8t-20.5 25t22 38t55 39t70.5 30.5t69.5 12.5q26 0 50.5 -6.5t43 -20.5t29.5 -35.5t11 -51.5v-236q0 -31 9 -46t31 -15q15 0 38 14zM330 494q0 29 1 57t1 56q-19 -2 -39 -5t-38.5 -8t-34.5 -12t-27 -17q-18 -18 -18 -40
q0 -29 15.5 -49t46.5 -20q23 0 48 10.5t45 27.5z" />
    <glyph glyph-name="guillemotleft" unicode="&#xab;" horiz-adv-x="657" 
d="M320 292q45 42 96.5 99.5t108.5 127.5l32 -20l-131 -214l131 -214l-32 -20q-57 70 -108.5 127.5t-96.5 99.5v14zM100 292q45 42 96.5 99.5t108.5 127.5l32 -20l-131 -214l131 -214l-32 -20q-57 70 -108.5 127.5t-96.5 99.5v14z" />
    <glyph glyph-name="logicalnot" unicode="&#xac;" horiz-adv-x="680" 
d="M544 5v257h-483l5 66h544v-318z" />
    <glyph glyph-name="registered" unicode="&#xae;" horiz-adv-x="1170" 
d="M100 481q0 99 38.5 185.5t104.5 150.5t154.5 101t188.5 37q99 0 187 -37t154 -101t104.5 -150.5t38.5 -185.5q0 -100 -38.5 -186.5t-104.5 -151t-154 -101.5t-187 -37q-100 0 -188.5 37t-154.5 101.5t-104.5 151t-38.5 186.5zM164 480q0 -89 33.5 -166.5t90.5 -135
t133.5 -90.5t163.5 -33t163.5 33t133.5 90.5t90.5 135t33.5 166.5t-33.5 166.5t-90.5 135t-133.5 90.5t-163.5 33t-163.5 -33t-133.5 -90.5t-90.5 -135t-33.5 -166.5zM521 304q0 -13 2 -21.5t9 -14t21 -8.5t38 -4l-2 -28q-24 0 -52.5 0.5t-70.5 0.5q-29 0 -59 -0.5t-45 -0.5
l-2 28q21 1 34 4.5t20 10.5t9.5 19t2.5 31l3 340q0 25 -13 34.5t-58 11.5l2 29q17 0 47.5 -0.5t59.5 -0.5q27 0 55 2t58 2q31 0 66 -4.5t64 -17t48.5 -36t19.5 -61.5q0 -51 -31 -87t-76 -53q16 -30 31.5 -58.5t28.5 -52.5t23.5 -42t17.5 -28q9 -13 17 -21t18.5 -12.5
t24 -6.5t33.5 -3l-2 -28q-21 0 -54.5 0.5t-65.5 0.5h-33q-9 0 -10 -1q-5 10 -14 30.5t-22.5 47.5t-30.5 59.5t-37 66.5q-8 13 -15.5 18.5t-24.5 5.5h-35v-152zM521 493h34q52 0 85 30.5t33 87.5q0 45 -30.5 66.5t-75.5 21.5q-26 0 -36 -11t-10 -36v-159z" />
    <glyph glyph-name="macron" unicode="&#xaf;" horiz-adv-x="700" 
d="M543 731h-386l-4 61h394z" />
    <glyph glyph-name="degree" unicode="&#xb0;" horiz-adv-x="529" 
d="M60 775q0 42 16 79.5t44 65t65 44t79 16.5t79.5 -16.5t65.5 -44t44 -65t16 -79.5t-16 -79.5t-44 -65t-65.5 -43.5t-79.5 -16t-79 16t-65 43.5t-44 65t-16 79.5zM120 775q0 -31 11 -58t30.5 -47.5t46 -32t56.5 -11.5t56.5 11.5t46 32t31 47.5t11.5 58t-11.5 58.5t-31 47.5
t-46 32t-56.5 12t-56.5 -12t-46 -32t-30.5 -47.5t-11 -58.5z" />
    <glyph glyph-name="plusminus" unicode="&#xb1;" horiz-adv-x="680" 
d="M373 322v-192l-66 -5v197h-246l5 66h241v192l66 5v-197h247l-5 -66h-242zM60 10l5 66h555l-5 -66h-555z" />
    <glyph glyph-name="twosuperior" unicode="&#xb2;" horiz-adv-x="525" 
d="M75 789q0 40 -1 72.5t-4 63.5q36 26 82 40.5t94 14.5q36 0 73.5 -10.5t68.5 -31t50.5 -51.5t19.5 -71q0 -41 -14.5 -74t-37.5 -61.5t-52 -54.5t-58 -53l-133 -120l213 4q13 0 23 2.5t19.5 10t19 22t21.5 38.5l31 -9q-5 -17 -10 -36.5t-9.5 -39.5t-7.5 -38.5t-4 -31.5
q-69 0 -112 0.5t-72 0.5q-28 0 -47 0.5t-38 0.5q-14 0 -36 -0.5t-44 -0.5t-41 -0.5t-28 -0.5l-7 21l165 156q42 40 77 77t55 76q9 18 14.5 40.5t5.5 44.5q0 53 -35.5 85t-87.5 32q-51 0 -82.5 -33t-34.5 -87z" />
    <glyph glyph-name="threesuperior" unicode="&#xb3;" horiz-adv-x="525" 
d="M72 808q0 38 -0.5 67t-2.5 58q45 22 88.5 34.5t95.5 12.5q28 0 61.5 -6.5t62.5 -21.5t48 -38.5t19 -56.5q0 -45 -26.5 -78t-66.5 -59v-3q60 -17 94 -60.5t34 -100.5q0 -54 -23 -93.5t-60.5 -65.5t-85.5 -38.5t-97 -12.5q-22 0 -52 4.5t-57 16t-46 30t-19 45.5
q0 20 19 35.5t46 19.5h3q17 -45 53.5 -71.5t81.5 -26.5q27 0 50 10t39 28t25 42.5t9 52.5q0 66 -38 97t-104 31q-16 0 -32 -2t-33 -6l-7 41q30 5 63.5 12t61 21t46 37t18.5 59q0 22 -9 39.5t-24.5 29.5t-35 18t-40.5 6q-50 0 -85.5 -29t-37.5 -80z" />
    <glyph glyph-name="acute" unicode="&#xb4;" horiz-adv-x="700" 
d="M405 901l105 -9l5 -11l-155 -245l-35 6l-3 6z" />
    <glyph glyph-name="mu" unicode="&#xb5;" horiz-adv-x="755" 
d="M509 -6q2 18 3 42.5t1 42.5q-52 -47 -111.5 -73t-114.5 -26q-34 0 -64 11v-297q0 -24 3 -39t16.5 -23.5t41 -12.5t76.5 -6l-3 -37q-16 0 -40 0.5t-52 0.5q-27 0 -55 0.5t-52 0.5q-38 0 -76 -1t-67 -1l-2 32q34 3 54 9t31 18.5t14.5 35t3.5 60.5v699q0 28 -3 44
t-12.5 25.5t-27 14t-46.5 9.5l-2 29q32 4 63.5 9t59 10t48 10t31.5 9l10 -8q-3 -25 -4.5 -53.5t-3 -55.5t-2 -51.5t-0.5 -42.5v-150q0 -47 9.5 -79.5t25.5 -52.5t38 -28.5t47 -8.5q41 0 84.5 17.5t81.5 46.5v306q0 28 -3 44t-13 25.5t-29.5 14t-52.5 9.5l-2 29q34 4 67.5 9
t61.5 10.5t49 10t30 8.5l11 -8q-3 -25 -5 -53.5t-3.5 -55.5t-2 -51.5t-0.5 -42.5v-233q0 -29 3 -45t13.5 -25t30.5 -13.5t55 -9.5l4 -29q-30 -3 -61.5 -7.5t-60 -9.5t-51.5 -11t-35 -10z" />
    <glyph glyph-name="paragraph" unicode="&#xb6;" horiz-adv-x="879" 
d="M426 200q-77 15 -140.5 48.5t-109 82.5t-71 111.5t-25.5 134.5q0 82 29 153.5t91.5 124t161 83t238.5 30.5q37 0 75.5 -1.5t80.5 -6.5l3 -34q-32 -2 -52.5 -6.5t-33 -10.5t-18.5 -12.5t-9 -11.5q-26 -54 -44.5 -122.5t-30 -140.5t-17 -141.5t-5.5 -124.5q0 -65 5.5 -139
t21 -151t43.5 -155t73 -150v-3q-8 -28 -30 -47t-50 -19q-30 0 -44 20.5t-21 46.5q-13 47 -23.5 109t-17.5 130.5t-11 139.5t-4 136q0 85 5 167.5t18 163t35 158t56 153.5h-59q-58 -130 -89 -283.5t-31 -341.5q0 -22 -0.5 -45t0.5 -46z" />
    <glyph glyph-name="periodcentered" unicode="&#xb7;" horiz-adv-x="342" 
d="M90 327q0 17 6.5 32.5t17.5 27t25.5 18t31.5 6.5q16 0 31 -6.5t26 -18t17.5 -27t6.5 -32.5t-6.5 -32.5t-17.5 -27t-26 -18t-31 -6.5q-17 0 -31.5 6.5t-25.5 18t-17.5 27t-6.5 32.5z" />
    <glyph glyph-name="cedilla" unicode="&#xb8;" horiz-adv-x="700" 
d="M389 2v-4q-29 -15 -40.5 -29t-11.5 -28t12 -25t27 -27q16 -17 30 -37t14 -37q0 -18 -13 -44t-35 -50t-51 -40.5t-60 -16.5q-11 0 -23 3.5t-22.5 10.5t-17.5 17.5t-7 24.5q0 17 16 33t33 21q16 -22 33 -34t39 -12q30 0 30 31q0 18 -12 33.5t-28 31.5q-17 17 -31 33.5
t-14 33.5q0 18 19.5 45.5t73.5 65.5h39z" />
    <glyph glyph-name="onesuperior" unicode="&#xb9;" horiz-adv-x="525" 
d="M83 900q64 16 124 35t120 40l7 -6q-2 -18 -3.5 -38.5t-2 -40.5t-1 -38t-0.5 -30v-345q0 -17 2.5 -29.5t13.5 -20.5t33.5 -12.5t63.5 -5.5l-1 -34q-11 0 -25 0.5t-34 0.5q-19 0 -44.5 0.5t-59.5 0.5q-67 0 -109 -1t-62 -1l-2 33q44 1 69.5 5.5t38 15.5t15.5 31t3 52v369
l-138 -20z" />
    <glyph glyph-name="ordmasculine" unicode="&#xba;" horiz-adv-x="596" 
d="M60 614q0 49 18.5 92t50.5 75t75 50.5t93 18.5q54 0 98.5 -18t75.5 -49t48 -72.5t17 -88.5q0 -49 -18.5 -92t-51 -75t-76 -50.5t-93.5 -18.5q-54 0 -97.5 18t-74.5 48.5t-48 72t-17 89.5zM307 430q31 0 54 15.5t37.5 39.5t21.5 54.5t7 60.5q0 35 -7.5 71.5t-24 66.5
t-42.5 49t-63 19q-32 0 -55 -15t-37.5 -39t-21 -54.5t-6.5 -60.5q0 -34 8 -70.5t24.5 -67t42.5 -50t62 -19.5z" />
    <glyph glyph-name="guillemotright" unicode="&#xbb;" horiz-adv-x="657" 
d="M557 278q-45 -42 -96.5 -99.5t-108.5 -127.5l-32 20l131 214l-131 214l32 20q57 -70 108.5 -127.5t96.5 -99.5v-14zM337 278q-45 -42 -96.5 -99.5t-108.5 -127.5l-32 20l131 214l-131 214l32 20q57 -70 108.5 -127.5t96.5 -99.5v-14z" />
    <glyph glyph-name="onequarter" unicode="&#xbc;" horiz-adv-x="1250" 
d="M83 900q64 16 124 35t120 40l7 -6q-2 -18 -3.5 -38.5t-2 -40.5t-1 -38t-0.5 -30v-345q0 -17 2.5 -29.5t13.5 -20.5t33.5 -12.5t63.5 -5.5l-1 -34q-11 0 -25 0.5t-34 0.5q-19 0 -44.5 0.5t-59.5 0.5q-67 0 -109 -1t-62 -1l-2 33q44 1 69.5 5.5t38 15.5t15.5 31t3 52v369
l-138 -20zM975 979l-652 -1033l-48 33l648 1032zM930 109l-273 -1l-14 34q42 52 88.5 112t93 120.5t90 118t79.5 104.5l42 -9q-4 -31 -6 -62t-2 -68v-281l81 1l9 -9l-4 -61h-86v-122q-25 -1 -48 -2.5t-52 -3.5q1 19 1.5 33t0.5 22v74zM930 432l-4 1q-51 -63 -97.5 -126
t-97.5 -135l199 4v256z" />
    <glyph glyph-name="onehalf" unicode="&#xbd;" horiz-adv-x="1250" 
d="M83 900q64 16 124 35t120 40l7 -6q-2 -18 -3.5 -38.5t-2 -40.5t-1 -38t-0.5 -30v-345q0 -17 2.5 -29.5t13.5 -20.5t33.5 -12.5t63.5 -5.5l-1 -34q-11 0 -25 0.5t-34 0.5q-19 0 -44.5 0.5t-59.5 0.5q-67 0 -109 -1t-62 -1l-2 33q44 1 69.5 5.5t38 15.5t15.5 31t3 52v369
l-138 -20zM975 979l-652 -1033l-48 33l648 1032zM800 415q0 40 -1 72.5t-4 63.5q36 26 82 40.5t94 14.5q36 0 73.5 -10.5t68.5 -31t50.5 -51.5t19.5 -71q0 -41 -14.5 -74t-37.5 -61.5t-52 -54.5t-58 -53l-133 -120l213 4q13 0 23 2.5t19.5 10t19 22t21.5 38.5l31 -9
q-5 -17 -10 -36.5t-9.5 -39.5t-7.5 -38.5t-4 -31.5q-69 0 -112 0.5t-72 0.5q-28 0 -47 0.5t-38 0.5q-14 0 -36 -0.5t-44 -0.5t-41.5 -0.5t-28.5 -0.5l-6 21l165 156q42 40 77 77t55 76q9 18 14.5 40.5t5.5 44.5q0 53 -35.5 85t-87.5 32q-51 0 -82.5 -33t-34.5 -87z" />
    <glyph glyph-name="threequarters" unicode="&#xbe;" horiz-adv-x="1250" 
d="M72 808q0 38 -0.5 67t-2.5 58q45 22 88.5 34.5t95.5 12.5q28 0 61.5 -6.5t62.5 -21.5t48 -38.5t19 -56.5q0 -45 -26.5 -78t-66.5 -59v-3q60 -17 94 -60.5t34 -100.5q0 -54 -23 -93.5t-60.5 -65.5t-85.5 -38.5t-97 -12.5q-22 0 -52 4.5t-57 16t-46 30t-19 45.5
q0 20 19 35.5t46 19.5h3q17 -45 53.5 -71.5t81.5 -26.5q27 0 50 10t39 28t25 42.5t9 52.5q0 66 -38 97t-104 31q-16 0 -32 -2t-33 -6l-7 41q30 5 63.5 12t61 21t46 37t18.5 59q0 22 -9 39.5t-24.5 29.5t-35 18t-40.5 6q-50 0 -85.5 -29t-37.5 -80zM975 979l-652 -1033
l-48 33l648 1032zM930 109l-273 -1l-14 34q42 52 88.5 112t93 120.5t90 118t79.5 104.5l42 -9q-4 -31 -6 -62t-2 -68v-281l81 1l9 -9l-4 -61h-86v-122q-25 -1 -48 -2.5t-52 -3.5q1 19 1.5 33t0.5 22v74zM930 432l-4 1q-51 -63 -97.5 -126t-97.5 -135l199 4v256z" />
    <glyph glyph-name="questiondown" unicode="&#xbf;" horiz-adv-x="524" 
d="M239 324q73 -57 108 -99.5t35 -89.5q0 -29 -13.5 -53.5t-33.5 -46t-44 -40t-46 -35.5q-21 -17 -40.5 -31.5t-33.5 -30t-22.5 -36t-8.5 -49.5q0 -42 27 -66.5t69 -24.5q45 0 74 21t55 57h6q21 -8 38 -26.5t17 -41.5q0 -25 -15.5 -44t-38 -31.5t-48 -19t-44.5 -6.5
q-40 0 -82.5 21t-77.5 54.5t-57.5 75t-22.5 82.5q0 31 13.5 56t34.5 47t45.5 40.5t47.5 36.5q20 16 37 30t29 28t18.5 30t6.5 36q0 36 -17 66t-46 59zM356 510q0 -33 -22.5 -56.5t-54.5 -23.5t-54.5 23.5t-22.5 56.5t22.5 56.5t54.5 23.5t54.5 -23.5t22.5 -56.5z" />
    <glyph glyph-name="Agrave" unicode="&#xc0;" horiz-adv-x="962" 
d="M618 355h-333l-77 -197q-20 -57 -20 -72q0 -26 24.5 -36t87.5 -13l-3 -36q-37 0 -83 1t-91 1q-37 0 -76.5 -1t-76.5 -1l-2 34q39 3 64 9.5t43.5 24t35 48t38.5 81.5l277 677q12 30 25.5 52.5t23.5 48.5l63 8q11 -48 23.5 -88t23.5 -73l225 -652q15 -44 27 -69t28 -38.5
t40.5 -18.5t63.5 -8l-3 -36q-42 0 -92.5 1t-101.5 1q-42 0 -85 -1t-85 -1l-3 34q56 4 80 13.5t24 35.5q0 11 -4 25.5t-10 32.5zM308 413h291l-131 396h-3zM576 1052l2 -7l-21 -25l-267 116l-2 12l78 66z" />
    <glyph glyph-name="Aacute" unicode="&#xc1;" horiz-adv-x="962" 
d="M618 355h-333l-77 -197q-20 -57 -20 -72q0 -26 24.5 -36t87.5 -13l-3 -36q-37 0 -83 1t-91 1q-37 0 -76.5 -1t-76.5 -1l-2 34q39 3 64 9.5t43.5 24t35 48t38.5 81.5l277 677q12 30 25.5 52.5t23.5 48.5l63 8q11 -48 23.5 -88t23.5 -73l225 -652q15 -44 27 -69t28 -38.5
t40.5 -18.5t63.5 -8l-3 -36q-42 0 -92.5 1t-101.5 1q-42 0 -85 -1t-85 -1l-3 34q56 4 80 13.5t24 35.5q0 11 -4 25.5t-10 32.5zM308 413h291l-131 396h-3zM648 1214l78 -66l-2 -12l-267 -116l-31 25v7z" />
    <glyph glyph-name="Acircumflex" unicode="&#xc2;" horiz-adv-x="962" 
d="M618 355h-333l-77 -197q-20 -57 -20 -72q0 -26 24.5 -36t87.5 -13l-3 -36q-37 0 -83 1t-91 1q-37 0 -76.5 -1t-76.5 -1l-2 34q39 3 64 9.5t43.5 24t35 48t38.5 81.5l277 677q12 30 25.5 52.5t23.5 48.5l63 8q11 -48 23.5 -88t23.5 -73l225 -652q15 -44 27 -69t28 -38.5
t40.5 -18.5t63.5 -8l-3 -36q-42 0 -92.5 1t-101.5 1q-42 0 -85 -1t-85 -1l-3 34q56 4 80 13.5t24 35.5q0 11 -4 25.5t-10 32.5zM308 413h291l-131 396h-3zM357 1014l-38 10l-4 6l154 178l82 6l148 -184l-4 -6l-38 -10l-150 115z" />
    <glyph glyph-name="Atilde" unicode="&#xc3;" horiz-adv-x="962" 
d="M618 355h-333l-77 -197q-20 -57 -20 -72q0 -26 24.5 -36t87.5 -13l-3 -36q-37 0 -83 1t-91 1q-37 0 -76.5 -1t-76.5 -1l-2 34q39 3 64 9.5t43.5 24t35 48t38.5 81.5l277 677q12 30 25.5 52.5t23.5 48.5l63 8q11 -48 23.5 -88t23.5 -73l225 -652q15 -44 27 -69t28 -38.5
t40.5 -18.5t63.5 -8l-3 -36q-42 0 -92.5 1t-101.5 1q-42 0 -85 -1t-85 -1l-3 34q56 4 80 13.5t24 35.5q0 11 -4 25.5t-10 32.5zM308 413h291l-131 396h-3zM720 1156q-11 -23 -24.5 -44t-30.5 -36.5t-37 -25t-43 -9.5q-19 0 -36.5 7l-37.5 15q-42 17 -60.5 24t-31.5 7
q-27 0 -45.5 -15.5t-33.5 -38.5l-37 17q10 23 23.5 43.5t30.5 36.5t37 25t43 9q19 0 36.5 -7l37.5 -15q43 -17 61 -24t31 -7q28 0 46 16t34 39z" />
    <glyph glyph-name="Adieresis" unicode="&#xc4;" horiz-adv-x="962" 
d="M618 355h-333l-77 -197q-20 -57 -20 -72q0 -26 24.5 -36t87.5 -13l-3 -36q-37 0 -83 1t-91 1q-37 0 -76.5 -1t-76.5 -1l-2 34q39 3 64 9.5t43.5 24t35 48t38.5 81.5l277 677q12 30 25.5 52.5t23.5 48.5l63 8q11 -48 23.5 -88t23.5 -73l225 -652q15 -44 27 -69t28 -38.5
t40.5 -18.5t63.5 -8l-3 -36q-42 0 -92.5 1t-101.5 1q-42 0 -85 -1t-85 -1l-3 34q56 4 80 13.5t24 35.5q0 11 -4 25.5t-10 32.5zM308 413h291l-131 396h-3zM644 1040q-27 0 -46 19.5t-19 46.5q0 28 19 47t46 19q28 0 47 -19t19 -47q0 -27 -19.5 -46.5t-46.5 -19.5zM369 1040
q-27 0 -46 19.5t-19 46.5t19 46.5t46 19.5q28 0 47 -19t19 -47q0 -27 -19.5 -46.5t-46.5 -19.5z" />
    <glyph glyph-name="Aring" unicode="&#xc5;" horiz-adv-x="962" 
d="M618 355h-333l-77 -197q-20 -57 -20 -72q0 -26 24.5 -36t87.5 -13l-3 -36q-37 0 -83 1t-91 1q-37 0 -76.5 -1t-76.5 -1l-2 34q39 3 64 9.5t43.5 24t35 48t38.5 81.5l277 677q12 30 25.5 52.5t23.5 48.5l63 8q11 -48 23.5 -88t23.5 -73l225 -652q15 -44 27 -69t28 -38.5
t40.5 -18.5t63.5 -8l-3 -36q-42 0 -92.5 1t-101.5 1q-42 0 -85 -1t-85 -1l-3 34q56 4 80 13.5t24 35.5q0 11 -4 25.5t-10 32.5zM308 413h291l-131 396h-3zM384 1119q0 22 10 41.5t27.5 33.5t39.5 22t46 8q27 0 49.5 -8t39 -22t25.5 -32t9 -39q0 -22 -10 -41t-27.5 -32.5
t-39.5 -21.5t-46 -8q-54 0 -88.5 28.5t-34.5 70.5zM575 1119q0 29 -17 50.5t-51 21.5t-57.5 -19.5t-23.5 -48.5q0 -32 24.5 -51t56.5 -19q34 0 51 18.5t17 47.5z" />
    <glyph glyph-name="AE" unicode="&#xc6;" horiz-adv-x="1336" 
d="M1301 233q-8 -29 -15 -62t-13 -65t-10 -60t-5 -46q-100 0 -178 0.5t-139 0.5t-105.5 0.5t-74.5 0.5q-20 0 -46 -0.5t-52 -0.5t-49.5 -0.5t-37.5 -0.5l-3 34q46 3 74 9.5t43 20t20 37t5 61.5v257h-131q-33 0 -71 -0.5t-87 -1.5l-182 -260q-21 -30 -33.5 -51.5t-12.5 -35.5
q0 -17 21 -24.5t73 -9.5l-3 -36q-37 0 -80 1t-88 1q-37 0 -79.5 -1t-79.5 -1l-2 34q40 2 68.5 10t53.5 26.5t50.5 49t59.5 77.5l495 688q5 8 5 13q0 13 -30 18.5t-87 7.5l3 36q19 0 44 -0.5t51 -0.5q27 0 53.5 -0.5t50.5 -0.5q39 0 156 1t316 1q-6 -51 -9 -110t-4 -131
l-39 -1q-9 59 -20 96.5t-31 59t-52 29.5t-83 8h-134q-30 0 -38.5 -6t-8.5 -31v-394l329 11l7 -7l-2 -81q-85 8 -167 11t-167 4v-255q0 -34 4 -56t17.5 -34.5t38 -17.5t65.5 -5h64q58 0 94.5 9.5t61.5 32t44.5 59.5t42.5 91zM461 468l254 8v358z" />
    <glyph glyph-name="Ccedilla" unicode="&#xc7;" horiz-adv-x="1013" 
d="M197 498q0 -96 24 -180.5t72.5 -147t121.5 -99t172 -36.5q54 0 103.5 15t87.5 49q36 32 62.5 78.5t52.5 109.5l40 -10q-17 -66 -27 -124t-17 -124q-75 -22 -149.5 -34.5t-147.5 -14.5q-13 -10 -18 -19.5t-5 -19.5q0 -14 12 -25t27 -27q16 -17 30 -37t14 -37
q0 -18 -13 -44t-35 -50t-51 -40.5t-60 -16.5q-11 0 -23 3.5t-22.5 10.5t-17.5 17.5t-7 24.5q0 17 16 33t33 21q16 -22 33 -34t39 -12q30 0 30 31q0 18 -12 33.5t-28 31.5q-17 17 -31 33.5t-14 33.5q0 16 13.5 38.5t50.5 51.5q-109 4 -200 40.5t-157 100t-103 152t-37 196.5
q0 128 47 223.5t127.5 159.5t186.5 95.5t224 31.5q61 0 130.5 -9t129.5 -25q-6 -64 -7.5 -121.5t-1.5 -121.5l-42 -4q-4 59 -23.5 102.5t-52 72t-75.5 42t-94 13.5q-100 0 -176 -31.5t-127.5 -88t-78 -136t-26.5 -175.5z" />
    <glyph glyph-name="Egrave" unicode="&#xc8;" horiz-adv-x="816" 
d="M300 163q0 -34 4.5 -56t18 -34.5t38 -17.5t65.5 -5h73q58 0 94.5 9.5t61.5 32t44.5 59.5t42.5 91l39 -9q-8 -29 -15 -62t-13 -65t-10 -60t-5 -46q-199 0 -322.5 1t-184.5 1q-18 0 -42.5 -0.5t-50.5 -0.5t-50.5 -0.5t-41.5 -0.5l-3 34q46 3 74 9.5t43 20t20 37t5 61.5v673
q0 24 -4.5 40t-18 26.5t-39 15.5t-68.5 7l3 36q19 0 43.5 -0.5t49.5 -0.5q26 0 50.5 -0.5t45.5 -0.5q39 0 164 1t318 1q-6 -51 -9 -107t-4 -119l-40 -1q-9 52 -20 86t-31 54.5t-52 29t-83 8.5h-143q-30 0 -38.5 -6t-8.5 -31v-346l338 10l7 -7l-2 -83q-91 8 -179.5 11
t-163.5 5v-301zM499 1052l2 -7l-21 -25l-267 116l-2 12l78 66z" />
    <glyph glyph-name="Eacute" unicode="&#xc9;" horiz-adv-x="816" 
d="M300 163q0 -34 4.5 -56t18 -34.5t38 -17.5t65.5 -5h73q58 0 94.5 9.5t61.5 32t44.5 59.5t42.5 91l39 -9q-8 -29 -15 -62t-13 -65t-10 -60t-5 -46q-199 0 -322.5 1t-184.5 1q-18 0 -42.5 -0.5t-50.5 -0.5t-50.5 -0.5t-41.5 -0.5l-3 34q46 3 74 9.5t43 20t20 37t5 61.5v673
q0 24 -4.5 40t-18 26.5t-39 15.5t-68.5 7l3 36q19 0 43.5 -0.5t49.5 -0.5q26 0 50.5 -0.5t45.5 -0.5q39 0 164 1t318 1q-6 -51 -9 -107t-4 -119l-40 -1q-9 52 -20 86t-31 54.5t-52 29t-83 8.5h-143q-30 0 -38.5 -6t-8.5 -31v-346l338 10l7 -7l-2 -83q-91 8 -179.5 11
t-163.5 5v-301zM571 1214l78 -66l-2 -12l-267 -116l-21 25l2 7z" />
    <glyph glyph-name="Ecircumflex" unicode="&#xca;" horiz-adv-x="816" 
d="M300 163q0 -34 4.5 -56t18 -34.5t38 -17.5t65.5 -5h73q58 0 94.5 9.5t61.5 32t44.5 59.5t42.5 91l39 -9q-8 -29 -15 -62t-13 -65t-10 -60t-5 -46q-199 0 -322.5 1t-184.5 1q-18 0 -42.5 -0.5t-50.5 -0.5t-50.5 -0.5t-41.5 -0.5l-3 34q46 3 74 9.5t43 20t20 37t5 61.5v673
q0 24 -4.5 40t-18 26.5t-39 15.5t-68.5 7l3 36q19 0 43.5 -0.5t49.5 -0.5q26 0 50.5 -0.5t45.5 -0.5q39 0 164 1t318 1q-6 -51 -9 -107t-4 -119l-40 -1q-9 52 -20 86t-31 54.5t-52 29t-83 8.5h-143q-30 0 -38.5 -6t-8.5 -31v-346l338 10l7 -7l-2 -83q-91 8 -179.5 11
t-163.5 5v-301zM280 1014l-38 10l-4 6l154 178l82 6l148 -184l-4 -6l-38 -10l-154 115z" />
    <glyph glyph-name="Edieresis" unicode="&#xcb;" horiz-adv-x="816" 
d="M300 163q0 -34 4.5 -56t18 -34.5t38 -17.5t65.5 -5h73q58 0 94.5 9.5t61.5 32t44.5 59.5t42.5 91l39 -9q-8 -29 -15 -62t-13 -65t-10 -60t-5 -46q-199 0 -322.5 1t-184.5 1q-18 0 -42.5 -0.5t-50.5 -0.5t-50.5 -0.5t-41.5 -0.5l-3 34q46 3 74 9.5t43 20t20 37t5 61.5v673
q0 24 -4.5 40t-18 26.5t-39 15.5t-68.5 7l3 36q19 0 43.5 -0.5t49.5 -0.5q26 0 50.5 -0.5t45.5 -0.5q39 0 164 1t318 1q-6 -51 -9 -107t-4 -119l-40 -1q-9 52 -20 86t-31 54.5t-52 29t-83 8.5h-143q-30 0 -38.5 -6t-8.5 -31v-346l338 10l7 -7l-2 -83q-91 8 -179.5 11
t-163.5 5v-301zM567 1040q-27 0 -46 19.5t-19 46.5q0 28 19 47t46 19q28 0 47 -19t19 -47q0 -27 -19.5 -46.5t-46.5 -19.5zM292 1040q-27 0 -46 16.5t-19 43.5t19 49.5t46 22.5q28 0 47 -19t19 -47q0 -27 -19.5 -46.5t-46.5 -19.5z" />
    <glyph glyph-name="Igrave" unicode="&#xcc;" horiz-adv-x="485" 
d="M61 34q39 3 63 9.5t37.5 20t18.5 37t5 61.5v673q0 24 -4 40t-17.5 26.5t-38.5 15.5t-66 7l2 36q16 0 39 -0.5t49 -0.5q27 0 54.5 -0.5t51.5 -0.5q19 0 42.5 0.5t46.5 0.5t43.5 0.5t34.5 0.5l4 -34q-39 -3 -63.5 -9.5t-38.5 -20t-19 -37t-5 -60.5v-674q0 -24 4 -40
t17 -26.5t38 -15.5t67 -7v-36q-16 0 -40 0.5t-51 0.5q-26 0 -53 0.5t-51 0.5q-20 0 -43 -0.5t-46 -0.5t-43.5 -0.5t-34.5 -0.5zM332 1052l2 -7l-21 -25l-267 116l-2 12l78 66z" />
    <glyph glyph-name="Iacute" unicode="&#xcd;" horiz-adv-x="485" 
d="M61 34q39 3 63 9.5t37.5 20t18.5 37t5 61.5v673q0 24 -4 40t-17.5 26.5t-38.5 15.5t-66 7l2 36q16 0 39 -0.5t49 -0.5q27 0 54.5 -0.5t51.5 -0.5q19 0 42.5 0.5t46.5 0.5t43.5 0.5t34.5 0.5l4 -34q-39 -3 -63.5 -9.5t-38.5 -20t-19 -37t-5 -60.5v-674q0 -24 4 -40
t17 -26.5t38 -15.5t67 -7v-36q-16 0 -40 0.5t-51 0.5q-26 0 -53 0.5t-51 0.5q-20 0 -43 -0.5t-46 -0.5t-43.5 -0.5t-34.5 -0.5zM364 1214l62 -66l14 -12l-267 -116l-21 25l2 7z" />
    <glyph glyph-name="Icircumflex" unicode="&#xce;" horiz-adv-x="485" 
d="M61 34q39 3 63 9.5t37.5 20t18.5 37t5 61.5v673q0 24 -4 40t-17.5 26.5t-38.5 15.5t-66 7l2 36q16 0 39 -0.5t49 -0.5q27 0 54.5 -0.5t51.5 -0.5q19 0 42.5 0.5t46.5 0.5t43.5 0.5t34.5 0.5l4 -34q-39 -3 -63.5 -9.5t-38.5 -20t-19 -37t-5 -60.5v-674q0 -24 4 -40
t17 -26.5t38 -15.5t67 -7v-36q-16 0 -40 0.5t-51 0.5q-26 0 -53 0.5t-51 0.5q-20 0 -43 -0.5t-46 -0.5t-43.5 -0.5t-34.5 -0.5zM93 1014l-38 10l-4 6l154 178l82 6l148 -184l-4 -6l-38 -10l-150 115z" />
    <glyph glyph-name="Idieresis" unicode="&#xcf;" horiz-adv-x="485" 
d="M61 34q39 3 63 9.5t37.5 20t18.5 37t5 61.5v673q0 24 -4 40t-17.5 26.5t-38.5 15.5t-66 7l2 36q16 0 39 -0.5t49 -0.5q27 0 54.5 -0.5t51.5 -0.5q19 0 42.5 0.5t46.5 0.5t43.5 0.5t34.5 0.5l4 -34q-39 -3 -63.5 -9.5t-38.5 -20t-19 -37t-5 -60.5v-674q0 -24 4 -40
t17 -26.5t38 -15.5t67 -7v-36q-16 0 -40 0.5t-51 0.5q-26 0 -53 0.5t-51 0.5q-20 0 -43 -0.5t-46 -0.5t-43.5 -0.5t-34.5 -0.5zM380 1040q-27 0 -46 19.5t-19 46.5q0 28 19 47t46 19q28 0 47 -19t19 -47q0 -27 -19.5 -46.5t-46.5 -19.5zM105 1040q-27 0 -46 16.5t-19 43.5
t19 49.5t46 22.5q28 0 47 -22t19 -50q0 -27 -19.5 -43.5t-46.5 -16.5z" />
    <glyph glyph-name="Eth" unicode="&#xd0;" horiz-adv-x="1080" 
d="M54 534h131v297q0 27 -4 44t-17.5 27.5t-40.5 15t-72 6.5l2 36q36 0 87.5 -1t102.5 -1t107 5.5t108 5.5q108 0 208 -23t177.5 -76t124 -138.5t46.5 -209.5q0 -128 -46 -227t-124 -167t-181.5 -103.5t-218.5 -35.5q-51 0 -109 6.5t-109 6.5q-20 0 -42.5 -0.5t-45.5 -0.5
t-44 -0.5t-37 -0.5l-3 34q42 3 68 9t40 20t18.5 37.5t4.5 61.5v314h-127zM301 534h295l-5 -58h-290v-298q0 -29 2 -53.5t15 -42.5t42 -28t83 -10q97 0 176.5 30.5t136.5 88.5t88.5 141t31.5 187q0 106 -32.5 185.5t-89.5 133t-135 80.5t-169 27q-32 0 -59 -4t-47 -11
t-31.5 -15t-11.5 -17v-336z" />
    <glyph glyph-name="Ntilde" unicode="&#xd1;" horiz-adv-x="1103" 
d="M881 -14q-26 37 -52 71.5t-55 69.5l-535 635l-4 -2v-585q0 -47 5.5 -73.5t20.5 -40t40.5 -18t66.5 -7.5l-2 -36q-32 0 -75.5 1t-91.5 1q-38 0 -79.5 -1t-76.5 -1l-3 34q40 4 66 9.5t41.5 22.5t21.5 51t6 94v501q0 42 -1 68t-4.5 42.5t-9.5 27.5t-16 23q-10 13 -20 22
t-23 15t-32 9t-47 5l2 36q12 0 35.5 -0.5t52.5 -0.5t60 -0.5t58 -0.5l640 -755l3 2v579q0 47 -5.5 73.5t-20.5 40t-41 18t-67 7.5l2 36q32 0 76 -1t92 -1q19 0 40 0.5t41.5 1t39 1t32.5 0.5l1 -34q-39 -4 -64 -10t-39.5 -23t-20.5 -51t-6 -94v-752zM768 1156
q-11 -23 -24.5 -44t-30.5 -36.5t-37 -25t-43 -9.5q-19 0 -36.5 7l-37.5 15q-42 17 -60.5 24t-31.5 7q-27 0 -45.5 -15.5t-33.5 -38.5l-37 17q10 23 23.5 43.5t30.5 36.5t37 25t43 9q19 0 36.5 -7l37.5 -15q43 -17 61 -24t31 -7q28 0 46 16t34 39z" />
    <glyph glyph-name="Ograve" unicode="&#xd2;" horiz-adv-x="1122" 
d="M561 980q109 0 200.5 -34.5t156.5 -98.5t101.5 -154.5t36.5 -202.5q0 -111 -36 -204.5t-101 -161.5t-156 -106t-202 -38q-109 0 -200 34.5t-156.5 98.5t-102 154.5t-36.5 202.5q0 111 36 204.5t101 161.5t156 106t202 38zM555 926q-69 0 -132.5 -22.5t-112 -72.5
t-77.5 -129.5t-29 -193.5q0 -134 33 -225t85 -146.5t116.5 -79t128.5 -23.5q69 0 132.5 22.5t112 72.5t77.5 129.5t29 193.5q0 134 -33 225t-85 146.5t-116.5 79t-128.5 23.5zM630 1052l2 -7l-21 -25l-267 116l-2 12l78 66z" />
    <glyph glyph-name="Oacute" unicode="&#xd3;" horiz-adv-x="1122" 
d="M561 980q109 0 200.5 -34.5t156.5 -98.5t101.5 -154.5t36.5 -202.5q0 -111 -36 -204.5t-101 -161.5t-156 -106t-202 -38q-109 0 -200 34.5t-156.5 98.5t-102 154.5t-36.5 202.5q0 111 36 204.5t101 161.5t156 106t202 38zM555 926q-69 0 -132.5 -22.5t-112 -72.5
t-77.5 -129.5t-29 -193.5q0 -134 33 -225t85 -146.5t116.5 -79t128.5 -23.5q69 0 132.5 22.5t112 72.5t77.5 129.5t29 193.5q0 134 -33 225t-85 146.5t-116.5 79t-128.5 23.5zM702 1214l78 -66l-2 -12l-267 -116l-21 25l2 7z" />
    <glyph glyph-name="Ocircumflex" unicode="&#xd4;" horiz-adv-x="1122" 
d="M561 980q109 0 200.5 -34.5t156.5 -98.5t101.5 -154.5t36.5 -202.5q0 -111 -36 -204.5t-101 -161.5t-156 -106t-202 -38q-109 0 -200 34.5t-156.5 98.5t-102 154.5t-36.5 202.5q0 111 36 204.5t101 161.5t156 106t202 38zM555 926q-69 0 -132.5 -22.5t-112 -72.5
t-77.5 -129.5t-29 -193.5q0 -134 33 -225t85 -146.5t116.5 -79t128.5 -23.5q69 0 132.5 22.5t112 72.5t77.5 129.5t29 193.5q0 134 -33 225t-85 146.5t-116.5 79t-128.5 23.5zM411 1014l-38 10l-4 6l154 178l82 6l148 -184l-4 -6l-38 -10l-150 115z" />
    <glyph glyph-name="Otilde" unicode="&#xd5;" horiz-adv-x="1122" 
d="M561 980q109 0 200.5 -34.5t156.5 -98.5t101.5 -154.5t36.5 -202.5q0 -111 -36 -204.5t-101 -161.5t-156 -106t-202 -38q-109 0 -200 34.5t-156.5 98.5t-102 154.5t-36.5 202.5q0 111 36 204.5t101 161.5t156 106t202 38zM555 926q-69 0 -132.5 -22.5t-112 -72.5
t-77.5 -129.5t-29 -193.5q0 -134 33 -225t85 -146.5t116.5 -79t128.5 -23.5q69 0 132.5 22.5t112 72.5t77.5 129.5t29 193.5q0 134 -33 225t-85 146.5t-116.5 79t-128.5 23.5zM774 1156q-11 -23 -24.5 -44t-30.5 -36.5t-37 -25t-43 -9.5q-19 0 -36.5 7l-37.5 15
q-42 17 -60.5 24t-31.5 7q-27 0 -45.5 -15.5t-33.5 -38.5l-37 17q10 23 23.5 43.5t30.5 36.5t37 25t43 9q19 0 36.5 -7l37.5 -15q43 -17 61 -24t31 -7q28 0 46 16t34 39z" />
    <glyph glyph-name="Odieresis" unicode="&#xd6;" horiz-adv-x="1122" 
d="M561 980q109 0 200.5 -34.5t156.5 -98.5t101.5 -154.5t36.5 -202.5q0 -111 -36 -204.5t-101 -161.5t-156 -106t-202 -38q-109 0 -200 34.5t-156.5 98.5t-102 154.5t-36.5 202.5q0 111 36 204.5t101 161.5t156 106t202 38zM555 926q-69 0 -132.5 -22.5t-112 -72.5
t-77.5 -129.5t-29 -193.5q0 -134 33 -225t85 -146.5t116.5 -79t128.5 -23.5q69 0 132.5 22.5t112 72.5t77.5 129.5t29 193.5q0 134 -33 225t-85 146.5t-116.5 79t-128.5 23.5zM698 1040q-27 0 -46 19.5t-19 46.5q0 28 19 47t46 19q28 0 47.5 -19t19.5 -47q0 -27 -20 -46.5
t-47 -19.5zM423 1040q-27 0 -46 19.5t-19 46.5t19 46.5t46 19.5q28 0 47 -19t19 -47q0 -27 -19.5 -46.5t-46.5 -19.5z" />
    <glyph glyph-name="multiply" unicode="&#xd7;" horiz-adv-x="680" 
d="M340 348l-228 -228l-43 50l224 225l-224 225l43 50l228 -228l228 228l43 -50l-224 -225l224 -225l-43 -50z" />
    <glyph glyph-name="Oslash" unicode="&#xd8;" horiz-adv-x="1122" 
d="M561 980q78 0 144.5 -17t123.5 -49l68 96l50 -29l-70 -99q85 -64 132 -161t47 -231q0 -111 -36 -204.5t-101 -161.5t-156 -106t-202 -38q-78 0 -147 17.5t-127 51.5l-75 -106l-46 35l73 104q-82 64 -127.5 159.5t-45.5 228.5q0 111 36 204.5t101 161.5t156 106t202 38z
M918 452q0 123 -27 207.5t-72 141.5l-481 -680q51 -48 110 -67.5t119 -19.5q69 0 132.5 22.5t112 72.5t77.5 129.5t29 193.5zM555 926q-69 0 -132.5 -22.5t-112 -72.5t-77.5 -129.5t-29 -193.5q0 -120 25.5 -203.5t68.5 -140.5l481 680q-51 45 -109 63.5t-115 18.5z" />
    <glyph glyph-name="Ugrave" unicode="&#xd9;" horiz-adv-x="1047" 
d="M284 329q0 -72 24 -123.5t63.5 -84t89.5 -48t103 -15.5q54 0 103 16.5t87 53t60.5 94t22.5 138.5v420q0 44 -6.5 71t-24 42t-48.5 21t-80 9l2 36q35 0 84.5 -1t103.5 -1q44 0 92 1.5t80 1.5l1 -34q-44 -4 -71.5 -9.5t-44 -21.5t-22.5 -47t-6 -85v-423q0 -98 -33 -166
t-86.5 -111.5t-121 -63t-137.5 -19.5q-69 0 -132 19t-111.5 58t-77.5 98t-29 139v534q0 24 -4.5 41t-19 28.5t-41.5 17.5t-72 8l2 36q18 0 42.5 -0.5t51.5 -0.5q28 0 56.5 -0.5t53.5 -0.5q20 0 44.5 0.5t49.5 0.5t47.5 0.5t39.5 0.5l3 -34q-43 -3 -70 -10t-42 -22
t-20.5 -39.5t-5.5 -61.5v-463zM623 1052l2 -7l-21 -25l-267 116l-2 12l78 66z" />
    <glyph glyph-name="Uacute" unicode="&#xda;" horiz-adv-x="1047" 
d="M284 329q0 -72 24 -123.5t63.5 -84t89.5 -48t103 -15.5q54 0 103 16.5t87 53t60.5 94t22.5 138.5v420q0 44 -6.5 71t-24 42t-48.5 21t-80 9l2 36q35 0 84.5 -1t103.5 -1q44 0 92 1.5t80 1.5l1 -34q-44 -4 -71.5 -9.5t-44 -21.5t-22.5 -47t-6 -85v-423q0 -98 -33 -166
t-86.5 -111.5t-121 -63t-137.5 -19.5q-69 0 -132 19t-111.5 58t-77.5 98t-29 139v534q0 24 -4.5 41t-19 28.5t-41.5 17.5t-72 8l2 36q18 0 42.5 -0.5t51.5 -0.5q28 0 56.5 -0.5t53.5 -0.5q20 0 44.5 0.5t49.5 0.5t47.5 0.5t39.5 0.5l3 -34q-43 -3 -70 -10t-42 -22
t-20.5 -39.5t-5.5 -61.5v-463zM695 1214l78 -66l-2 -12l-267 -116l-21 25l2 7z" />
    <glyph glyph-name="Ucircumflex" unicode="&#xdb;" horiz-adv-x="1047" 
d="M284 329q0 -72 24 -123.5t63.5 -84t89.5 -48t103 -15.5q54 0 103 16.5t87 53t60.5 94t22.5 138.5v420q0 44 -6.5 71t-24 42t-48.5 21t-80 9l2 36q35 0 84.5 -1t103.5 -1q44 0 92 1.5t80 1.5l1 -34q-44 -4 -71.5 -9.5t-44 -21.5t-22.5 -47t-6 -85v-423q0 -98 -33 -166
t-86.5 -111.5t-121 -63t-137.5 -19.5q-69 0 -132 19t-111.5 58t-77.5 98t-29 139v534q0 24 -4.5 41t-19 28.5t-41.5 17.5t-72 8l2 36q18 0 42.5 -0.5t51.5 -0.5q28 0 56.5 -0.5t53.5 -0.5q20 0 44.5 0.5t49.5 0.5t47.5 0.5t39.5 0.5l3 -34q-43 -3 -70 -10t-42 -22
t-20.5 -39.5t-5.5 -61.5v-463zM404 1014l-38 10l-4 6l154 178l82 6l148 -184l-4 -6l-38 -10l-150 115z" />
    <glyph glyph-name="Udieresis" unicode="&#xdc;" horiz-adv-x="1047" 
d="M284 329q0 -72 24 -123.5t63.5 -84t89.5 -48t103 -15.5q54 0 103 16.5t87 53t60.5 94t22.5 138.5v420q0 44 -6.5 71t-24 42t-48.5 21t-80 9l2 36q35 0 84.5 -1t103.5 -1q44 0 92 1.5t80 1.5l1 -34q-44 -4 -71.5 -9.5t-44 -21.5t-22.5 -47t-6 -85v-423q0 -98 -33 -166
t-86.5 -111.5t-121 -63t-137.5 -19.5q-69 0 -132 19t-111.5 58t-77.5 98t-29 139v534q0 24 -4.5 41t-19 28.5t-41.5 17.5t-72 8l2 36q18 0 42.5 -0.5t51.5 -0.5q28 0 56.5 -0.5t53.5 -0.5q20 0 44.5 0.5t49.5 0.5t47.5 0.5t39.5 0.5l3 -34q-43 -3 -70 -10t-42 -22
t-20.5 -39.5t-5.5 -61.5v-463zM691 1040q-27 0 -46 19.5t-19 46.5q0 28 19 47t46 19q28 0 47 -19t19 -47q0 -27 -19.5 -46.5t-46.5 -19.5zM416 1040q-27 0 -46 19.5t-19 46.5t19 46.5t46 19.5q28 0 47 -19t19 -47q0 -27 -19.5 -46.5t-46.5 -19.5z" />
    <glyph glyph-name="Yacute" unicode="&#xdd;" horiz-adv-x="870" 
d="M380 314q0 29 -1 49.5t-6.5 41t-16.5 44.5t-31 60q-27 48 -65.5 116t-97.5 166q-23 39 -39.5 63.5t-35 39t-43.5 21t-64 9.5l2 36q42 0 92.5 -1t101.5 -1q42 0 85.5 1t85.5 1l3 -34q-54 -4 -74.5 -13t-20.5 -27q0 -12 7 -28t19 -39l182 -335l176 318q16 29 24.5 48.5
t8.5 33.5q0 19 -22.5 27.5t-79.5 12.5l2 36q37 0 78 -1t86 -1q37 0 76.5 1t76.5 1l3 -34q-39 -3 -64.5 -10t-45.5 -24t-39.5 -46t-47.5 -76q-51 -85 -88 -150.5t-58 -107.5q-21 -41 -32 -66t-16 -44t-5.5 -36.5t-0.5 -42.5v-198q0 -24 4 -40t18 -26.5t42.5 -15.5t77.5 -7
l-2 -36q-21 0 -47.5 0.5t-54.5 0.5t-55.5 0.5t-51.5 0.5q-20 0 -43.5 -0.5t-47.5 -0.5t-48 -0.5t-43 -0.5l-3 34q46 3 74 9t42 20t18.5 37.5t4.5 61.5v152zM600 1214l78 -66l-2 -12l-267 -116l-21 25l2 7z" />
    <glyph glyph-name="Thorn" unicode="&#xde;" horiz-adv-x="805" 
d="M300 777q29 5 59.5 7.5t59.5 2.5q71 0 135.5 -14t113.5 -46.5t78 -85t29 -129.5t-31 -134t-81 -94.5t-112 -56t-125 -18.5q-38 0 -72.5 5t-53.5 13v-100q0 -24 2.5 -40.5t15 -27.5t38 -16.5t70.5 -6.5v-36q-16 0 -38 0.5t-50 0.5q-27 0 -55.5 0.5t-52.5 0.5
q-19 0 -42 -0.5t-46 -0.5q-22 0 -42 -0.5t-34 -0.5l-2 34q39 3 62.5 9.5t36.5 20t17.5 37t4.5 61.5v673q0 24 -4 40t-16.5 26.5t-37.5 15.5t-67 7l2 36q16 0 39 -0.5t49 -0.5t53.5 -0.5t51.5 -0.5q19 0 43.5 0.5t48.5 0.5q25 0 45 0.5t34 0.5v-34q-42 -3 -67 -9t-38 -20
t-17 -37.5t-4 -60.5v-22zM300 277q23 -7 49 -10.5t58 -3.5q39 0 80 11.5t74.5 39.5t55.5 75t22 118q0 115 -62.5 171t-174.5 56q-35 0 -55 -3t-30.5 -11.5t-13.5 -22t-3 -34.5v-386z" />
    <glyph glyph-name="germandbls" unicode="&#xdf;" horiz-adv-x="780" 
d="M39 548q31 5 50.5 9t30.5 10t14.5 15.5t3.5 24.5v105q0 94 30 164t84 118q42 36 97 59.5t115 23.5q42 0 81 -13.5t68.5 -39.5t47 -64t17.5 -87t-14.5 -84t-36.5 -62t-47.5 -48.5t-47.5 -43.5q-23 -23 -38 -48t-15 -60q0 -27 12.5 -49.5t33 -42t46.5 -38t53 -37.5
q25 -17 48.5 -36t42 -41.5t29.5 -49t11 -57.5q0 -46 -17.5 -82.5t-46.5 -61.5t-67.5 -38.5t-80.5 -13.5q-41 0 -75 11t-75 17q-3 37 -8.5 75.5t-16.5 86.5l33 10q10 -27 22 -55t30 -50.5t43.5 -36.5t61.5 -14q45 0 70 29.5t25 74.5q0 26 -10.5 48.5t-28 42t-40 37
t-46.5 34.5q-27 18 -53 37.5t-46.5 42t-33.5 49.5t-13 60q0 36 11 63.5t28 50t38 42t41 39.5q29 29 49.5 65.5t20.5 93.5q0 39 -15 69.5t-40 51.5t-57.5 32t-67.5 11q-54 0 -92 -29q-20 -17 -30.5 -42t-15.5 -54t-6 -60.5t-1 -60.5v-637q0 -25 4.5 -40t15.5 -22.5t28 -10.5
t43 -4l-3 -37q-32 0 -65.5 1t-81.5 1q-39 0 -78 -1t-67 -1l-3 32q33 3 52.5 8.5t30 18.5t14 35.5t3.5 60.5v361h-95z" />
    <glyph glyph-name="agrave" unicode="&#xe0;" horiz-adv-x="620" 
d="M392 323q1 7 1 17v23v50q0 51 -24.5 84.5t-78.5 33.5q-29 0 -49.5 -10.5t-34 -27.5t-20 -39t-6.5 -46q-16 -13 -44 -13q-23 0 -43.5 10.5t-20.5 31.5q0 16 12.5 33t33 33.5t45.5 31.5t51 26q67 29 132 29q32 0 60 -8.5t49 -27t33 -47.5t12 -69q0 -60 -2 -138.5t-2 -174.5
q0 -39 15 -61t42 -22q24 0 52 17l18 -27q-23 -22 -56.5 -36t-67.5 -14q-35 0 -64.5 19t-39.5 65q-10 -7 -31 -21t-48 -28.5t-58 -25.5t-59 -11q-33 0 -60 12t-46.5 32.5t-30 47t-10.5 56.5q0 51 29.5 87.5t77.5 56.5q35 14 93.5 28.5t139.5 22.5zM390 114q0 42 1 82t1 82
q-27 -3 -54.5 -7.5t-53.5 -11.5t-49 -18t-39 -26q-25 -22 -25 -57q0 -42 21.5 -71t66.5 -29q32 0 67 15t64 41zM334 648l-3 -6l-35 -6l-155 245l5 11l105 9z" />
    <glyph glyph-name="aacute" unicode="&#xe1;" horiz-adv-x="620" 
d="M392 323q1 7 1 17v23v50q0 51 -24.5 84.5t-78.5 33.5q-29 0 -49.5 -10.5t-34 -27.5t-20 -39t-6.5 -46q-16 -13 -44 -13q-23 0 -43.5 10.5t-20.5 31.5q0 16 12.5 33t33 33.5t45.5 31.5t51 26q67 29 132 29q32 0 60 -8.5t49 -27t33 -47.5t12 -69q0 -60 -2 -138.5t-2 -174.5
q0 -39 15 -61t42 -22q24 0 52 17l18 -27q-23 -22 -56.5 -36t-67.5 -14q-35 0 -64.5 19t-39.5 65q-10 -7 -31 -21t-48 -28.5t-58 -25.5t-59 -11q-33 0 -60 12t-46.5 32.5t-30 47t-10.5 56.5q0 51 29.5 87.5t77.5 56.5q35 14 93.5 28.5t139.5 22.5zM390 114q0 42 1 82t1 82
q-27 -3 -54.5 -7.5t-53.5 -11.5t-49 -18t-39 -26q-25 -22 -25 -57q0 -42 21.5 -71t66.5 -29q32 0 67 15t64 41zM361 901l105 -9l5 -11l-155 -245l-35 6l-3 6z" />
    <glyph glyph-name="acircumflex" unicode="&#xe2;" horiz-adv-x="620" 
d="M392 323q1 7 1 17v23v50q0 51 -24.5 84.5t-78.5 33.5q-29 0 -49.5 -10.5t-34 -27.5t-20 -39t-6.5 -46q-16 -13 -44 -13q-23 0 -43.5 10.5t-20.5 31.5q0 16 12.5 33t33 33.5t45.5 31.5t51 26q67 29 132 29q32 0 60 -8.5t49 -27t33 -47.5t12 -69q0 -60 -2 -138.5t-2 -174.5
q0 -39 15 -61t42 -22q24 0 52 17l18 -27q-23 -22 -56.5 -36t-67.5 -14q-35 0 -64.5 19t-39.5 65q-10 -7 -31 -21t-48 -28.5t-58 -25.5t-59 -11q-33 0 -60 12t-46.5 32.5t-30 47t-10.5 56.5q0 51 29.5 87.5t77.5 56.5q35 14 93.5 28.5t139.5 22.5zM390 114q0 42 1 82t1 82
q-27 -3 -54.5 -7.5t-53.5 -11.5t-49 -18t-39 -26q-25 -22 -25 -57q0 -42 21.5 -71t66.5 -29q32 0 67 15t64 41zM158 636l-40 5l-4 6l154 248l82 6l148 -254l-4 -6l-40 -5l-148 178z" />
    <glyph glyph-name="atilde" unicode="&#xe3;" horiz-adv-x="620" 
d="M392 323q1 7 1 17v23v50q0 51 -24.5 84.5t-78.5 33.5q-29 0 -49.5 -10.5t-34 -27.5t-20 -39t-6.5 -46q-16 -13 -44 -13q-23 0 -43.5 10.5t-20.5 31.5q0 16 12.5 33t33 33.5t45.5 31.5t51 26q67 29 132 29q32 0 60 -8.5t49 -27t33 -47.5t12 -69q0 -60 -2 -138.5t-2 -174.5
q0 -39 15 -61t42 -22q24 0 52 17l18 -27q-23 -22 -56.5 -36t-67.5 -14q-35 0 -64.5 19t-39.5 65q-10 -7 -31 -21t-48 -28.5t-58 -25.5t-59 -11q-33 0 -60 12t-46.5 32.5t-30 47t-10.5 56.5q0 51 29.5 87.5t77.5 56.5q35 14 93.5 28.5t139.5 22.5zM390 114q0 42 1 82t1 82
q-27 -3 -54.5 -7.5t-53.5 -11.5t-49 -18t-39 -26q-25 -22 -25 -57q0 -42 21.5 -71t66.5 -29q32 0 67 15t64 41zM533 821q-11 -24 -25.5 -46.5t-32.5 -39.5t-39 -27t-46 -10q-20 0 -38.5 8t-40.5 16q-45 18 -65 25.5t-33 7.5q-29 0 -48.5 -16.5t-36.5 -41.5l-39 18
q11 24 25.5 46.5t32.5 39t39 26.5t46 10q20 0 38.5 -8t40.5 -16q22 -9 38 -15.5t27 -10t18.5 -5.5t14.5 -2q29 0 48.5 17t36.5 42z" />
    <glyph glyph-name="adieresis" unicode="&#xe4;" horiz-adv-x="620" 
d="M392 323q1 7 1 17v23v50q0 51 -24.5 84.5t-78.5 33.5q-29 0 -49.5 -10.5t-34 -27.5t-20 -39t-6.5 -46q-16 -13 -44 -13q-23 0 -43.5 10.5t-20.5 31.5q0 16 12.5 33t33 33.5t45.5 31.5t51 26q67 29 132 29q32 0 60 -8.5t49 -27t33 -47.5t12 -69q0 -60 -2 -138.5t-2 -174.5
q0 -39 15 -61t42 -22q24 0 52 17l18 -27q-23 -22 -56.5 -36t-67.5 -14q-35 0 -64.5 19t-39.5 65q-10 -7 -31 -21t-48 -28.5t-58 -25.5t-59 -11q-33 0 -60 12t-46.5 32.5t-30 47t-10.5 56.5q0 51 29.5 87.5t77.5 56.5q35 14 93.5 28.5t139.5 22.5zM390 114q0 42 1 82t1 82
q-27 -3 -54.5 -7.5t-53.5 -11.5t-49 -18t-39 -26q-25 -22 -25 -57q0 -42 21.5 -71t66.5 -29q32 0 67 15t64 41zM426 718q-27 0 -42.5 19.5t-15.5 46.5q0 28 15.5 47t42.5 19q28 0 50.5 -19t22.5 -47q0 -27 -23 -46.5t-50 -19.5zM178 718q-27 0 -46 19.5t-19 46.5t19 46.5
t46 19.5q28 0 47 -19t19 -47q0 -27 -19.5 -46.5t-46.5 -19.5z" />
    <glyph glyph-name="aring" unicode="&#xe5;" horiz-adv-x="620" 
d="M392 323q1 7 1 17v23v50q0 51 -24.5 84.5t-78.5 33.5q-29 0 -49.5 -10.5t-34 -27.5t-20 -39t-6.5 -46q-16 -13 -44 -13q-23 0 -43.5 10.5t-20.5 31.5q0 16 12.5 33t33 33.5t45.5 31.5t51 26q67 29 132 29q32 0 60 -8.5t49 -27t33 -47.5t12 -69q0 -60 -2 -138.5t-2 -174.5
q0 -39 15 -61t42 -22q24 0 52 17l18 -27q-23 -22 -56.5 -36t-67.5 -14q-35 0 -64.5 19t-39.5 65q-10 -7 -31 -21t-48 -28.5t-58 -25.5t-59 -11q-33 0 -60 12t-46.5 32.5t-30 47t-10.5 56.5q0 51 29.5 87.5t77.5 56.5q35 14 93.5 28.5t139.5 22.5zM390 114q0 42 1 82t1 82
q-27 -3 -54.5 -7.5t-53.5 -11.5t-49 -18t-39 -26q-25 -22 -25 -57q0 -42 21.5 -71t66.5 -29q32 0 67 15t64 41zM180 767q0 25 10.5 47t28 38t40 25t47.5 9q27 0 49.5 -9.5t38 -25t24 -36.5t8.5 -44q0 -25 -9.5 -46.5t-26 -37t-38 -24.5t-46.5 -9q-28 0 -51 8.5t-39.5 24
t-26 36t-9.5 44.5zM376 767q0 34 -17.5 60t-52.5 26t-53 -23.5t-18 -58.5q0 -37 19.5 -60.5t51.5 -23.5q35 0 52.5 22.5t17.5 57.5z" />
    <glyph glyph-name="ae" unicode="&#xe6;" horiz-adv-x="923" 
d="M878 108q-31 -41 -64 -66t-64 -38.5t-56.5 -18.5t-41.5 -5q-76 0 -132.5 30.5t-92.5 84.5q-61 -49 -120 -82t-113 -33q-32 0 -58 12.5t-44.5 33t-29 48t-10.5 57.5q0 52 28.5 88.5t76.5 54.5q35 14 89.5 28.5t136.5 23.5q1 14 1.5 40t0.5 47q0 51 -24.5 84.5t-78.5 33.5
q-29 0 -49.5 -10.5t-33.5 -28t-19 -40t-6 -46.5q-20 -14 -44 -14t-44 11t-20 31q0 17 11 33.5t29 32.5t42 30t50 27q28 13 67 23t69 10q45 0 82.5 -18.5t59.5 -55.5q43 39 92.5 56.5t91.5 17.5q35 0 70 -9.5t66 -29.5q39 -28 62 -70.5t23 -96.5v-14q0 -10 -1 -14
q-2 -14 -9 -19.5t-18 -7.5l-365 -37q6 -60 26.5 -102t50 -68.5t64 -38.5t67.5 -12q40 0 77 13.5t77 52.5zM733 366q17 2 23 13t6 27q0 61 -35 96.5t-92 35.5q-26 0 -52 -14t-47 -40.5t-34.5 -63.5t-15.5 -83zM408 137q-12 28 -17.5 64.5t-7.5 79.5q-25 -3 -52 -7.5
t-52.5 -12t-47.5 -18.5t-37 -26q-24 -24 -24 -59q0 -42 20.5 -71t65.5 -29q27 0 68.5 20t83.5 58v1z" />
    <glyph glyph-name="ccedilla" unicode="&#xe7;" horiz-adv-x="584" 
d="M560 127q-28 -55 -78.5 -90.5t-108.5 -49.5q-17 -12 -24.5 -23.5t-7.5 -22.5q0 -14 12 -25t27 -27q16 -17 31 -37t15 -37q0 -18 -13.5 -44t-35.5 -50t-51.5 -40.5t-60.5 -16.5q-11 0 -23 3.5t-22.5 10.5t-17.5 17.5t-7 24.5q0 17 16 33t33 21q16 -22 33 -34t39 -12
q30 0 30 31q0 18 -12 33.5t-28 31.5q-17 17 -31 33.5t-14 33.5q0 16 14 38t50 51q-65 0 -117 23t-88.5 62t-56 90.5t-19.5 109.5q0 69 27.5 128t74 103t107.5 69t129 25q33 0 66.5 -6t65.5 -23q14 -7 19.5 -18.5t5.5 -22.5q0 -18 -14 -37.5t-46 -35.5h-5q-37 38 -71 56
t-79 18q-42 0 -73.5 -17t-52.5 -45t-32 -64.5t-11 -75.5q0 -49 14.5 -94t41.5 -79t66.5 -54.5t90.5 -20.5q48 0 92 20t71 62z" />
    <glyph glyph-name="egrave" unicode="&#xe8;" horiz-adv-x="604" 
d="M559 111q-32 -42 -66 -67.5t-65 -39.5t-57 -19t-41 -5q-63 0 -115 24t-89 64.5t-57.5 95t-20.5 115.5q0 66 24.5 122.5t64.5 98.5t92 66t108 24q45 0 86 -14.5t71.5 -41.5t49 -65t18.5 -85v-14q0 -13 -1 -14q-5 -27 -28 -27h-378q1 -69 21 -118t51.5 -80t70.5 -45.5
t77 -14.5q41 0 78 14t78 55zM411 374q20 0 26 7.5t6 25.5q0 27 -9.5 51t-27 42t-43 28t-56.5 10q-24 0 -47.5 -11t-44 -32t-35.5 -51.5t-21 -69.5h252zM359 648l-3 -6l-35 -6l-155 245l5 11l105 9z" />
    <glyph glyph-name="eacute" unicode="&#xe9;" horiz-adv-x="604" 
d="M559 111q-32 -42 -66 -67.5t-65 -39.5t-57 -19t-41 -5q-63 0 -115 24t-89 64.5t-57.5 95t-20.5 115.5q0 66 24.5 122.5t64.5 98.5t92 66t108 24q45 0 86 -14.5t71.5 -41.5t49 -65t18.5 -85v-14q0 -13 -1 -14q-5 -27 -28 -27h-378q1 -69 21 -118t51.5 -80t70.5 -45.5
t77 -14.5q41 0 78 14t78 55zM411 374q20 0 26 7.5t6 25.5q0 27 -9.5 51t-27 42t-43 28t-56.5 10q-24 0 -47.5 -11t-44 -32t-35.5 -51.5t-21 -69.5h252zM386 901l105 -9l5 -11l-155 -245l-35 6l-3 6z" />
    <glyph glyph-name="ecircumflex" unicode="&#xea;" horiz-adv-x="604" 
d="M559 111q-32 -42 -66 -67.5t-65 -39.5t-57 -19t-41 -5q-63 0 -115 24t-89 64.5t-57.5 95t-20.5 115.5q0 66 24.5 122.5t64.5 98.5t92 66t108 24q45 0 86 -14.5t71.5 -41.5t49 -65t18.5 -85v-14q0 -13 -1 -14q-5 -27 -28 -27h-378q1 -69 21 -118t51.5 -80t70.5 -45.5
t77 -14.5q41 0 78 14t78 55zM411 374q20 0 26 7.5t6 25.5q0 27 -9.5 51t-27 42t-43 28t-56.5 10q-24 0 -47.5 -11t-44 -32t-35.5 -51.5t-21 -69.5h252zM183 636l-40 5l-4 6l154 248l82 6l148 -254l-4 -6l-40 -5l-148 178z" />
    <glyph glyph-name="edieresis" unicode="&#xeb;" horiz-adv-x="604" 
d="M559 111q-32 -42 -66 -67.5t-65 -39.5t-57 -19t-41 -5q-63 0 -115 24t-89 64.5t-57.5 95t-20.5 115.5q0 66 24.5 122.5t64.5 98.5t92 66t108 24q45 0 86 -14.5t71.5 -41.5t49 -65t18.5 -85v-14q0 -13 -1 -14q-5 -27 -28 -27h-378q1 -69 21 -118t51.5 -80t70.5 -45.5
t77 -14.5q41 0 78 14t78 55zM411 374q20 0 26 7.5t6 25.5q0 27 -9.5 51t-27 42t-43 28t-56.5 10q-24 0 -47.5 -11t-44 -32t-35.5 -51.5t-21 -69.5h252zM458 718q-27 0 -46 19.5t-19 46.5q0 28 19 47t46 19q28 0 47 -19t19 -47q0 -27 -19.5 -46.5t-46.5 -19.5zM203 718
q-27 0 -46 19.5t-19 46.5t19 46.5t46 19.5q28 0 47 -19t19 -47q0 -27 -19.5 -46.5t-46.5 -19.5z" />
    <glyph glyph-name="igrave" unicode="&#xec;" horiz-adv-x="375" 
d="M355 0q-32 0 -77 1t-93 1q-39 0 -76 -1t-65 -1l-2 32q33 3 52.5 8.5t30.5 18.5t14.5 35.5t3.5 60.5v263q0 28 -3 44t-12.5 25t-28 14t-48.5 10l-3 29q31 6 62.5 12.5t59 13.5t49 13t32.5 11l10 -8q-3 -25 -5 -53t-3 -55.5t-1.5 -52t-0.5 -42.5v-265q0 -24 3 -38.5
t13.5 -22.5t31.5 -11t58 -5zM218 648l-3 -6l-35 -6l-155 245l5 11l105 9z" />
    <glyph glyph-name="iacute" unicode="&#xed;" horiz-adv-x="375" 
d="M355 0q-32 0 -77 1t-93 1q-39 0 -76 -1t-65 -1l-2 32q33 3 52.5 8.5t30.5 18.5t14.5 35.5t3.5 60.5v263q0 28 -3 44t-12.5 25t-28 14t-48.5 10l-3 29q31 6 62.5 12.5t59 13.5t49 13t32.5 11l10 -8q-3 -25 -5 -53t-3 -55.5t-1.5 -52t-0.5 -42.5v-265q0 -24 3 -38.5
t13.5 -22.5t31.5 -11t58 -5zM245 901l105 -9l5 -11l-155 -245l-35 6l-3 6z" />
    <glyph glyph-name="icircumflex" unicode="&#xee;" horiz-adv-x="375" 
d="M355 0q-32 0 -77 1t-93 1q-39 0 -76 -1t-65 -1l-2 32q33 3 52.5 8.5t30.5 18.5t14.5 35.5t3.5 60.5v263q0 28 -3 44t-12.5 25t-28 14t-48.5 10l-3 29q31 6 62.5 12.5t59 13.5t49 13t32.5 11l10 -8q-3 -25 -5 -53t-3 -55.5t-1.5 -52t-0.5 -42.5v-265q0 -24 3 -38.5
t13.5 -22.5t31.5 -11t58 -5zM42 636l-40 5l-4 6l154 248l82 6l148 -254l-4 -6l-40 -5l-148 178z" />
    <glyph glyph-name="idieresis" unicode="&#xef;" horiz-adv-x="375" 
d="M355 0q-32 0 -77 1t-93 1q-39 0 -76 -1t-65 -1l-2 32q33 3 52.5 8.5t30.5 18.5t14.5 35.5t3.5 60.5v263q0 28 -3 44t-12.5 25t-28 14t-48.5 10l-3 29q31 6 62.5 12.5t59 13.5t49 13t32.5 11l10 -8q-3 -25 -5 -53t-3 -55.5t-1.5 -52t-0.5 -42.5v-265q0 -24 3 -38.5
t13.5 -22.5t31.5 -11t58 -5zM317 718q-27 0 -46 19.5t-19 46.5q0 28 19 47t46 19q28 0 47 -19t19 -47q0 -27 -19.5 -46.5t-46.5 -19.5zM62 718q-27 0 -46 19.5t-19 46.5t19 46.5t46 19.5q28 0 47 -19t19 -47q0 -27 -19.5 -46.5t-46.5 -19.5z" />
    <glyph glyph-name="eth" unicode="&#xf0;" horiz-adv-x="700" 
d="M196 712l162 111q-25 28 -51 50.5t-55 41t-63.5 33t-75.5 26.5l13 40q48 -9 88.5 -22t77 -30.5t69.5 -40t65 -49.5l148 99l27 -50l-132 -89q91 -100 135 -218t44 -249q0 -75 -20.5 -144.5t-60.5 -123t-98.5 -85.5t-134.5 -32q-62 0 -114 23t-89.5 62.5t-59 93.5
t-21.5 117q0 73 26 131t69.5 98.5t101.5 62.5t122 22q67 0 133 -24q-18 63 -43 113t-67 101l-163 -109zM528 359q0 17 -1.5 42t-4.5 42q-38 46 -84 69t-91 23q-35 0 -66.5 -14t-55.5 -43t-38.5 -72.5t-14.5 -102.5q0 -42 11 -90t33 -88.5t56 -67t79 -26.5q52 0 86.5 34
t54.5 84t28 107t8 103z" />
    <glyph glyph-name="ntilde" unicode="&#xf1;" horiz-adv-x="778" 
d="M346 0q-32 0 -72 1t-88 1q-39 0 -77.5 -1t-66.5 -1l-3 32q34 3 54.5 9t32 18.5t15 35t3.5 60.5v259q0 28 -3 44t-12.5 25.5t-28 14.5t-48.5 10l-3 28q25 5 53.5 12t55.5 14.5t50.5 14.5t38.5 13l12 -8q-3 -21 -5 -41.5t-2 -41.5q54 43 114.5 67t115.5 24q36 0 67.5 -11.5
t54.5 -36.5t36.5 -63.5t13.5 -93.5v-271q0 -24 3 -38.5t12.5 -22.5t28.5 -11t51 -5l-2 -37q-32 0 -70.5 1t-86.5 1q-39 0 -74.5 -1t-63.5 -1l-3 32q31 3 50 8t29 16.5t13 33t3 59.5v211q0 80 -35.5 115.5t-89.5 35.5q-38 0 -81 -15.5t-86 -43.5v-338q0 -24 2.5 -38.5
t12.5 -22.5t29.5 -11t52.5 -5zM603 821q-11 -24 -25.5 -46.5t-32.5 -39.5t-39 -27t-46 -10q-20 0 -38.5 8t-40.5 16q-45 18 -65 25.5t-33 7.5q-29 0 -48.5 -16.5t-36.5 -41.5l-39 18q11 24 25.5 46.5t32.5 39t39 26.5t46 10q20 0 38.5 -8t40.5 -16q22 -9 38 -15.5t27 -10
t18.5 -5.5t14.5 -2q29 0 48.5 17t36.5 42z" />
    <glyph glyph-name="ograve" unicode="&#xf2;" horiz-adv-x="711" 
d="M54 279q0 64 23.5 121t64 99t95.5 66.5t118 24.5q68 0 124 -23.5t95.5 -64t61 -95t21.5 -116.5q0 -65 -23.5 -121.5t-64 -98.5t-96 -66.5t-118.5 -24.5q-68 0 -123.5 23.5t-95 64t-61 95t-21.5 116.5zM368 29q44 0 75.5 21t52 54t30 74t9.5 82q0 48 -10.5 98t-33.5 90.5
t-59.5 66.5t-88.5 26q-45 0 -76.5 -20.5t-51.5 -53.5t-29.5 -74t-9.5 -82q0 -46 11 -96t34 -91t59.5 -68t87.5 -27zM376 648l-3 -6l-35 -6l-155 245l5 11l105 9z" />
    <glyph glyph-name="oacute" unicode="&#xf3;" horiz-adv-x="711" 
d="M54 279q0 64 23.5 121t64 99t95.5 66.5t118 24.5q68 0 124 -23.5t95.5 -64t61 -95t21.5 -116.5q0 -65 -23.5 -121.5t-64 -98.5t-96 -66.5t-118.5 -24.5q-68 0 -123.5 23.5t-95 64t-61 95t-21.5 116.5zM368 29q44 0 75.5 21t52 54t30 74t9.5 82q0 48 -10.5 98t-33.5 90.5
t-59.5 66.5t-88.5 26q-45 0 -76.5 -20.5t-51.5 -53.5t-29.5 -74t-9.5 -82q0 -46 11 -96t34 -91t59.5 -68t87.5 -27zM403 901l105 -9l5 -11l-155 -245l-35 6l-3 6z" />
    <glyph glyph-name="ocircumflex" unicode="&#xf4;" horiz-adv-x="711" 
d="M54 279q0 64 23.5 121t64 99t95.5 66.5t118 24.5q68 0 124 -23.5t95.5 -64t61 -95t21.5 -116.5q0 -65 -23.5 -121.5t-64 -98.5t-96 -66.5t-118.5 -24.5q-68 0 -123.5 23.5t-95 64t-61 95t-21.5 116.5zM368 29q44 0 75.5 21t52 54t30 74t9.5 82q0 48 -10.5 98t-33.5 90.5
t-59.5 66.5t-88.5 26q-45 0 -76.5 -20.5t-51.5 -53.5t-29.5 -74t-9.5 -82q0 -46 11 -96t34 -91t59.5 -68t87.5 -27zM200 636l-40 5l-4 6l154 248l82 6l148 -254l-4 -6l-40 -5l-148 178z" />
    <glyph glyph-name="otilde" unicode="&#xf5;" horiz-adv-x="711" 
d="M54 279q0 64 23.5 121t64 99t95.5 66.5t118 24.5q68 0 124 -23.5t95.5 -64t61 -95t21.5 -116.5q0 -65 -23.5 -121.5t-64 -98.5t-96 -66.5t-118.5 -24.5q-68 0 -123.5 23.5t-95 64t-61 95t-21.5 116.5zM368 29q44 0 75.5 21t52 54t30 74t9.5 82q0 48 -10.5 98t-33.5 90.5
t-59.5 66.5t-88.5 26q-45 0 -76.5 -20.5t-51.5 -53.5t-29.5 -74t-9.5 -82q0 -46 11 -96t34 -91t59.5 -68t87.5 -27zM575 821q-11 -24 -26.5 -46.5t-34.5 -39.5t-41 -27t-47 -10q-20 0 -35.5 8t-37.5 16q-45 18 -65 25.5t-33 7.5q-29 0 -48.5 -16.5t-36.5 -41.5l-39 18
q11 24 25.5 46.5t32.5 39t39 26.5t46 10q20 0 38.5 -8t40.5 -16q22 -9 38 -15.5t27 -10t18.5 -5.5t14.5 -2q29 0 48.5 17t36.5 42z" />
    <glyph glyph-name="odieresis" unicode="&#xf6;" horiz-adv-x="711" 
d="M54 279q0 64 23.5 121t64 99t95.5 66.5t118 24.5q68 0 124 -23.5t95.5 -64t61 -95t21.5 -116.5q0 -65 -23.5 -121.5t-64 -98.5t-96 -66.5t-118.5 -24.5q-68 0 -123.5 23.5t-95 64t-61 95t-21.5 116.5zM368 29q44 0 75.5 21t52 54t30 74t9.5 82q0 48 -10.5 98t-33.5 90.5
t-59.5 66.5t-88.5 26q-45 0 -76.5 -20.5t-51.5 -53.5t-29.5 -74t-9.5 -82q0 -46 11 -96t34 -91t59.5 -68t87.5 -27zM475 718q-27 0 -46 19.5t-19 46.5q0 28 19 47t46 19q28 0 47 -19t19 -47q0 -27 -19.5 -46.5t-46.5 -19.5zM220 718q-27 0 -46 19.5t-19 46.5t19 46.5
t46 19.5q28 0 47 -19t19 -47q0 -27 -19.5 -46.5t-46.5 -19.5z" />
    <glyph glyph-name="divide" unicode="&#xf7;" horiz-adv-x="680" 
d="M60 362l5 66h555l-5 -66h-555zM271 587q0 28 20 48t48 20q29 0 49 -20t20 -48q0 -29 -20 -49t-49 -20q-28 0 -48 20t-20 49zM271 204q0 28 20 48t48 20q29 0 49 -20t20 -48q0 -29 -20 -49t-49 -20q-28 0 -48 20t-20 49z" />
    <glyph glyph-name="oslash" unicode="&#xf8;" horiz-adv-x="711" 
d="M48 279q0 64 23.5 121t64 99t95.5 66.5t118 24.5q45 0 84 -10t72 -29l50 70l41 -26l-51 -72q51 -42 78.5 -102t27.5 -130q0 -65 -23.5 -121.5t-64 -98.5t-96 -66.5t-118.5 -24.5q-90 0 -158 41l-50 -71l-38 31l48 68q-49 42 -76 101t-27 129zM362 29q45 0 77.5 21
t53.5 54t30.5 74t9.5 82q0 48 -10 95.5t-33 89.5l-252 -358q23 -26 53.5 -42t70.5 -16zM166 311q0 -45 10 -92t32 -89l252 357q-23 25 -53.5 39.5t-69.5 14.5q-46 0 -78.5 -20.5t-53 -53.5t-30 -74t-9.5 -82z" />
    <glyph glyph-name="ugrave" unicode="&#xf9;" horiz-adv-x="755" 
d="M509 -6q2 18 3 42.5t1 42.5q-52 -47 -111.5 -73t-114.5 -26q-37 0 -68 12t-54 37.5t-36 65.5t-13 96v239q0 28 -3 44t-12.5 25.5t-27 14t-46.5 9.5l-2 29q32 4 63.5 9t59 10t48 10t31.5 9l10 -8q-3 -25 -4.5 -53.5t-3 -55.5t-2 -51.5t-0.5 -42.5v-150q0 -47 9.5 -79.5
t25.5 -52.5t38 -28.5t47 -8.5q41 0 84.5 17.5t81.5 46.5v306q0 28 -3 44t-13 25.5t-29.5 14t-52.5 9.5l-2 29q34 4 67.5 9t61.5 10.5t49 10t30 8.5l11 -8q-3 -25 -5 -53.5t-3.5 -55.5t-2 -51.5t-0.5 -42.5v-233q0 -29 3 -45t13.5 -25t30.5 -13.5t55 -9.5l4 -29
q-30 -3 -61.5 -7.5t-60 -9.5t-51.5 -11t-35 -10zM378 648l-3 -6l-35 -6l-155 245l5 11l105 9z" />
    <glyph glyph-name="uacute" unicode="&#xfa;" horiz-adv-x="755" 
d="M509 -6q2 18 3 42.5t1 42.5q-52 -47 -111.5 -73t-114.5 -26q-37 0 -68 12t-54 37.5t-36 65.5t-13 96v239q0 28 -3 44t-12.5 25.5t-27 14t-46.5 9.5l-2 29q32 4 63.5 9t59 10t48 10t31.5 9l10 -8q-3 -25 -4.5 -53.5t-3 -55.5t-2 -51.5t-0.5 -42.5v-150q0 -47 9.5 -79.5
t25.5 -52.5t38 -28.5t47 -8.5q41 0 84.5 17.5t81.5 46.5v306q0 28 -3 44t-13 25.5t-29.5 14t-52.5 9.5l-2 29q34 4 67.5 9t61.5 10.5t49 10t30 8.5l11 -8q-3 -25 -5 -53.5t-3.5 -55.5t-2 -51.5t-0.5 -42.5v-233q0 -29 3 -45t13.5 -25t30.5 -13.5t55 -9.5l4 -29
q-30 -3 -61.5 -7.5t-60 -9.5t-51.5 -11t-35 -10zM405 901l105 -9l5 -11l-155 -245l-35 6l-3 6z" />
    <glyph glyph-name="ucircumflex" unicode="&#xfb;" horiz-adv-x="755" 
d="M509 -6q2 18 3 42.5t1 42.5q-52 -47 -111.5 -73t-114.5 -26q-37 0 -68 12t-54 37.5t-36 65.5t-13 96v239q0 28 -3 44t-12.5 25.5t-27 14t-46.5 9.5l-2 29q32 4 63.5 9t59 10t48 10t31.5 9l10 -8q-3 -25 -4.5 -53.5t-3 -55.5t-2 -51.5t-0.5 -42.5v-150q0 -47 9.5 -79.5
t25.5 -52.5t38 -28.5t47 -8.5q41 0 84.5 17.5t81.5 46.5v306q0 28 -3 44t-13 25.5t-29.5 14t-52.5 9.5l-2 29q34 4 67.5 9t61.5 10.5t49 10t30 8.5l11 -8q-3 -25 -5 -53.5t-3.5 -55.5t-2 -51.5t-0.5 -42.5v-233q0 -29 3 -45t13.5 -25t30.5 -13.5t55 -9.5l4 -29
q-30 -3 -61.5 -7.5t-60 -9.5t-51.5 -11t-35 -10zM202 636l-40 5l-4 6l154 248l82 6l148 -254l-4 -6l-40 -5l-148 178z" />
    <glyph glyph-name="udieresis" unicode="&#xfc;" horiz-adv-x="755" 
d="M509 -6q2 18 3 42.5t1 42.5q-52 -47 -111.5 -73t-114.5 -26q-37 0 -68 12t-54 37.5t-36 65.5t-13 96v239q0 28 -3 44t-12.5 25.5t-27 14t-46.5 9.5l-2 29q32 4 63.5 9t59 10t48 10t31.5 9l10 -8q-3 -25 -4.5 -53.5t-3 -55.5t-2 -51.5t-0.5 -42.5v-150q0 -47 9.5 -79.5
t25.5 -52.5t38 -28.5t47 -8.5q41 0 84.5 17.5t81.5 46.5v306q0 28 -3 44t-13 25.5t-29.5 14t-52.5 9.5l-2 29q34 4 67.5 9t61.5 10.5t49 10t30 8.5l11 -8q-3 -25 -5 -53.5t-3.5 -55.5t-2 -51.5t-0.5 -42.5v-233q0 -29 3 -45t13.5 -25t30.5 -13.5t55 -9.5l4 -29
q-30 -3 -61.5 -7.5t-60 -9.5t-51.5 -11t-35 -10zM477 718q-27 0 -46 19.5t-19 46.5q0 28 19 47t46 19q28 0 47 -19t19 -47q0 -27 -19.5 -46.5t-46.5 -19.5zM222 718q-27 0 -46 19.5t-19 46.5t19 46.5t46 19.5q28 0 47 -19t19 -47q0 -27 -19.5 -46.5t-46.5 -19.5z" />
    <glyph glyph-name="yacute" unicode="&#xfd;" horiz-adv-x="661" 
d="M412 901l105 -9l5 -11l-155 -245l-35 6l-3 6zM687 539q-30 -4 -48 -9t-31.5 -15.5t-24.5 -28.5t-26 -48q-23 -46 -50 -106.5t-55.5 -128.5t-57.5 -140.5t-56 -142.5q-20 -49 -41.5 -100.5t-44.5 -97.5t-47 -82.5t-48 -55.5q-50 -42 -101 -42q-26 0 -45.5 16t-19.5 44
q0 22 12.5 38.5t32.5 27.5q11 -2 20 -3.5t17 -1.5q23 0 43.5 6.5t36.5 22.5q36 38 70.5 107t69.5 160l2 8l-3 14q-20 54 -43 114t-46.5 120t-47 117t-44.5 106q-13 30 -23.5 48t-24 28t-32 14t-47.5 6l2 37q33 0 74 -1t86 -1q39 0 71.5 1t61.5 1l2 -33q-40 -5 -56 -12
t-16 -24q0 -8 3.5 -19.5t8.5 -25.5l133 -346l146 348q11 35 11 40q0 19 -17 27.5t-62 10.5l2 34q31 0 61 -1t76 -1q35 0 62 1t52 1z" />
    <glyph glyph-name="thorn" unicode="&#xfe;" horiz-adv-x="722" 
d="M228 1073q-3 -25 -5.5 -59t-4 -67.5t-2.5 -63.5t-1 -48v-308q48 32 96 47.5t93 15.5q59 0 107.5 -23t83 -62t53.5 -90t19 -108q0 -73 -27 -133t-73.5 -103t-109.5 -67t-136 -24q-52 0 -106 12v-318q0 -24 3 -39t16.5 -23.5t41 -12.5t76.5 -6l-3 -37q-16 0 -40 0.5
t-52 0.5q-27 0 -55 0.5t-52 0.5q-38 0 -76 -1t-67 -1l-2 32q34 3 54 9t31 18.5t14.5 35t3.5 60.5v1181q0 29 -3 46.5t-13.5 27.5t-29.5 15t-52 10l-4 29q23 4 51 11t56.5 15t55.5 17t48 18zM215 123q0 -18 11.5 -34.5t30.5 -29t44.5 -20t53.5 -7.5q49 0 85.5 20.5t60 54.5
t35 77.5t11.5 89.5q0 48 -14 91t-40.5 75.5t-65 51.5t-87.5 19q-29 0 -60.5 -7t-64.5 -26v-355z" />
    <glyph glyph-name="ydieresis" unicode="&#xff;" horiz-adv-x="661" 
d="M472 657q-27 0 -46 19.5t-19 46.5q0 28 19 47t46 19q28 0 47 -19t19 -47q0 -27 -19.5 -46.5t-46.5 -19.5zM217 657q-27 0 -46 19.5t-19 46.5t19 46.5t46 19.5q28 0 47 -19t19 -47q0 -27 -19.5 -46.5t-46.5 -19.5zM687 539q-30 -4 -48 -9t-31.5 -15.5t-24.5 -28.5t-26 -48
q-23 -46 -50 -106.5t-55.5 -128.5t-57.5 -140.5t-56 -142.5q-20 -49 -41.5 -100.5t-44.5 -97.5t-47 -82.5t-48 -55.5q-50 -42 -101 -42q-26 0 -45.5 16t-19.5 44q0 22 12.5 38.5t32.5 27.5q11 -2 20 -3.5t17 -1.5q23 0 43.5 6.5t36.5 22.5q36 38 70.5 107t69.5 160l2 8
l-3 14q-20 54 -43 114t-46.5 120t-47 117t-44.5 106q-13 30 -23.5 48t-24 28t-32 14t-47.5 6l2 37q33 0 74 -1t86 -1q39 0 71.5 1t61.5 1l2 -33q-40 -5 -56 -12t-16 -24q0 -8 3.5 -19.5t8.5 -25.5l133 -346l146 348q11 35 11 40q0 19 -17 27.5t-62 10.5l2 34q31 0 61 -1
t76 -1q35 0 62 1t52 1z" />
    <glyph glyph-name="OE" unicode="&#x152;" horiz-adv-x="1331" 
d="M1249 960q-6 -51 -9 -107t-4 -119l-40 -1q-9 52 -20 86t-31 54.5t-52 29t-83 8.5h-133q-30 0 -38.5 -6t-8.5 -31v-346l326 10l7 -7l-2 -82q-91 8 -173.5 10.5t-157.5 4.5v-301q0 -34 4 -56t17.5 -34.5t38 -17.5t65.5 -5h59q58 0 94.5 9.5t61.5 32t44.5 59.5t42.5 91
l39 -9q-8 -29 -15 -62t-13 -65t-10 -60t-5 -46q-100 0 -177 0.5t-137 0.5t-104 0.5t-74 0.5q-51 0 -98.5 -6t-101.5 -6q-109 0 -200 33.5t-156.5 96t-102 151t-36.5 199.5q0 109 36 201.5t101 159t156 104t202 37.5q33 0 57 -2t45.5 -5t45 -5t56.5 -2q39 0 165 1t319 1z
M204 508q0 -134 33 -223t85 -142.5t116.5 -76t128.5 -22.5q54 0 84 8t44.5 23.5t17 38t2.5 52.5v695q0 8 -12 18t-33.5 18.5t-51 14.5t-63.5 6q-69 0 -132.5 -22t-112 -70.5t-77.5 -127t-29 -190.5z" />
    <glyph glyph-name="oe" unicode="&#x153;" horiz-adv-x="1072" 
d="M348 590q78 0 138.5 -33t98.5 -88q22 32 50.5 55t58.5 37.5t60 21.5t56 7q34 0 69 -9.5t66 -29.5q40 -28 62.5 -70.5t22.5 -96.5v-14q0 -13 -1 -14q-3 -27 -26 -27h-367q1 -71 20.5 -120t49.5 -80t67 -44.5t73 -13.5q40 0 76.5 13.5t76.5 54.5l29 -29
q-31 -41 -64.5 -66.5t-64 -39.5t-56 -19t-41.5 -5q-78 0 -134 32t-91 86q-45 -60 -106.5 -89t-124.5 -29q-68 0 -122.5 25t-92 66t-57.5 93.5t-20 107.5q0 82 28.5 142t72 99t95 58t98.5 19zM331 545q-69 0 -113 -59t-44 -167q0 -65 13 -118.5t38 -92.5t59.5 -60.5
t78.5 -21.5q33 0 61 12t49 40t32.5 74.5t11.5 114.5q0 57 -12 107.5t-35 88.5t-58 60t-81 22zM880 374q20 0 26 7.5t6 25.5q0 27 -8.5 51t-25 42t-40.5 28t-54 10q-23 0 -46 -11t-43 -32t-35 -51.5t-21 -69.5h241z" />
    <glyph glyph-name="Scaron" unicode="&#x160;" horiz-adv-x="707" 
d="M84 279q20 -52 42.5 -96t54 -76.5t73.5 -51t101 -18.5q39 0 72 13t58 37t39 56.5t14 71.5q0 49 -18 84t-48 60.5t-68 44.5t-78 37q-45 20 -90.5 44t-81.5 57t-59 76t-23 102q0 63 25.5 111.5t69 81.5t101 50t122.5 17q63 0 116.5 -9.5t114.5 -25.5q-3 -32 -5 -59.5
t-2.5 -54t-1 -54t-0.5 -59.5l-42 -4q-9 106 -64.5 158.5t-149.5 52.5q-36 0 -66 -11t-52 -32t-34.5 -50t-12.5 -65q0 -48 15.5 -80.5t42.5 -56.5t62.5 -41.5t74.5 -34.5q48 -21 96.5 -46t87 -59t62.5 -79t24 -106q0 -68 -28 -120.5t-74 -89t-106 -55.5t-123 -19
q-55 0 -114 11t-125 30q-7 66 -17 124t-27 124zM530 1225l38 -10l4 -6l-154 -178l-82 -6l-148 184l4 6l38 10l150 -115z" />
    <glyph glyph-name="scaron" unicode="&#x161;" horiz-adv-x="522" 
d="M417 400q-3 31 -15.5 57.5t-33 45.5t-47.5 29.5t-58 10.5q-19 0 -36.5 -6t-31 -17t-21.5 -27.5t-8 -37.5q0 -25 12.5 -43.5t33 -33t47 -25.5t54.5 -22q31 -13 61.5 -27.5t54.5 -34t38.5 -46.5t14.5 -64q0 -47 -20 -80.5t-52 -55.5t-72.5 -32.5t-81.5 -10.5q-26 0 -52.5 4
t-49.5 9q-21 5 -40.5 9.5t-42.5 6.5q-1 17 -3.5 43t-5.5 53t-6.5 51.5t-7.5 38.5l34 9q14 -34 31 -66t40.5 -56.5t53.5 -39.5t71 -15q39 0 69 21.5t30 65.5q0 25 -11.5 44.5t-31 34.5t-44 26.5t-51.5 22.5q-31 13 -61.5 27.5t-54.5 34t-39 46.5t-15 65q0 46 19.5 79t50 54.5
t69.5 31.5t78 10q40 0 79.5 -8t89.5 -10q-3 -32 -4 -60.5t-1 -61.5v-49zM429 911l40 -5l4 -6l-154 -248l-82 -6l-148 254l4 6l40 5l148 -178z" />
    <glyph glyph-name="Ydieresis" unicode="&#x178;" horiz-adv-x="870" 
d="M380 314q0 29 -1 49.5t-6.5 41t-16.5 44.5t-31 60q-27 48 -65.5 116t-97.5 166q-23 39 -39.5 63.5t-35 39t-43.5 21t-64 9.5l2 36q42 0 92.5 -1t101.5 -1q42 0 85.5 1t85.5 1l3 -34q-54 -4 -74.5 -13t-20.5 -27q0 -12 7 -28t19 -39l182 -335l176 318q16 29 24.5 48.5
t8.5 33.5q0 19 -22.5 27.5t-79.5 12.5l2 36q37 0 78 -1t86 -1q37 0 76.5 1t76.5 1l3 -34q-39 -3 -64.5 -10t-45.5 -24t-39.5 -46t-47.5 -76q-51 -85 -88 -150.5t-58 -107.5q-21 -41 -32 -66t-16 -44t-5.5 -36.5t-0.5 -42.5v-198q0 -24 4 -40t18 -26.5t42.5 -15.5t77.5 -7
l-2 -36q-21 0 -47.5 0.5t-54.5 0.5t-55.5 0.5t-51.5 0.5q-20 0 -43.5 -0.5t-47.5 -0.5t-48 -0.5t-43 -0.5l-3 34q46 3 74 9t42 20t18.5 37.5t4.5 61.5v152zM596 1040q-27 0 -46 19.5t-19 46.5q0 28 19 47t46 19q28 0 47 -19t19 -47q0 -27 -19.5 -46.5t-46.5 -19.5zM321 1040
q-27 0 -46 16.5t-19 43.5t19 49.5t46 22.5q28 0 47 -19t19 -47q0 -27 -19.5 -46.5t-46.5 -19.5z" />
    <glyph glyph-name="florin" unicode="&#x192;" horiz-adv-x="680" 
d="M230 536l2 16q11 88 47 151.5t90 111.5q48 42 102 61.5t114 19.5q14 0 32 -3t34 -10t27 -19t11 -30q0 -34 -19.5 -50t-50.5 -27h-3q-22 23 -56 40.5t-70 17.5q-20 0 -39.5 -6.5t-34.5 -20.5q-19 -17 -31.5 -40.5t-21 -50t-13.5 -54t-8 -52.5l-6 -53l167 3l7 -7l-9 -51
h-172l-29 -224q-14 -112 -46.5 -189.5t-79.5 -122.5q-20 -19 -43 -36.5t-48 -31t-51 -21.5t-51 -8q-14 0 -29 3.5t-28 10.5t-21 18.5t-8 27.5q0 26 20 43t43 22h3q15 -14 42 -30t58 -16q11 0 24 8.5t25 21t22 27t16 25.5q17 34 27 80.5t17 106.5l32 285h-95l-6 7l8 38z" />
    <glyph glyph-name="uni1780" unicode="&#x1780;" horiz-adv-x="680" 
d="M556 513h-10l-113 88l-92 -83h-24l-111 84l-53 -49q17 -12 40.5 -31t37.5 -31q4 3 14 6.5t21.5 5.5t23.5 3.5t22 1.5h54q20 0 52 -5.5t63 -20t53 -40.5t22 -68v-374h-86v352q0 24 -11 40.5t-27.5 26t-36.5 13.5t-38 4h-36q-18 0 -37 -5t-34 -15.5t-25 -27t-10 -38.5v-350
h-85v375q0 22 7 39t19 31l-76 63v56l134 136h25l116 -92l92 92h19l107 -88q8 -5 15 -5q9 0 18 6l19 -26z" />
    <glyph glyph-name="uni1781" unicode="&#x1781;" horiz-adv-x="680" 
d="M556 133q0 -42 -21.5 -68.5t-51.5 -40.5t-61.5 -19t-51.5 -5h-59q-27 0 -59 8.5t-59 25.5t-45 42t-18 57v66q0 28 17.5 48.5t46 36.5t63.5 29t70 25q29 10 55 22t46 25t31.5 27t11.5 28v108q0 24 -11 39.5t-28 24.5t-36.5 12.5t-37.5 3.5h-36q-18 0 -37 -5t-35 -15.5
t-26 -27t-10 -38.5v-125q5 -10 12.5 -13.5t14.5 -3.5q11 0 20.5 10.5t9.5 18.5q0 5 -5 8q-5 0 -12.5 3t-14.5 10t-12 19.5t-5 30.5q0 39 18.5 55.5t41.5 16.5q21 0 38.5 -19.5t17.5 -57.5t-13.5 -67.5t-34 -50t-45.5 -31.5t-48 -11h-20q-16 0 -31.5 13t-15.5 33v184
q0 31 17.5 56.5t44.5 43t58.5 27t58.5 9.5h59q20 0 52 -6t62 -21t52 -41.5t22 -68.5v-157q0 -22 -19.5 -42t-50.5 -37t-68.5 -32.5t-73.5 -28.5q-27 -9 -51 -18.5t-41.5 -20t-27.5 -22.5t-10 -27v-24q0 -22 10 -38t26 -26t35 -15t37 -5h36q18 0 37.5 3.5t36.5 13t28 25.5
t11 41v118l31 16h28l26 -17v-138z" />
    <glyph glyph-name="uni1782" unicode="&#x1782;" horiz-adv-x="680" 
d="M556 513h-11l-113 89l-91 -84h-24l-110 84l-52 -49q8 -6 18 -14t20.5 -16.5t20.5 -16.5t17 -14q8 6 32.5 11.5t44.5 5.5h59q20 0 52 -5.5t62.5 -20.5t52.5 -41t22 -68v-374h-86v352q0 25 -11 41t-27.5 25.5t-36.5 13.5t-38 4h-36q-18 0 -37 -5t-34 -15.5t-25 -26.5
t-10 -38v-185q22 42 41.5 65.5t35.5 35t28.5 14t21.5 2.5q28 0 43.5 -15.5t15.5 -34.5q0 -20 -11.5 -36t-36.5 -16q-31 0 -52.5 -12.5t-37.5 -29.5q-14 -16 -23 -34t-14.5 -34.5t-8 -28.5t-2.5 -15v-27h-85v376q0 21 7.5 38t19.5 31q-5 4 -16.5 13.5t-23.5 19.5t-22.5 18.5
t-13.5 11.5v53l133 139h25l118 -89l90 89h19l106 -87q8 -5 15 -5q9 0 18 6l18 -27z" />
    <glyph glyph-name="uni1783" unicode="&#x1783;" horiz-adv-x="1020" 
d="M922 531h-6q-14 15 -31 26q-14 10 -32.5 18t-39.5 8q-8 0 -15.5 -5t-14 -12t-12 -14.5t-8.5 -11.5q16 3 31 3q24 0 43 -7.5t32 -20.5t19.5 -29t6.5 -32v-361q0 -52 -24 -72.5t-66 -20.5h-201q-33 0 -51 12t-36 35q-16 -20 -32.5 -33.5t-42.5 -13.5h-214q-27 0 -45.5 8.5
t-30.5 22t-17 31.5t-5 38v513q-6 8 -8 11t-13 3q-8 0 -14 -6.5t-10 -16.5t-6.5 -20.5t-2.5 -17.5q0 -10 4 -10q5 0 12.5 -3t14.5 -10t12 -19.5t5 -30.5q0 -29 -12.5 -50t-38.5 -24h-13q-14 0 -24 8.5t-16.5 22.5t-9.5 31.5t-3 35.5q0 38 11.5 71t30.5 58t42 39t46 14h32
q17 0 31.5 -13.5t14.5 -30.5v-516q0 -32 15.5 -50t60.5 -18h106q73 0 73 71v266q0 33 -13 46.5t-37 13.5q-13 0 -23.5 -3.5t-18.5 8.5q-6 11 -12.5 23.5t-18.5 34.5l137 169h18l99 -68q4 -4 16 -4q9 0 17 5l18 -26l-73 -75q-5 0 -14 8t-22.5 18t-31.5 18t-40 8
q-14 0 -27.5 -15t-21.5 -25l-2 -3q16 3 31 3q49 0 77 -25t28 -58v-317q0 -18 7.5 -31.5t19.5 -23t27 -14t30 -4.5h101q13 0 25 1t22 7t16 19.5t6 37.5v268q0 34 -11.5 48.5t-36.5 14.5q-7 1 -12 -0.5t-9.5 -2.5t-8 0.5t-7.5 8.5q-6 10 -14.5 23t-20.5 34l136 169h19l99 -68
q4 -4 15 -4q5 0 11 1.5t10 3.5l15 -27z" />
    <glyph glyph-name="uni1784" unicode="&#x1784;" horiz-adv-x="680" 
d="M459 601q0 16 -11 27t-27 11t-25.5 -11t-9.5 -27t9.5 -26.5t25.5 -10.5t27 10.5t11 26.5zM466 0l-128 128l-127 -128h-81v368q0 6 -5.5 13t-16.5 7q-14 0 -20 -13t-6 -23q0 -9 4 -9t10.5 -2.5t12 -8.5t10 -16.5t4.5 -26.5q0 -50 -43 -50q-16 0 -32.5 21t-16.5 53
q0 66 32.5 101.5t80.5 35.5h20q8 0 17 -5t16.5 -12t12.5 -14.5t5 -13.5v-312l127 126l128 -127v311q0 41 -33 55t-82 14q-14 0 -27 0.5t-27 -1.5q-4 -1 -13 -1h-12q-29 0 -55 6.5t-46.5 19.5t-32.5 32.5t-12 46.5v123q-5 -3 -9 -3q-9 0 -16 11t-7 26v2q0 18 15 34t56 16
q17 0 31 -13t14 -31v-130q0 -29 28 -48.5t68 -19.5q15 0 30 3q-18 25 -18 57q0 42 28.5 70.5t70.5 28.5q21 0 38.5 -7.5t31 -21t21 -31.5t7.5 -39q0 -23 -10 -43t-27 -34q33 -9 53.5 -25t20.5 -46v-454h-90z" />
    <glyph glyph-name="uni1785" unicode="&#x1785;" horiz-adv-x="680" 
d="M556 513l-118 88l-92 -83h-24l-112 82l-66 -50q8 -6 17.5 -15l19 -18t18.5 -18t16 -15v-349q0 -21 6 -34t15 -19.5t20 -8.5t22 -2h125q13 0 25 2.5t21.5 9t15 18.5t5.5 32v244q0 9 -5 15.5t-16 6.5q-15 0 -24 -15t-9 -25q0 -7 4 -7q5 0 12.5 -3t14.5 -10t12 -19.5
t5 -30.5q0 -29 -12.5 -50t-38.5 -24h-9q-8 0 -18 5.5t-18.5 16t-14 25t-5.5 32.5q0 38 11.5 70.5t30 56t41.5 37t46 13.5h32q17 0 32 -13.5t15 -30.5v-334q0 -45 -23.5 -69t-65.5 -24h-253q-24 0 -40 9t-26 22t-14 28t-4 27v360q-5 4 -15.5 13t-22 19t-21 18.5t-12.5 11.5
v63l166 129h19l118 -90l90 90h19l107 -88q8 -5 15 -5q9 0 18 6l19 -26z" />
    <glyph glyph-name="uni1786" unicode="&#x1786;" horiz-adv-x="680" 
d="M130 156q-7 -2 -12 -6t-8 -11t-3 -20q0 -14 3 -22t8 -12t12 -5v76zM559 513h-3l-117 88l-92 -83h-24l-112 82l-65 -48q5 -6 13.5 -13.5t18.5 -16t19.5 -16t16.5 -13.5v-253q23 0 61 -6t80 -25q15 -7 32 -17t33 -21t29.5 -23.5t21.5 -24.5v256q0 9 -4 14.5t-15 5.5
q-15 0 -24.5 -15t-9.5 -24q0 -6 4 -6q5 0 12 -2.5t14 -9.5t11.5 -19t4.5 -30q0 -29 -11.5 -51t-37.5 -25h-7q-29 0 -43.5 22t-14.5 57q0 38 11 70.5t29 56t40.5 37t45.5 13.5h32q17 0 32.5 -14.5t15.5 -31.5v-427h-88q-35 57 -69.5 86.5t-65.5 45.5q-29 15 -59.5 19t-59.5 5
v-124q0 -8 -6 -20t-21 -12h-50q-23 0 -41 10.5t-31.5 26.5t-20.5 36t-7 40q0 21 6 42t18 38.5t29 29t40 14.5v209q-5 4 -15 13t-20.5 19t-19.5 18.5t-12 11.5v63l163 129h19l118 -90l90 90h18l108 -88q8 -5 15 -5q9 0 18 6l23 -26z" />
    <glyph glyph-name="uni1787" unicode="&#x1787;" horiz-adv-x="680" 
d="M557 670q0 -36 -10 -67t-29 -53.5t-45 -35.5t-57 -13q-40 0 -90 29l-115 70l-66 -46q18 -2 31 -10t22 -18.5t13 -22t4 -19.5v-381l127 128l128 -128v334q0 12 11 18.5t16 7.5h26q9 0 21 -9.5t12 -15.5v-438h-91l-127 126l-125 -126h-83v457q0 16 -11.5 22.5t-24.5 6.5
q-19 0 -26.5 -6t-15.5 -11l-43 60l217 170h18q44 -29 75.5 -50.5t55.5 -36.5t42 -23.5t34 -10.5q6 -1 11 1q20 5 29 20.5t9 31.5q0 14 -6 23.5t-12 9.5t-15.5 -2.5t-23.5 -2.5q-6 0 -9 1q-23 3 -35.5 18t-12.5 37v2q0 32 22.5 49t52.5 17h2q24 0 41.5 -9.5t29 -25t17.5 -36
t6 -42.5z" />
    <glyph glyph-name="uni1788" unicode="&#x1788;" horiz-adv-x="1360" 
d="M1258 532q-5 0 -14 8t-22.5 18t-31.5 18t-40 8q-8 0 -16 -5t-15 -11.5t-12 -14t-8 -12.5q16 3 31 3q49 0 77.5 -26t28.5 -59v-362q0 -53 -27 -75t-68 -22h-198q-33 0 -51 11.5t-36 34.5q-16 -20 -32.5 -33t-42.5 -13h-212q-27 0 -46 8t-30.5 22t-17 31.5t-5.5 37.5v447
q0 24 -11 40t-28 25t-37 12.5t-38 3.5h-36q-18 0 -36.5 -4.5t-34 -14.5t-25 -26t-9.5 -38v-474q14 0 24 8t16.5 19t9.5 22.5t3 17.5t-3 6q-5 0 -12.5 3t-14.5 10t-12 19.5t-5 30.5q0 27 6 42t14 22t16 8.5t12 1.5h9q27 0 43 -22t16 -57q0 -38 -14 -74t-35 -64.5t-46.5 -45.5
t-48.5 -17h-19q-16 0 -30 12t-14 32v520q0 31 17.5 56.5t43.5 43t57 27t58 9.5h59q20 0 52.5 -5.5t63 -20.5t53 -41t22.5 -68v-427q0 -32 19.5 -49.5t64.5 -17.5h96q34 0 54 17.5t20 51.5v268q0 33 -19 46.5t-43 13.5q-14 0 -19 -2.5t-11 7.5q-6 11 -13 23.5t-19 34.5
l137 169h18l99 -67q8 -5 16 -5q9 0 17 5l18 -26l-73 -75q-5 0 -14 8t-22.5 18t-31.5 18t-40 8q-8 0 -15.5 -5t-14.5 -11.5t-12.5 -14t-8.5 -12.5q16 3 31 3q49 0 77 -26t28 -59v-318q0 -18 7.5 -31t19.5 -22t27.5 -13.5t30.5 -4.5h97q13 0 26 1.5t23.5 8t17 20.5t6.5 38v271
q0 33 -13.5 46.5t-37.5 13.5q-13 0 -23.5 -3.5t-18.5 8.5q-6 10 -12.5 23t-18.5 34l136 169h19l99 -68q4 -4 15 -4q10 0 18 5l18 -26z" />
    <glyph glyph-name="uni1789" unicode="&#x1789;" horiz-adv-x="1020" 
d="M894 -186q0 -45 -18.5 -87t-50.5 -75q-38 -38 -92 -61.5t-117 -24.5q-41 0 -81 9q-43 10 -73.5 28t-53 40t-39.5 46t-32.5 46.5t-32 41t-38.5 30.5q-6 3 -10.5 6t-9 5.5t-11 3.5t-16.5 1q-8 0 -23 -0.5t-23 -2.5q-5 -1 -15 -3.5t-24 -6.5l-7 23l2 1q5 4 16 10.5t26.5 13
t34.5 11t41 4.5h3q55 -1 97 -15.5t67 -37.5q25 -22 42 -49t38 -53.5t51.5 -48.5t81.5 -34q6 -2 8 -2.5t10 -0.5q17 0 38.5 4t37.5 12q24 13 42 36t18 42q0 11 -7 18q-14 11 -23.5 30.5t-9.5 39.5q0 32 22.5 54.5t54.5 22.5t54 -22.5t22 -54.5zM810 0v500l-132 104l-122 -79
v-525h-86v554l-62 47l-91 -83h-25l-90 84l-48 -49q7 0 17 -6t20 -15t17 -19t7 -18v-423q13 0 23.5 7.5t17.5 17.5t10.5 21t3.5 18q0 9 -4 9q-5 0 -12.5 3t-14 10t-11.5 19t-5 30q0 27 6 42t13.5 22t15.5 8.5t12 1.5h3q29 0 47 -20.5t18 -58.5t-13.5 -74t-34 -64.5t-45 -46
t-47.5 -17.5h-20q-16 0 -32 12.5t-16 32.5v411q0 18 -14.5 35t-34.5 17v56l133 136h20l98 -90l90 90h19l115 -88l144 88h25l170 -136v-564h-85z" />
    <glyph glyph-name="uni178A" unicode="&#x178a;" horiz-adv-x="680" 
d="M464 0l-125 127l-127 -127h-82v394q0 11 11 18t17 7h33q9 0 16.5 -9.5t7.5 -14.5v-292l129 129l126 -127v288q0 11 8 18t13 8h36q9 0 19 -9.5t10 -15.5v-394h-92zM556 542q0 -41 -21 -66t-50.5 -38.5t-60.5 -17.5t-51 -4h-75q-27 0 -56.5 7.5t-54.5 23t-41 39t-16 55.5
v102q0 10 7 20t16.5 18.5t20.5 13.5t19 5h21q18 0 37.5 -6t36 -20t27.5 -37.5t11 -57.5q0 -32 -11 -51.5t-33 -19.5t-38.5 13.5t-16.5 47.5q0 31 13.5 42t23.5 11q3 1 3 4q0 4 -6 8t-14 8q-8 2 -11 2q-8 0 -14.5 -5t-6.5 -17v-59q0 -22 10 -37.5t26 -25.5t35 -14.5t37 -4.5
h47q18 0 36 3.5t32 12.5t23 24.5t9 40.5v113q0 8 -3 17.5t-7 17t-7.5 13t3 9.5t17.5 13q10 8 21 15.5t19 13.5q14 -14 28.5 -29.5t14.5 -40.5v-161v-1z" />
    <glyph glyph-name="uni178B" unicode="&#x178b;" horiz-adv-x="680" 
d="M617 707q0 -24 -6 -42.5t-14 -32t-17 -23t-15 -15.5l-61 -62h-7q-13 15 -28 26q-14 10 -31.5 18t-38.5 8q-8 0 -15.5 -5t-14.5 -12t-12.5 -14.5t-8.5 -11.5q16 3 33 3q20 0 45.5 -4t44.5 -12q15 -6 30 -16t27 -22t20 -25.5t8 -26.5v-336q0 -32 -10 -51.5t-24.5 -31
t-31 -15.5t-29.5 -4h-232q-27 0 -46 8.5t-30.5 22.5t-17 32t-5.5 38v513q-6 8 -7.5 11t-12.5 3q-8 0 -14 -7t-10 -17t-6.5 -21t-2.5 -18q0 -8 4 -8q5 0 12.5 -3t14.5 -10t12 -19.5t5 -30.5q0 -29 -12.5 -50t-38.5 -24h-8q-28 0 -42.5 22t-14.5 57q0 38 11.5 74t30 64.5
t41.5 45.5t46 17h32q17 0 31 -13.5t14 -30.5v-520q0 -32 20.5 -48t49.5 -16h124q23 0 42 16t19 51v248q0 34 -27.5 56.5t-80.5 24.5q-19 1 -34 -1.5t-21 7.5t-13 23t-19 34l137 169h19l88 -56q7 -4 10 -6t8 -2q9 0 18.5 6t11.5 27v9q0 22 -23 22q-4 0 -11.5 -2t-18.5 -2
q-4 0 -13.5 1.5t-23.5 10t-14 30.5q0 27 16 43t46 16q37 0 64.5 -23t27.5 -67z" />
    <glyph glyph-name="uni178C" unicode="&#x178c;" horiz-adv-x="680" 
d="M531 -17h-38l-23 18v102q-9 -15 -27 -33t-39.5 -33.5t-44 -26t-41.5 -10.5h-101q-50 0 -68.5 20.5t-18.5 55.5v148q0 38 22 57.5t57 30.5q30 9 66 18t70 20t63 25.5t46 34.5q16 22 16 53v98l-41 43l-73 -65h-36l-85 65l-20 -18v-179q0 -12 5.5 -17t12.5 -5q6 0 11 3
q8 4 15 12t7 15t-4 8q-5 0 -12.5 1.5t-14 6.5t-11.5 14.5t-5 25.5q0 33 18.5 44.5t37.5 11.5q18 0 30.5 -14t12.5 -46t-9.5 -57t-25.5 -42t-37 -25.5t-44 -8.5h-20q-8 0 -17 4t-16.5 11t-13 16t-5.5 19v219l104 97h28l97 -79l80 79h26l91 -96v-170q0 -26 -9 -44.5t-23 -32.5
q-24 -23 -59.5 -39.5t-73.5 -29t-74.5 -22.5t-62.5 -20q-17 -7 -28 -17t-11 -25v-79q0 -29 13.5 -41t37.5 -12h53q24 0 50.5 16.5t49 40.5t37 50t14.5 45v68l29 16h25l32 -15v-291z" />
    <glyph glyph-name="uni178D" unicode="&#x178d;" horiz-adv-x="1020" 
d="M470 157q-9 -2 -17.5 -9.5t-8.5 -27.5q0 -22 7.5 -29.5t18.5 -9.5v76zM920 532h-6q-15 17 -42.5 34.5t-60.5 17.5q-8 0 -15.5 -5t-14 -12t-12 -14t-8.5 -12q17 3 31 3q49 0 76 -26t27 -59v-459h-88q-35 54 -66.5 85.5t-61.5 47.5t-60 20t-63 4v-125q0 -8 -8.5 -20
t-23.5 -12h-53q-23 0 -39 10.5t-26.5 27t-15 37t-4.5 39.5q0 21 4.5 42t14.5 38.5t26 29t39 13.5v317l-62 47l-87 -83h-25l-93 84l-51 -49q7 0 17.5 -6t20.5 -15t17.5 -19t7.5 -18v-424q0 -11 8 -11q6 0 14 7.5t15.5 18t12.5 22.5t5 22q0 9 -8 12t-17.5 8.5t-17.5 17.5
t-8 38q0 27 6 42t14.5 22t16.5 8.5t12 1.5q32 0 50 -20.5t18 -58.5q0 -37 -13.5 -73.5t-34 -64.5t-45.5 -45.5t-48 -17.5h-20q-16 0 -30.5 12t-14.5 32v412q0 18 -15 35t-35 17v56l133 136h18l105 -90l86 90h19l115 -89v-369q22 0 55.5 -5t69.5 -18t70.5 -36t58.5 -59v284
q0 18 -9.5 29.5t-23 18.5t-29 10t-29.5 3q-17 38 -31 62l136 169h19l99 -68q4 -4 15 -4q9 0 17 5l19 -27z" />
    <glyph glyph-name="uni178E" unicode="&#x178e;" horiz-adv-x="1360" 
d="M1150 0v546q0 25 -11 40.5t-28 24.5t-37 12.5t-38 3.5h-36q-18 0 -36.5 -4.5t-34 -14.5t-25 -25.5t-9.5 -37.5v-545h-86l-126 108l-127 -108h-86v546q0 24 -11 40t-27.5 25t-36 12.5t-37.5 3.5h-36q-18 0 -37 -4.5t-34.5 -14.5t-25.5 -26t-10 -38v-474q13 0 23.5 7.5
t17.5 17.5t10.5 21t3.5 18q0 9 -5 9t-12.5 3t-14.5 10t-12 19.5t-5 30.5q0 27 6 42t14 22t16 8.5t12 1.5h9q27 0 43 -22t16 -57q0 -38 -13.5 -74t-34 -64.5t-45.5 -45.5t-48 -17h-20q-16 0 -31 12t-15 32v522q0 31 17.5 56t44.5 42.5t58 26.5t58 9h59q20 0 52 -5.5
t62.5 -20.5t52.5 -41t22 -68v-473q0 3 20 20t44 36.5t43.5 35.5t146.5 -90v471q0 31 17.5 56.5t43.5 42.5t57.5 26.5t58.5 9.5h59q20 0 52 -5.5t63 -20.5t53 -41t22 -68v-565h-86z" />
    <glyph glyph-name="uni178F" unicode="&#x178f;" horiz-adv-x="680" 
d="M556 513l-123 88l-92 -83h-25l-110 84l-53 -49q17 -12 40.5 -31t37.5 -31q8 7 32 12.5t44 5.5h59q20 0 52 -5.5t63 -20.5t53 -41t22 -68v-374h-86v352q0 24 -11 40.5t-27.5 26t-36.5 13.5t-38 4h-37q-18 0 -36.5 -3.5t-34 -11.5t-25 -23t-9.5 -37v-290q13 0 23.5 7.5
t17 17.5t10 21t3.5 18q0 9 -4 9q-5 0 -12.5 3t-14.5 10t-12 19t-5 30q0 27 6 42t14 22t16 8.5t12 1.5h3q29 0 47 -20.5t18 -58.5t-13.5 -74t-34 -64t-45.5 -45.5t-48 -17.5h-20q-16 0 -31 12t-15 32v331q0 22 7 39t19 31l-76 63v56l134 136h24l118 -90l88 90h19l107 -88
q8 -5 15 -5q9 0 18 6l18 -26z" />
    <glyph glyph-name="uni1790" unicode="&#x1790;" horiz-adv-x="680" 
d="M556 92q0 -92 -85 -92h-257q-24 0 -40 8.5t-26 21.5t-14 28t-4 28v373q0 12 -14 20t-29 8q-12 0 -19.5 -5.5t-15.5 -10.5l-43 60l217 169h18q40 -27 68 -45.5t50 -32t42.5 -23t46.5 -19.5q9 0 11 1q20 5 29 20.5t9 31.5q0 14 -6 23.5t-12 9.5t-15.5 -2.5t-23.5 -2.5
q-9 0 -12 1q-23 3 -35.5 18t-13.5 37v2q0 32 24.5 49t54.5 17h2q24 0 41.5 -9.5t29 -25t17 -36t5.5 -42.5q0 -36 -10 -67t-28.5 -53.5t-44.5 -35.5t-57 -13q-40 0 -90 29l-115 70l-66 -46q18 -2 31 -10t21.5 -18.5t12.5 -22t4 -19.5v-351q0 -21 6 -34t16 -19.5t21 -8.5
t22 -2h126q26 0 45.5 11.5t19.5 50.5v245q0 9 -4 15.5t-15 6.5q-8 0 -14.5 -7t-11 -17t-7.5 -20.5t-3 -17.5q0 -9 4 -9q5 0 12.5 -3t14.5 -10t12 -19.5t5 -30.5q0 -29 -12.5 -50t-38.5 -24h-14q-5 0 -13.5 5.5t-17 16t-14.5 25t-6 32.5q0 38 12 74t31 64.5t42.5 45.5
t46.5 17h29q17 0 32.5 -13.5t15.5 -30.5v-336z" />
    <glyph glyph-name="uni1791" unicode="&#x1791;" horiz-adv-x="680" 
d="M556 417q0 -10 -6.5 -20t-15.5 -18.5t-19 -13.5t-18 -5h-19q-23 0 -45.5 6.5t-40.5 21.5t-29 40t-11 63t17.5 57.5t39.5 19.5t39 -16.5t17 -55.5q0 -18 -4.5 -30.5t-10.5 -19.5t-13 -10t-13 -3q-4 -1 -4 -6t5.5 -10.5t16.5 -6.5h3q3 -1 11 -1q7 0 10.5 4t3.5 16v114
q0 22 -9 38t-24 26t-33 14.5t-36 4.5h-48q-18 0 -36.5 -3.5t-34 -12.5t-25 -24.5t-9.5 -39.5v-144q0 -30 14.5 -51t37 -34t50.5 -19.5t55 -8.5h28q0 10 5.5 18.5t13.5 15t17 10.5t15 5q5 1 9 1.5t9 0.5q21 0 41 -11t27 -38q1 -5 1.5 -9t0.5 -6q0 -12 -6 -23.5t-15.5 -20.5
t-22 -15t-25.5 -7v-138q0 -21 -8 -35t-19 -22t-22.5 -11.5t-19.5 -3.5h-110q-8 0 -20.5 3.5t-25 12t-21.5 22t-9 33.5v127l34 15h23l28 -16v-91q0 -15 11.5 -25.5t28.5 -11.5h15q16 0 23.5 11t7.5 28v107h-28q-35 3 -74.5 11t-74 26t-57 47t-22.5 74v192q0 42 19.5 68
t47 40.5t57.5 20t50 5.5h78q27 0 57.5 -8.5t56.5 -25.5t43 -42t17 -57v-149z" />
    <glyph glyph-name="uni1792" unicode="&#x1792;" horiz-adv-x="680" 
d="M556 513l-118 88l-92 -83h-24l-112 82l-66 -50q15 -14 36 -34t35 -32v-379l127 128l128 -129v273q0 9 -4.5 15.5t-15.5 6.5q-8 0 -14 -5t-10 -12t-6.5 -14.5t-2.5 -13.5q0 -8 4 -8q5 0 12.5 -3t14.5 -10t12 -19.5t5 -30.5q0 -29 -12.5 -50t-38.5 -24l-9 -1
q-29 2 -42.5 23.5t-13.5 56.5q0 38 11.5 71.5t30 58t41.5 39t46 14.5h32q17 0 31.5 -13.5t14.5 -30.5v-427h-90l-128 128l-125 -128h-83v446q-5 4 -15.5 13.5t-22 19.5t-21 18.5t-12.5 11.5v61l166 130h19l118 -90l90 90h19l107 -88q8 -5 15 -5q9 0 18 6l19 -26z" />
    <glyph glyph-name="uni1793" unicode="&#x1793;" horiz-adv-x="680" 
d="M556 81q0 -29 -11.5 -45.5t-26.5 -24.5t-29 -9.5t-18 -1.5h-119q-20 0 -36.5 7t-30.5 18.5t-26 26t-22 28.5q-7 10 -12.5 19.5t-9.5 18.5v-118h-85v284l27 15h28l30 -16v-33q3 -7 6 -13l6 -12q16 -33 35 -61t38.5 -48.5t38.5 -32t36 -11.5h56q6 0 13 1.5t12.5 7t9.5 16
t4 28.5v73q0 15 -10.5 25t-27.5 17q-26 10 -63 18t-75.5 18t-74.5 24.5t-60 37.5q-14 14 -21.5 32.5t-7.5 44.5v150q0 42 19.5 68t46.5 41t56 20.5t49 5.5h78q27 0 58 -9t57.5 -26.5t44 -42.5t17.5 -56v-170q0 -20 -16.5 -35t-33.5 -15h-24q-24 0 -47.5 9t-42.5 27t-31 46
t-12 66t21 54.5t43 16.5t37.5 -13t15.5 -52q0 -18 -5 -30.5t-12 -20t-14.5 -10.5t-13.5 -3q-3 -2 -3 -6q0 -7 6.5 -16.5t16.5 -14.5q6 -3 11 -3q18 0 18 24v124q0 22 -9.5 38t-25 26t-34 14.5t-36.5 4.5h-48q-18 0 -36 -3.5t-33 -12.5t-24 -25t-9 -40v-102q0 -17 4.5 -29.5
t12.5 -23.5q17 -20 46 -32.5t63 -21t70 -15.5t66 -16q34 -11 56.5 -30.5t22.5 -57.5v-137z" />
    <glyph glyph-name="uni1794" unicode="&#x1794;" horiz-adv-x="680" 
d="M577 534h-7q-16 16 -29 25.5t-31 17.5t-39 8q-8 0 -15.5 -5t-14 -12t-11.5 -14.5t-8 -11.5q15 3 28 3q25 0 44.5 -8t33 -21t21 -28t7.5 -29v-365q0 -45 -21.5 -69.5t-63.5 -24.5h-257q-24 0 -40 9t-26 22t-14 28.5t-4 27.5v322q0 64 -49 64q-18 0 -29 -2t-12 0
q-5 10 -13.5 24.5t-20.5 35.5l137 169h18l99 -68q4 -4 16 -4q9 0 17 5l18 -26l-74 -75q-5 0 -14 8t-22.5 18t-31 18t-39.5 8q-14 0 -27.5 -15t-21.5 -25l-2 -3q16 3 31 3q49 0 77 -26t28 -59v-323q0 -21 6 -34t15.5 -20t20.5 -9t22 -2h141q27 0 38.5 12t11.5 51v276
q0 26 -14 45t-42 19h-17q-9 0 -17 -2l-32 59l137 169h19l95 -66q8 -5 16 -5q4 0 12 1.5t13 4.5l11 -27z" />
    <glyph glyph-name="uni1795" unicode="&#x1795;" horiz-adv-x="680" 
d="M556 672q0 -36 -10 -67t-29 -53.5t-45 -35.5t-57 -13q-40 0 -90 29l-122 70l-59 -46q18 -2 31.5 -10t22 -18.5t13 -22t4.5 -19.5v-382l126 128l129 -128v85v190q0 9 -5.5 15.5t-16.5 6.5q-15 0 -24 -12.5t-9 -20.5q0 -6 5 -6t12.5 -3t14 -10.5t11.5 -19.5t5 -30
q0 -29 -12.5 -50t-38.5 -24h-8q-28 0 -42.5 22t-14.5 57q0 37 11 68t28.5 53.5t39.5 34.5t45 12h36q17 0 33 -13t16 -31v-428h-91l-128 127l-125 -127h-82v459q0 12 -14 20t-29 8q-13 0 -20.5 -5t-15.5 -11l-43 60l206 170h22q40 -31 71 -53t56.5 -36t46 -21.5t40.5 -10.5
q6 -1 11 1q20 5 29 20.5t9 31.5q0 14 -6 23.5t-12 9.5t-15.5 -2.5t-23.5 -2.5q-9 0 -12 1q-23 3 -34 18t-11 37v2q0 32 22.5 49t52.5 17h2q24 0 41.5 -9.5t29 -25t17.5 -36t6 -42.5z" />
    <glyph glyph-name="uni1796" unicode="&#x1796;" horiz-adv-x="680" 
d="M470 0v554l-61 47l-85 -83h-25l-92 84l-54 -49q11 0 28 -13t28 -27q4 -5 5 -8.5t1 -5.5v-428q13 0 24 8t19 18.5t12 21.5t4 18t-4 7q-5 0 -12.5 3t-14.5 10t-12 19t-5 30q0 27 6 42t13.5 22t15.5 8.5t12 1.5h5q29 0 46 -20.5t17 -58.5t-14 -74t-35 -64t-46 -45.5
t-48 -17.5h-20q-16 0 -32 12t-16 32v412q0 18 -15 35t-35 17v58l134 134h18l105 -90l86 90h19l114 -89v-611h-86z" />
    <glyph glyph-name="uni1797" unicode="&#x1797;" horiz-adv-x="680" 
d="M556 512l-123 88l-92 -83h-25l-110 84l-53 -49q17 -12 40.5 -31t37.5 -31q8 7 32 12.5t44 5.5h59q20 0 52 -5.5t63 -20.5t53 -41t22 -68v-373h-86v351q0 24 -11 40.5t-27.5 26t-36.5 13.5t-38 4h-37q-18 0 -36.5 -5t-34 -15.5t-25 -27t-9.5 -38.5v-305q0 -20 -15 -32
t-31 -12h-20q-23 0 -48 17t-46 45t-34.5 64t-13.5 74t18 58.5t47 20.5h3q4 0 12 -1.5t16 -9t14 -22t6 -41.5q0 -18 -5 -30.5t-11.5 -19.5t-14 -10t-13.5 -3q-4 0 -4 -8q0 -7 3.5 -18t10.5 -21.5t17 -18t24 -7.5v305q0 22 7 39t19 31l-76 63v56l134 137h24l118 -91l91 91h19
l105 -89q8 -5 15 -5q9 0 18 6l18 -26z" />
    <glyph glyph-name="uni1798" unicode="&#x1798;" horiz-adv-x="680" 
d="M470 268h-255v-132q0 -21 6 -34t15 -20t20 -9t22 -2h126q27 0 46 12t20 51v134zM580 534h-7q-16 16 -30 25.5t-32.5 17.5t-39.5 8q-8 0 -16 -5t-14.5 -12t-11.5 -14.5t-8 -11.5q15 3 28 3q25 0 44.5 -8t33.5 -21t21.5 -28t7.5 -29v-365q0 -45 -23 -69.5t-65 -24.5h-254
q-24 0 -40 9t-26 22t-14 28.5t-4 27.5v322q0 33 -13 46t-38 13q-18 0 -27.5 -2t-15.5 8t-12.5 23t-18.5 34l137 169h18l99 -68q4 -4 16 -4q9 0 17 5l18 -26l-74 -75q-5 0 -14 8t-22.5 18t-31 18t-39.5 8q-14 0 -27.5 -15t-21.5 -25l-2 -3q16 3 31 3q49 0 77.5 -26t28.5 -59
v-119h255v70q0 25 -13 44.5t-39 19.5q-8 0 -15.5 -1.5t-16.5 -3.5l-39 62l137 169h19l98 -66q8 -5 16 -5t17 6l19 -27z" />
    <glyph glyph-name="uni1799" unicode="&#x1799;" horiz-adv-x="1020" 
d="M917 532h-6q-14 15 -31 26q-14 10 -32.5 18t-39.5 8q-8 0 -15.5 -5t-14 -12t-12 -14.5t-8.5 -11.5q16 3 31 3q49 0 77.5 -26t28.5 -59v-362q0 -52 -24.5 -74.5t-66.5 -22.5h-199q-33 0 -54 12t-39 35q-16 -20 -30.5 -33.5t-40.5 -13.5h-213q-27 0 -45.5 8.5t-30.5 22
t-17 31.5t-5 38v557q0 17 15 30t32 13h32q23 0 45.5 -13.5t40 -37t28 -56t10.5 -70.5q0 -35 -14.5 -57t-42.5 -22h-5q-26 3 -40.5 24t-14.5 50q0 18 5 30.5t13 19.5t16.5 10t13.5 3q4 0 4 8q0 11 -9 25.5t-23 14.5q-11 0 -13 -3t-8 -11v-476q0 -32 14 -50t59 -18h108
q35 0 54.5 18t19.5 53v266q0 33 -13 46.5t-38 13.5q-13 0 -23.5 -3.5t-18.5 8.5q-6 11 -12.5 23.5t-18.5 34.5l137 169h18l95 -68q4 -4 16 -4q9 0 17 5l18 -26l-73 -75q-5 0 -13.5 8t-21 18t-29.5 18t-39 8q-14 0 -28 -15t-22 -25l-2 -3q16 3 31 3q49 0 77.5 -26t28.5 -59
v-317q0 -18 7.5 -31.5t19.5 -22t27 -13t30 -4.5h96q13 0 26 1.5t23.5 8t17.5 20.5t7 38v269q0 34 -14 47t-39 13q-7 1 -12.5 -0.5t-11 -2.5t-9.5 0.5t-8 8.5q-6 10 -12.5 22.5t-18.5 33.5l136 170h19l99 -68q4 -4 15 -4q9 0 17 5l9 -27z" />
    <glyph glyph-name="uni179A" unicode="&#x179a;" horiz-adv-x="340" 
d="M234 532q-5 0 -14 8t-22.5 18t-31 18t-39.5 8q-14 0 -27.5 -15t-21.5 -25l-2 -3q16 3 31 3q49 0 78.5 -26t29.5 -59v-415q0 -20 -15.5 -32t-31.5 -12h-20q-23 0 -48 17t-46 45.5t-34.5 64.5t-13.5 74t16.5 60.5t45.5 22.5h1q3 0 11.5 -1.5t18 -9t16.5 -23.5t7 -44
q0 -18 -5 -30.5t-11.5 -19.5t-14 -10t-13.5 -3q-4 0 -4 -8q0 -7 3.5 -18t10.5 -21.5t17.5 -18t23.5 -7.5v339q0 32 -14 45.5t-37 13.5q-18 0 -28 -2t-16 8t-12.5 23t-18.5 34l137 169h18l99 -68q4 -4 16 -4q9 0 17 5l18 -26z" />
    <glyph glyph-name="uni179B" unicode="&#x179b;" horiz-adv-x="1020" 
d="M922 533q-5 0 -14 8t-22.5 18t-31.5 18t-40 8q-8 0 -15.5 -5t-14.5 -11.5t-12.5 -14t-8.5 -12.5q16 3 31 3q49 0 75 -27t26 -60v-345q0 -30 -10 -51.5t-24 -35t-31 -20t-30 -6.5h-228q-54 0 -78 29t-24 68v447q0 24 -11 40.5t-27.5 26t-36 13.5t-37.5 4h-36
q-18 0 -37 -4.5t-34.5 -14.5t-25.5 -26t-10 -38v-474q13 0 23 7.5t17 18t10.5 21.5t3.5 18q0 8 -4 8q-5 0 -12.5 3t-14.5 10t-12 19.5t-5 30.5q0 27 6 42t14 22t16 8.5t12 1.5h9q27 0 43 -22t16 -57q0 -38 -13.5 -74t-34 -64.5t-45.5 -46t-48 -17.5h-20q-16 0 -31 12.5
t-15 32.5v520q0 31 15 56.5t38.5 43t52 27t55.5 9.5h87q20 0 50.5 -5.5t59 -20.5t48.5 -41.5t20 -68.5v-423q0 -32 16.5 -51t61.5 -19h106q70 0 70 70v267q0 33 -11.5 46.5t-35.5 13.5q-13 0 -24 -2.5t-17 7.5q-6 11 -13 23.5t-19 34.5l137 169h18l99 -67q8 -5 16 -5
q5 0 10.5 1.5t9.5 3.5l15 -26z" />
    <glyph glyph-name="uni179C" unicode="&#x179c;" horiz-adv-x="340" 
d="M297 700q0 -32 -11.5 -62.5t-28 -54t-34 -37.5t-28.5 -14q0 -1 -6.5 7t-18.5 18t-29 18.5t-39 8.5q-14 0 -27.5 -15t-20.5 -23l-3 -5q17 3 31 3q24 0 48 -7t43 -19t30.5 -27t11.5 -32v-415q0 -20 -15.5 -32t-31.5 -12h-20q-23 0 -48 17t-46 45.5t-34.5 64.5t-13.5 74
t18 58.5t47 20.5q7 0 15 -1.5t16 -9t14 -22t6 -41.5q0 -25 -7.5 -37t-16.5 -18t-16.5 -8.5t-7.5 -7.5q0 -7 4 -18t11 -21.5t17.5 -18t23.5 -7.5v339q0 18 -10 29.5t-24.5 18.5t-30.5 10t-27 3q-10 0 -16 -1t-11 -1l-10.5 21t-10.5 20.5t-12 21.5l137 169h18l88 -64
q6 -2 9 -2q8 0 16.5 8t8.5 26q0 16 -8 26.5t-22 10.5q-6 0 -14.5 -4.5t-19.5 -4.5q-23 0 -32 15t-9 31q0 15 7 24.5t17 15t21 8t20 2.5q20 0 35 -9.5t25.5 -23t16 -29.5t5.5 -30z" />
    <glyph glyph-name="uni179D" unicode="&#x179d;" horiz-adv-x="680" 
d="M664 289q-13 -22 -32.5 -39t-36.5 -25q-10 -5 -20 -7t-19 -5v-213h-86v218q-8 3 -21 5t-27 9q-23 12 -41 29t-18 34q0 20 14 35t34 15q17 0 29 -9t17 -23q4 -2 6.5 -4t6.5 -4v47q0 25 -11 41t-28 25.5t-37 13.5t-38 4h-36q-18 0 -36.5 -5t-34 -15.5t-25 -26.5t-9.5 -38
v-198q22 42 39.5 64.5t31.5 33t25 12.5t19 2q28 0 42.5 -15.5t14.5 -34.5q0 -20 -10.5 -36t-35.5 -16q-31 0 -47 -10t-32 -27q-14 -16 -23 -32t-14.5 -30t-7.5 -23.5t-2 -12.5v-28h-85v376q0 21 6.5 38t18.5 31q-5 4 -16.5 13.5t-23.5 19.5t-22.5 18.5t-13.5 11.5v57
l135 135h24l118 -89l90 89h19l108 -87q8 -5 15 -5q9 0 18 6l18 -27l-68 -74h-10l-113 89l-93 -84h-24l-110 84l-53 -49q8 -6 18.5 -14t21 -16.5t20.5 -16.5t17 -14q8 6 32.5 11.5t44.5 5.5h59q20 0 52 -5.5t63 -20.5t53 -41t22 -68v-92q9 -3 14 -3t9.5 1t9.5 2
q10 1 19.5 6.5t17 10.5t12 9t26.5 -19z" />
    <glyph glyph-name="uni179E" unicode="&#x179e;" horiz-adv-x="680" 
d="M666 353q-12 -21 -29 -41q-14 -17 -34.5 -36t-46.5 -33v-149q0 -45 -24 -69.5t-66 -24.5h-252q-24 0 -40 9t-26 22t-14 28.5t-4 27.5v322q0 33 -12.5 46t-37.5 13q-18 0 -27.5 -2t-15.5 8t-12.5 23t-18.5 34l137 169h18l99 -68q4 -4 16 -4q9 0 17 5l18 -26l-74 -75
q-5 0 -14 8t-22.5 18t-31 18t-39.5 8q-14 0 -27.5 -15t-21.5 -25l-2 -3q16 3 31 3q49 0 77 -26t28 -59v-323q0 -21 6 -34t15.5 -20t20.5 -9t22 -2h141q27 0 38.5 12t11.5 51v91h-15q-52 0 -85.5 11t-59.5 24h-5q-28 0 -47.5 19t-19.5 47q0 27 19.5 46.5t47.5 19.5
q23 0 41 -14.5t24 -35.5q24 -13 45 -22.5t44 -9.5h11v100q0 26 -14 41.5t-40 15.5q-8 0 -14.5 -2.5t-15.5 -4.5l-38 71l134 169h19l98 -66q8 -5 16 -5q4 0 12 1.5t13 4.5l11 -27l-73 -74h-7q-16 16 -29 25.5t-31.5 17.5t-39.5 8q-8 0 -16 -5t-15 -12t-12.5 -14.5t-8.5 -11.5
q15 3 28 3q25 0 45 -8t34 -21t22 -28t8 -29v-136q15 0 30 8.5t27 19.5q14 12 27 28z" />
    <glyph glyph-name="uni179F" unicode="&#x179f;" horiz-adv-x="1020" 
d="M916 532q-5 0 -13.5 8t-21.5 18t-30.5 18t-39.5 8q-8 0 -15.5 -5t-14.5 -11.5t-12.5 -14t-8.5 -12.5q16 3 31 3q49 0 76.5 -26t27.5 -59v-345q0 -30 -10.5 -52t-25.5 -35.5t-32 -20t-30 -6.5h-226q-54 0 -77.5 30t-23.5 69v264q-2 22 -13 36t-27.5 22t-35.5 11t-36 3h-36
q-18 0 -37 -4.5t-34.5 -14.5t-25.5 -25.5t-10 -37.5v-283q13 0 23 7.5t17 18t10.5 21.5t3.5 18q0 8 -4 8q-5 0 -12.5 3t-14.5 10t-12 19.5t-5 30.5q0 23 6 37.5t14 22.5t16 11t12 3h9q27 0 43 -22t16 -57q0 -38 -13.5 -74t-34 -64.5t-45.5 -45.5t-48 -17h-20q-16 0 -31 12
t-15 32v331q0 29 15.5 52t38.5 40q-9 4 -19 4q-7 0 -12 -2t-9.5 -3t-8.5 0t-8 8q-6 10 -13 23t-19 34l137 169h18l108 -67q8 -5 16 -5q7 0 16 6l19 -27l-73 -74q-5 0 -16.5 8t-28 18t-36.5 18t-41 8q-14 0 -25 -15t-19 -25l-2 -3q4 1 7.5 1.5t8.5 0.5q28 0 55.5 -12.5
t41.5 -25.5q4 1 7 1.5t7 0.5h13h59q20 0 52 -5.5t62.5 -20.5t52.5 -41t22 -68v-234q0 -32 16.5 -50t61.5 -18h103q73 0 73 72v265q0 33 -18 46.5t-42 13.5q-13 0 -16 -2.5t-9 7.5q-6 11 -16 23.5t-22 34.5l137 169h18l96 -67q8 -5 16 -5q9 0 17 5l9 -26z" />
    <glyph glyph-name="uni17A0" unicode="&#x17a0;" horiz-adv-x="1020" 
d="M810 0v544q0 22 -9.5 38t-24 26t-33 14.5t-36.5 4.5h-67q-18 0 -33.5 -3.5t-26.5 -12.5t-17.5 -25t-6.5 -40v-447q0 -20 -5.5 -37.5t-17 -31.5t-30.5 -22t-46 -8h-229q-14 0 -31 6.5t-32 20t-25 35.5t-10 52v294q0 33 -14 46.5t-39 13.5q-7 1 -12.5 -0.5t-11 -2.5
t-9.5 0.5t-8 8.5q-6 10 -13 23t-19 34l137 169h19l99 -67q8 -5 15 -5q8 0 17 6l19 -27l-73 -74h-6q-14 15 -31 26q-14 10 -32.5 18t-39.5 8q-8 0 -15.5 -5t-14 -12t-12 -14.5t-8.5 -11.5q16 3 31 3q24 0 44 -7.5t33.5 -19.5t21 -27.5t7.5 -31.5v-316q0 -72 73 -72h98
q45 0 64.5 18t19.5 50v426q0 42 22.5 68t53 41t63 20.5t52.5 5.5h64q27 0 57 -7t55 -22.5t41.5 -41.5t16.5 -63v-566h-85z" />
    <glyph glyph-name="uni17A1" unicode="&#x17a1;" horiz-adv-x="935" 
d="M556 416q0 -10 -6.5 -20t-15.5 -18.5t-19 -13.5t-18 -5h-19q-23 0 -45.5 6.5t-40.5 21.5t-29 40.5t-11 62.5q0 38 17.5 57.5t39.5 19.5t39 -16.5t17 -55.5q0 -24 -7 -36.5t-15.5 -18.5t-15.5 -8t-7 -6q0 -5 5.5 -10.5t16.5 -6.5h3q2 -1 11 -1q7 0 10.5 4t3.5 16v114
q0 23 -9 39t-24 26t-33 15t-36 5h-48q-18 0 -36.5 -4t-34 -13t-25 -25t-9.5 -40v-144q0 -30 14.5 -51t37 -34t50.5 -19.5t55 -8.5h28q0 17 10.5 27.5t23.5 15.5t23.5 6.5t11.5 1.5q11 0 23.5 -3.5t23 -11t17 -19.5t6.5 -30q0 -12 -6 -23.5t-15.5 -20.5t-22 -15t-25.5 -7
v-137q0 -21 -8 -35t-19 -22t-22.5 -11.5t-19.5 -3.5h-110q-7 0 -20 3.5t-25.5 12t-21.5 22t-9 33.5v126l34 15h23l28 -16v-90q0 -14 11.5 -25.5t28.5 -11.5h15q16 0 23.5 11t7.5 28v106h-28q-34 3 -74 11t-74.5 26t-57 47t-22.5 74v192q0 42 19.5 68.5t47 41.5t57.5 20.5
t50 5.5h78q27 0 57.5 -9t56.5 -26.5t43 -42.5t17 -57v-149zM832 533h-6q-23 22 -45 35.5t-56 15.5q-8 0 -15.5 -5t-14.5 -11.5t-12.5 -13.5t-8.5 -12q17 3 30 3q24 0 44 -7.5t33.5 -19.5t21 -27.5t7.5 -31.5v-962h-92l-127 129l-127 -129h-78v306q0 9 -7.5 17t-18.5 8
q-14 0 -21 -9.5t-7 -16.5q0 -4 8 -6t18 -7.5t18 -16t8 -30.5q0 -24 -16 -42t-38 -21h-6q-23 0 -33.5 19t-10.5 49q0 32 10 58.5t26.5 45t38.5 29t45 10.5h21q17 0 33 -8.5t16 -25.5v-252l125 127l130 -129v807q0 32 -13 46t-36 14q-8 0 -13.5 -1t-10.5 -1q-6 0 -20 17
t-31 47l136 169h19l99 -67q8 -5 15 -5q8 0 17 6l19 -27z" />
    <glyph glyph-name="uni17A2" unicode="&#x17a2;" horiz-adv-x="680" 
d="M578 532q-5 0 -14 8t-22.5 18t-31 18t-39.5 8q-14 0 -27.5 -15t-21.5 -25l-2 -3q16 3 31 3q49 0 77 -26t28 -59v-412q0 -20 -10 -33.5t-44 -13.5h-18q-23 0 -46.5 17t-43 45.5t-32 64.5t-12.5 74t18 58.5t47 20.5h3q4 0 12 -1.5t16 -9t14 -22t6 -41.5q0 -18 -5 -30.5
t-11.5 -19.5t-14 -10t-13.5 -3q-4 0 -4 -8q0 -7 3 -18t9.5 -21.5t16.5 -18t23 -7.5v230h-255v-256q0 -20 -14.5 -32t-30.5 -12h-20q-23 0 -48 17t-46 45.5t-34.5 64.5t-13.5 74t18 58.5t47 20.5h3q4 0 12 -1.5t16 -9t14 -22t6 -41.5q0 -18 -5 -30.5t-11.5 -19.5t-14 -10
t-13.5 -3q-4 0 -4 -8q0 -7 3.5 -18t10.5 -21.5t17 -18t23 -7.5v339q0 32 -13.5 45.5t-36.5 13.5q-18 0 -28 -2t-16 8t-12.5 23t-18.5 34l137 169h18l99 -68q4 -4 16 -4q9 0 17 5l18 -26l-74 -75q-5 0 -14 8t-22.5 18t-31 18t-39.5 8q-14 0 -27.5 -15t-21.5 -25l-2 -3
q16 3 31 3q49 0 77.5 -26t28.5 -59v-91h255v41q0 32 -12.5 45.5t-35.5 13.5q-19 0 -28.5 -2t-15.5 8t-12.5 23t-18.5 34l137 169h18l99 -68q4 -4 16 -4q9 0 17 5l18 -26z" />
    <glyph glyph-name="uni17A3" unicode="&#x17a3;" horiz-adv-x="680" 
d="M578 532q-5 0 -14 8t-22.5 18t-31 18t-39.5 8q-14 0 -27.5 -15t-21.5 -25l-2 -3q16 3 31 3q49 0 77 -26t28 -59v-415q0 -10 -1 -18t-5.5 -14t-14 -9t-26.5 -3h-17q-23 0 -48.5 17t-46.5 45.5t-35 64.5t-14 74t18 58.5t47 20.5h3q4 0 12 -1.5t16 -9t14 -22t6 -41.5
q0 -18 -5 -30.5t-11.5 -19.5t-14 -10t-13.5 -3q-4 0 -4 -8q0 -7 3.5 -18t10.5 -21.5t17 -18t23 -7.5v230h-255v-256q0 -20 -14.5 -32t-30.5 -12h-20q-23 0 -48 17t-46 45.5t-34.5 64.5t-13.5 74t18 58.5t47 20.5h3q4 0 12 -1.5t16 -9t14 -22t6 -41.5q0 -18 -5 -30.5
t-11.5 -19.5t-14 -10t-13.5 -3q-4 0 -4 -8q0 -7 3.5 -18t10.5 -21.5t17 -18t23 -7.5v339q0 32 -13.5 45.5t-36.5 13.5q-18 0 -28 -2t-16 8t-12.5 23t-18.5 34l137 169h18l99 -68q4 -4 16 -4q9 0 17 5l18 -26l-74 -75q-5 0 -14 8t-22.5 18t-31 18t-39.5 8q-14 0 -27.5 -15
t-21.5 -25l-2 -3q16 3 31 3q49 0 77.5 -26t28.5 -59v-90h255v40q0 32 -12.5 45.5t-35.5 13.5q-19 0 -28.5 -2t-15.5 8t-12.5 23t-18.5 34l137 169h18l99 -68q4 -4 16 -4q9 0 17 5l18 -26z" />
    <glyph glyph-name="uni17A4" unicode="&#x17a4;" horiz-adv-x="1020" 
d="M895 0h-85v505l-177 104l-129 -69l52 -51v-445q0 -20 -15.5 -32t-31.5 -12h-17q-23 0 -49 17t-48 45.5t-36.5 64.5t-14.5 74t18 58.5t47 20.5h3q4 0 12 -1.5t16 -9t14 -22t6 -41.5q0 -18 -5 -30.5t-11.5 -19.5t-14 -10t-13.5 -3q-4 0 -4 -7t4 -18t11.5 -21.5t18 -18.5
t24.5 -8v230h-255v-256q0 -20 -14.5 -32t-30.5 -12h-20q-23 0 -49 17t-48 45.5t-36 64.5t-14 74t18 58.5t47 20.5h3q4 0 12 -1.5t16.5 -9t14.5 -22t6 -41.5q0 -18 -5 -30.5t-12 -19.5t-14.5 -10t-13.5 -3q-5 0 -5 -9q0 -7 4.5 -18t12.5 -21t19 -17.5t24 -7.5v339
q0 32 -13.5 45.5t-36.5 13.5q-18 0 -28 -2t-16 8t-12.5 23t-18.5 34l137 169h18l99 -68q4 -4 16 -4q9 0 17 5l18 -26l-74 -75q-5 0 -14 8t-22.5 18t-31 18t-39.5 8q-14 0 -27.5 -15t-21.5 -25l-2 -3q16 3 31 3q49 0 77.5 -26t28.5 -59v-90h255v89l-51 50v62l221 130h36
l219 -130v-570z" />
    <glyph glyph-name="uni17A5" unicode="&#x17a5;" horiz-adv-x="680" 
d="M566 672q0 -89 -39.5 -126.5t-102.5 -37.5q-20 0 -42.5 8t-47.5 22l-102 57l-68 -52q17 -12 35.5 -26.5t32.5 -26.5q8 7 32 12.5t44 5.5h59q20 0 52 -5.5t62.5 -20.5t52.5 -41t22 -68v-373h-86v351q0 24 -11 40.5t-27.5 26t-36 13.5t-37.5 4h-37q-18 0 -37 -5t-34 -15.5
t-25 -27t-10 -38.5v-278q13 0 23.5 7.5t17.5 17.5t10.5 21t3.5 18q0 9 -4 9q-5 0 -12.5 3t-14.5 10t-12 19t-5 30q0 21 6 35.5t14 23t16 12t12 3.5h3q29 0 47 -20.5t18 -58.5t-13.5 -74t-34 -64t-45.5 -45.5t-48 -17.5h-20q-16 0 -31.5 12t-15.5 32v330q0 22 7.5 39t19.5 31
q-6 4 -13.5 10t-14.5 11.5t-13 9.5t-7 5q-3 3 -11.5 -1.5t-11.5 -8.5l-57 54l205 176h19l118 -74q14 -11 29 -20q13 -8 28 -13.5t30 -5.5q10 0 13 1q20 5 28.5 19.5t8.5 28.5q0 12 -6 20.5t-17 8.5q-1 0 -10 -2t-22 -2h-7q-4 0 -6 1q-23 2 -37.5 17t-14.5 37v2
q0 16 7.5 27.5t19 18.5t26.5 10.5t30 3.5q19 0 36.5 -8t30.5 -22.5t20.5 -34t7.5 -41.5z" />
    <glyph glyph-name="uni17A6" unicode="&#x17a6;" horiz-adv-x="935" 
d="M471 -343q-8 -2 -13 -6t-9 -11.5t-4 -20.5q0 -20 8 -28.5t18 -10.5v77zM470 0v546q0 24 -11 40t-27.5 25t-36.5 12.5t-38 3.5h-36q-18 0 -37 -4.5t-34 -14.5t-25 -26t-10 -38v-473q13 0 23 7.5t17 17.5t10.5 21t3.5 18q0 9 -5 9t-12.5 3t-15 10t-13 19.5t-5.5 30.5
q0 27 6.5 42t14.5 22t16.5 8.5t12.5 1.5h9q27 0 43 -22t16 -57q0 -38 -13.5 -74t-34 -64.5t-45.5 -46t-48 -17.5h-20q-16 0 -30.5 12t-14.5 32v522q0 31 17.5 56t44 42.5t57.5 26.5t58 9h59q20 0 52.5 -5.5t63 -20.5t52.5 -41t22 -68v-565h-86zM810 -503h-85
q-22 39 -39.5 65t-35.5 44t-40 30t-54 21v-126q0 -8 -8.5 -21t-23.5 -13h-42q-23 0 -40 9.5t-29 25.5t-18.5 37t-8.5 45v9q0 25 8 46t21 36t27.5 23.5t28.5 8.5v43q0 7 -7.5 16t-23 17.5t-39 14.5t-54.5 6q-66 0 -99.5 -18t-33.5 -38v-219q2 -1 5 -1h7q20 0 30 12.5t10 21.5
q0 6 -4 6q-5 0 -11.5 2.5t-12.5 9t-10 18t-4 29.5q0 24 5.5 37.5t13 20t14.5 8t10 1.5h7q22 0 34.5 -18.5t12.5 -53.5q0 -38 -14 -67t-33.5 -48.5t-42 -29.5t-38.5 -10h-22q-16 0 -28.5 17t-12.5 39v251q0 21 18.5 37t48.5 27t68.5 16.5t79.5 5.5q42 0 80 -6t67.5 -17.5
t46.5 -27t17 -33.5v-66q37 -15 70 -33q28 -16 56.5 -37t42.5 -47v1183q0 28 -12.5 45.5t-31 27t-41 13t-41.5 3.5q-18 0 -40.5 -3.5t-42.5 -11t-33.5 -19.5t-13.5 -29v-32h-87v70q0 18 -4.5 35t-15.5 33q-8 11 -16.5 15t-16 6.5t-13 6t-7.5 14.5l-1 7q0 19 15 29.5t32 10.5
q22 0 41.5 -10t34.5 -25.5t24.5 -35.5t12.5 -39q21 17 57 27t74 10q51 0 90 -10t66 -27t41 -39.5t14 -47.5v-1333z" />
    <glyph glyph-name="uni17A7" unicode="&#x17a7;" horiz-adv-x="680" 
d="M530 -17h-35l-25 18v102q-9 -15 -26.5 -33t-39 -33.5t-44 -26t-41.5 -10.5h-102q-51 0 -69 18.5t-18 53.5v132q0 38 22.5 57.5t57.5 30.5q30 9 66 18t70 20t63 25.5t46 34.5q8 11 11.5 23.5t3.5 29.5v103q0 24 -9 40t-23.5 25t-32.5 12.5t-36 3.5h-49q-18 0 -36.5 -4.5
t-34 -14.5t-25 -26t-9.5 -38v-125q0 -24 19 -24q5 0 11 3q10 5 16.5 14.5t6.5 16.5q0 4 -3 6q-6 0 -13.5 3t-14 10t-11.5 19.5t-5 30.5q0 39 18.5 55.5t40.5 16.5t39.5 -19.5t17.5 -57.5t-13.5 -66.5t-34.5 -48t-46 -29.5t-48 -10h-20q-16 0 -30.5 15t-14.5 35v177
q0 31 17.5 56t43.5 42.5t57.5 26.5t58.5 9h96q20 0 46.5 -5.5t50 -20.5t40 -41t16.5 -68v-151q0 -26 -9.5 -44.5t-23.5 -32.5q-24 -23 -59 -39.5t-73 -29t-74.5 -22.5t-62.5 -20q-17 -7 -28 -17t-11 -25v-59q0 -29 13.5 -41t37.5 -12h54q24 0 50 17t48.5 41t37 50.5
t14.5 45.5v46l30 16h24l32 -15v-271z" />
    <glyph glyph-name="uni17A8" unicode="&#x17a8;" horiz-adv-x="680" 
d="M569 795h-6l-113 88l-84 -83h-35l-108 84l-54 -49q10 -8 13 -11t3 -5q0 -1 -1 -1l-34 -29l-57 53l143 133h19l115 -92l93 92h19l108 -91q8 -5 15 -5q9 0 18 6l17 -16zM530 -18h-35l-24 18v102q-9 -15 -27 -33t-39.5 -33t-44 -25.5t-41.5 -10.5h-102q-51 0 -69 18t-18 53
v133q0 38 22.5 57.5t57.5 30.5q30 9 66 18t70 20t63 25.5t46 34.5q8 11 12 23.5t4 29.5v103q0 24 -9 40t-24 25t-33 12.5t-36 3.5h-49q-18 0 -36.5 -4.5t-34 -14.5t-25 -26t-9.5 -38v-125q0 -24 19 -24q5 0 11 3q10 5 16.5 14.5t6.5 16.5q0 4 -3 6q-6 0 -13.5 3t-14 10
t-11.5 19.5t-5 30.5q0 39 18.5 55.5t40.5 16.5t39.5 -19.5t17.5 -57.5t-13.5 -66.5t-34.5 -48t-46 -29.5t-48 -10h-20q-16 0 -30.5 15t-14.5 35v177q0 31 16.5 56t41.5 42.5t55.5 26.5t57.5 9h80q20 0 50 -5.5t57.5 -20.5t47.5 -41t20 -68v-151q0 -26 -9.5 -44.5
t-23.5 -32.5q-24 -23 -59 -39.5t-72.5 -29t-74 -22.5t-62.5 -20q-17 -7 -28.5 -17t-11.5 -25v-60q0 -29 14 -41t38 -12h53q24 0 50.5 17t49 41t37 50.5t14.5 45.5v47l29 16h24l32 -15v-272z" />
    <glyph glyph-name="uni17A9" unicode="&#x17a9;" horiz-adv-x="765" 
d="M556 413q0 -26 -10 -44.5t-24 -32.5q-24 -23 -59 -39.5t-72.5 -29t-73.5 -22.5t-62 -20q-17 -7 -28.5 -17t-11.5 -25v-58q0 -29 14 -41t38 -12h93q23 0 38.5 14.5t25 34t13.5 39t4 29.5v51l30 17h29l32 -16v-255l-24 -18h-40l-24 18v70q-16 -19 -39.5 -37.5t-60.5 -18.5
h-123q-52 0 -71.5 18.5t-19.5 53.5v131q0 38 22.5 57.5t57.5 30.5q30 9 65.5 18t69.5 20t62.5 25.5t45.5 34.5q8 11 12.5 23.5t4.5 29.5v103q0 24 -9 40t-23.5 25t-32.5 12.5t-36 3.5h-49q-18 0 -36.5 -4.5t-34 -14.5t-25 -26t-9.5 -38v-125q0 -24 19 -24q5 0 11 3
q10 5 16.5 14.5t6.5 16.5q0 4 -3 6q-6 0 -13.5 3t-14 10t-11.5 19.5t-5 30.5q0 39 18.5 53.5t40.5 14.5t39.5 -17.5t17.5 -55.5t-13.5 -66.5t-34.5 -48t-46 -29.5t-48 -10h-20q-16 0 -30.5 15t-14.5 35v177q0 31 16 56t40.5 42.5t54 26.5t56.5 9h100q20 0 47.5 -5.5
t52 -20.5t42 -41t17.5 -68v-151zM618 -32h-42l-20 18v254l25 17h30l29 -16v-255z" />
    <glyph glyph-name="uni17AA" unicode="&#x17aa;" horiz-adv-x="680" 
d="M556 890q0 -36 -10 -67t-28 -53.5t-43.5 -35.5t-56.5 -13q-20 0 -43.5 6t-46.5 23l-69 50l-54 -40q21 -19 39.5 -33t34.5 -29h3q7 1 13 1.5t12 0.5h97q20 0 46.5 -5.5t50 -20.5t39.5 -41t16 -68v-148q0 -26 -10 -44.5t-24 -32.5q-24 -23 -59 -39.5t-72.5 -29t-73.5 -22.5
t-62 -20q-17 -7 -28.5 -16.5t-11.5 -23.5v-64q0 -29 14.5 -41t38.5 -12h53q24 0 50 16.5t48 40.5t36.5 50t14.5 45v51l30 16h23l33 -15v-300l-24 -19h-34l-28 18v128q-9 -15 -26.5 -33t-38.5 -33.5t-43.5 -26t-41.5 -10.5h-106q-50 0 -67 18.5t-17 53.5v135q0 38 22.5 57.5
t57.5 30.5q30 9 66 18t70 20t63 25.5t46 34.5q8 11 11.5 23t3.5 30v100q0 24 -9 40t-23.5 25t-32.5 12.5t-36 3.5h-49q-18 0 -36.5 -4.5t-34 -14.5t-25 -26t-9.5 -38v-122q0 -24 19 -24q5 0 11 3q10 5 16.5 14.5t6.5 16.5q0 4 -3 6q-6 0 -13.5 3t-14 10t-11.5 19.5t-5 30.5
q0 39 18.5 54t40.5 15t39.5 -18t17.5 -56t-13.5 -66.5t-34.5 -48t-46 -29.5t-48 -10h-20q-16 0 -30.5 15t-14.5 35v174q0 33 18.5 58.5t46.5 42.5l-47 41l-8 -6q-3 -3 -9.5 -8.5t-12.5 -10.5t-11 -9t-6 -5l-43 61l216 169h19q24 -21 45 -39.5t40.5 -32.5t38 -22t36.5 -7
q9 0 11 1q20 5 29 21t9 32q0 13 -5.5 22.5t-16.5 9.5q-2 0 -11.5 -2.5t-23.5 -2.5q-9 0 -12 1q-23 3 -35 21t-12 40v2q0 32 23.5 46.5t53.5 14.5h2q24 0 41 -9.5t28 -25.5t16.5 -36.5t5.5 -42.5z" />
    <glyph glyph-name="uni17AB" unicode="&#x17ab;" horiz-adv-x="680" 
d="M556 -68q0 -45 -7 -76.5t-30 -65.5q-26 -38 -65 -56.5t-84 -19.5h-3q-39 0 -66.5 10.5t-47 27t-32.5 36.5t-22.5 38.5t-17 33t-16.5 20.5q-10 6 -21 10t-25 4h-10q-4 0 -10 -2q-8 -2 -21 -6l-11 25l2 2q4 4 12 10.5t18.5 12.5t23.5 10.5t28 4.5h2q38 -1 62.5 -15
t41.5 -37t30 -41t26.5 -32t29.5 -22.5t39 -11.5q3 -1 14 -1q15 0 32 4t30 14q6 6 9 31t3.5 55.5t-0.5 60t-1 44.5h-255q-24 0 -40 9t-26 22t-14 28.5t-4 27.5v322q0 32 -13 45.5t-36 13.5q-18 0 -28 -2t-16 8t-12.5 23t-18.5 34l137 169h18l99 -68q4 -4 16 -4q9 0 17 5
l18 -26l-74 -75q-5 0 -14 8t-22.5 18t-31 18t-39.5 8q-14 0 -27.5 -15t-21.5 -25l-2 -3q16 3 31 3q49 0 77 -26t28 -59v-323q0 -21 6 -34t15.5 -20t20.5 -9t22 -2h151q27 0 33.5 12t6.5 51v276q0 26 -14 41.5t-42 15.5q-7 0 -13.5 -0.5t-14.5 -2.5l-38 67l137 169h19l98 -66
q8 -5 16 -5t17 6l19 -27l-74 -74h-7q-17 16 -30.5 25.5t-32 17.5t-39.5 8q-8 0 -15.5 -5t-14 -12t-11.5 -14.5t-8 -11.5q15 3 28 3q25 0 44.5 -8t33 -20.5t21 -28t7.5 -29.5v-166q0 -64 -0.5 -104t-0.5 -60v-32v-19t0.5 -23t0.5 -43v-80z" />
    <glyph glyph-name="uni17AC" unicode="&#x17ac;" horiz-adv-x="680" 
d="M675 -264q0 -37 -34 -53q-7 -4 -19 -4q-18 0 -35 13t-33 30t-30.5 33t-29.5 22q-26 -26 -59 -39t-70 -14h-3q-39 0 -66.5 10.5t-47 27t-32.5 36.5t-22.5 38.5t-17 33t-16.5 20.5q-10 6 -21 10t-25 4h-10q-4 0 -10 -2q-8 -2 -21 -6l-11 25l2 2q4 4 12 10.5t18.5 12.5
t23.5 10.5t28 4.5h2q38 -1 62.5 -15t41.5 -37t30 -41t26.5 -32t29.5 -22.5t39 -11.5q12 -6 24.5 -4t23.5 7t19.5 11t11.5 9q5 6 9.5 15t4.5 15v145h-6h-250q-24 0 -40 9t-26 22t-14 28.5t-4 27.5v322q0 32 -13 45.5t-36 13.5q-18 0 -28 -2t-16 8t-12.5 23t-18.5 34l137 169
h18l99 -68q4 -4 16 -4q9 0 17 5l18 -26l-74 -75q-5 0 -14 8t-22.5 18t-31 18t-39.5 8q-14 0 -27.5 -15t-21.5 -25l-2 -3q16 3 31 3q49 0 77 -26t28 -59v-323q0 -21 6 -34t15.5 -20t20.5 -9t22 -2h141q27 0 38.5 12t11.5 51v276q0 26 -14 41.5t-42 15.5q-7 0 -13.5 2t-14.5 0
l-38 62l132 169h19l98 -66q8 -5 16 -5t17 6l10 -27l-65 -74h-7q-16 16 -29.5 25.5t-32 17.5t-39.5 8q-8 0 -15 -5t-12.5 -12t-10 -14.5t-7.5 -11.5q8 2 12 2.5t11 0.5q25 0 45.5 -8t35 -20.5t22.5 -28t8 -29.5v-365v-70v-59q0 -29 -0.5 -56t-0.5 -58q15 -3 24.5 -14
t18 -22.5t18.5 -21t26 -9.5q8 0 11 1h2q8 0 13.5 -9.5t6.5 -23.5v-16z" />
    <glyph glyph-name="uni17AD" unicode="&#x17ad;" horiz-adv-x="680" 
d="M556 -76q0 -48 -14 -87.5t-40 -68t-62 -44t-81 -16.5h-3q-39 0 -66.5 10.5t-47 27t-32.5 36.5t-22.5 38.5t-17 33t-16.5 20.5q-10 6 -21 10t-25 4h-10q-5 0 -12 -2t-19 -6l-9 27q4 4 12 10.5t18.5 12.5t23.5 10.5t28 4.5h2q38 -1 62.5 -15t41.5 -37q19 -25 33 -46.5
t29 -37.5t34 -25t48 -9h23q16 0 26.5 -2t17 12.5t9 55.5t3.5 127.5t1 228v356.5l-60 47l-87 -83h-25l-96 84l-48 -49q6 0 16.5 -6t20 -14.5t17 -18t7.5 -15.5v-427q14 0 24 7.5t17 17.5t10.5 21t3.5 18q0 6 -7.5 8.5t-16.5 8t-16.5 17.5t-7.5 37q0 27 6 42t14 22t16 8.5
t12 1.5h3q29 0 47 -20.5t18 -58.5q0 -37 -13.5 -73.5t-34 -64.5t-45.5 -45.5t-48 -17.5h-20q-16 0 -31.5 12t-15.5 32v411q0 18 -14.5 35t-34.5 17v56l133 137h19l105 -91l86 91h19l113 -90l-1 -610q2 -7 2 -14v-15q0 -11 -0.5 -23.5t-0.5 -23.5z" />
    <glyph glyph-name="uni17AE" unicode="&#x17ae;" horiz-adv-x="680" 
d="M677 -278q0 -7 -2.5 -16.5t-7.5 -17.5t-12.5 -14t-17.5 -6q-24 0 -42 12t-33.5 28t-31 31.5t-34.5 23.5q-26 -26 -59 -39t-70 -14q-14 0 -35.5 13.5t-47.5 33.5t-53.5 43t-51.5 43t-41 33.5t-22 13.5h-10q-5 0 -12 -2t-19 -6l-9 27q4 4 12 10.5t18.5 12.5t23.5 10.5
t28 4.5t39 -12.5t52.5 -31t57.5 -40t53 -40t38.5 -30.5t20 -12t16 4.5t18.5 10t12 9.5q2 6 5.5 12t6.5 12.5t3 11.5v713l-60 47l-112 -83l-96 84l-48 -49q6 0 16.5 -6t20 -14t17 -17.5t7.5 -16.5v-428q14 0 24 7.5t17 17.5t10.5 21t3.5 18q0 6 -7.5 8.5t-16.5 8t-16.5 17.5
t-7.5 37q0 27 6 42t14 22t13.5 8.5t14.5 1.5q32 0 50 -20.5t18 -58.5q0 -37 -13.5 -73.5t-34 -64.5t-45.5 -45.5t-48 -17.5h-20q-16 0 -31.5 12t-15.5 32v412q0 18 -14.5 35t-34.5 17l133 192l124 -90l105 90l113 -89v-611v-28v-52q0 -26 -3 -44.5t-10 -38.5q15 -3 27 -14
t23 -22.5t23 -21t28 -9.5q9 0 11 1h2q8 0 13.5 -15t6.5 -29v-5z" />
    <glyph glyph-name="uni17AF" unicode="&#x17af;" horiz-adv-x="680" 
d="M463 0l-123 127l-127 -127h-83v417q0 6 -5.5 13t-16.5 7q-14 0 -20 -13t-6 -23q0 -9 4 -9t10.5 -2.5t12 -8.5t10 -16.5t4.5 -26.5q0 -50 -43 -50q-16 0 -32.5 21t-16.5 53q0 66 32.5 101.5t80.5 35.5h21q7 0 16 -5t16.5 -12t12.5 -14.5t5 -13.5v-362l129 126l126 -127
v398q0 74 -48 103q-13 8 -28 15t-37 7q-24 0 -56 -11q-15 -6 -38 -19.5t-55 -32.5q-27 -15 -42 -15q-18 0 -27 13t-9 32v133q-5 -3 -8 -3q-9 0 -16 11t-7 26v2q0 18 15 34t56 16q17 0 31 -13t14 -31v-51v-33q0 -12 0.5 -19t1.5 -12q1 -6 7 -4t14 6.5t16.5 10.5t14.5 9
q23 12 42 23t40 13q2 1 12 1h12h15q35 0 58.5 -12t46.5 -27q13 -9 24 -21t19.5 -25t13 -26t4.5 -23v-566h-93z" />
    <glyph glyph-name="uni17B0" unicode="&#x17b0;" horiz-adv-x="680" 
d="M478 -103q-23 -18 -51.5 -27.5t-59 -16t-60 -12t-52.5 -13.5q-17 -6 -28 -18t-11 -28v-29q0 -41 52 -41h11q9 0 18.5 7.5t17.5 19.5t15 27.5t11 30.5q3 13 3 25q31 8 32 2q1 -4 4.5 -8.5t5.5 -9.5q4 -10 8.5 -21.5t10.5 -21t13.5 -16t17.5 -6.5q15 0 23.5 15t12.5 36
t5 44.5t1 40.5v20zM556 -186q0 -32 -5 -64.5t-18 -58.5t-35.5 -42.5t-58.5 -16.5h-2q-13 0 -26.5 5t-25.5 12t-21.5 15.5t-13.5 16.5q-8 14 -16 3q-5 -8 -14 -18t-20 -19t-23 -15.5t-23 -6.5h-40q-19 0 -34.5 8t-26.5 21.5t-17 30.5t-6 35v88q0 38 23 58t57 31q17 5 43.5 10
t55 10.5t57.5 13t52 17t37.5 22t14.5 28.5v555l-61 47l-87 -83h-25l-83 84l-61 -49q11 0 28 -12t28 -26q4 -5 5 -8.5t1 -5.5v-429q13 0 23.5 7.5t17 17.5t10 21t3.5 18q0 9 -4 9q-5 0 -12.5 3t-14.5 10t-12 19t-5 30q0 27 6 42t14 22t16 8.5t12 1.5h3q29 0 47 -20.5
t18 -58.5t-13.5 -74t-34 -64t-45.5 -45.5t-48 -17.5h-20q-16 0 -31 12t-15 32v413q0 18 -15 35t-35 17v56l134 134h18l105 -90l86 90h19l114 -89v-796z" />
    <glyph glyph-name="uni17B1" unicode="&#x17b1;" horiz-adv-x="680" 
d="M547 680q-6 4 -16 11.5t-20 18.5q0 1 2 6.5t7 19.5l-7 12q-12 15 -30 31.5t-41 31t-51 24t-59 9.5h-43q-19 0 -42.5 -8t-44 -21.5t-34.5 -30t-14 -32.5v-22q3 1 15 1q20 0 36 -10q19 -14 26 -36q18 7 35.5 11t34.5 4h81q20 0 49.5 -5.5t57.5 -20.5t47.5 -41.5t19.5 -68.5
v-148q0 -26 -10 -44.5t-24 -32.5q-24 -23 -59.5 -39.5t-73.5 -29t-74.5 -22.5t-62.5 -20q-37 -13 -37 -42v-61q0 -29 12.5 -41t36.5 -12h53q24 0 50.5 16.5t49.5 40.5t38 50.5t15 45.5v49l28 16h26l32 -15v-273l-21 -19h-37l-28 18v102q-9 -15 -27 -33t-40 -33.5t-45 -26
t-42 -10.5h-93q-52 0 -72.5 22.5t-20.5 57.5v126q0 38 21 57.5t56 30.5q30 9 66 18t70.5 20t63.5 25.5t46 34.5q8 11 12.5 23t4.5 30v100q0 24 -9.5 40t-24.5 25t-33.5 12.5t-36.5 3.5h-49q-18 0 -36 -4.5t-33 -14.5t-24 -26t-9 -38v-122q0 -13 5.5 -18.5t12.5 -5.5
q5 0 11 3q10 5 16.5 14.5t6.5 16.5q0 4 -3 6q-6 0 -13.5 3t-14.5 10t-12 19.5t-5 30.5q0 39 19 52t41 13t39.5 -16t17.5 -54t-14 -66.5t-35 -48t-46.5 -29.5t-48.5 -10h-20q-16 0 -29 15t-13 35v174q0 21 6 39t20 33q-6 28 -25 41q-13 8 -31 8q-17 0 -35 -6v77
q0 26 19.5 55.5t50 54t69.5 40.5t78 16h58q41 0 76.5 -15t64.5 -37t51 -48t36 -47q2 -3 6.5 -10.5t9.5 -16t9 -16.5l6 -12z" />
    <glyph glyph-name="uni17B2" unicode="&#x17b2;" horiz-adv-x="711" 
d="M595 167q0 -42 -14.5 -73.5t-38.5 -52t-54.5 -31t-61.5 -10.5h-177q-50 0 -84.5 38t-34.5 111v467q0 50 20 85t53 57.5t76 32.5t90 10q14 0 38 -4t50.5 -13.5t51.5 -25.5t41 -40q-1 -25 -14 -30.5t-36 -5.5q-6 0 -15.5 8t-26 18t-42 18t-64.5 8q-63 0 -100 -33t-37 -93
v-446q0 -28 10.5 -45.5t24.5 -28t29.5 -14.5t25.5 -4h119q43 0 64 27t21 65v16q0 48 -21 71t-44 23h-1q-11 -10 -17 -15t-22 -5q-23 4 -30.5 18t-7.5 28q0 12 4 24q20 4 42 19t41 37.5t32.5 49.5t16.5 56q1 3 1 15q0 51 -26.5 75t-65.5 24q-33 0 -56 -8t-37.5 -20.5
t-21.5 -28t-9 -29.5q-2 -10 -2 -18q0 -11 4.5 -23t18.5 -20q7 -4 13 -4t9 4t6 10t7.5 12.5t12.5 10.5q10 5 22 5q18 0 35 -14.5t18 -34.5q2 -35 -25.5 -56t-65.5 -21q-30 0 -51 12.5t-34 32.5t-19 45t-6 49q0 33 9 64t28 55t48.5 38.5t70.5 14.5h25q84 0 129 -45.5
t45 -123.5v-34q-4 -37 -27 -75.5t-52 -63.5q18 -12 34.5 -23.5t28.5 -28.5t19 -44t7 -69z" />
    <glyph glyph-name="uni17B3" unicode="&#x17b3;" horiz-adv-x="680" 
d="M616 835q0 -20 -13.5 -42.5t-40.5 -41.5q-9 -7 -25 -12.5t-33 -5.5h-3q-17 0 -34.5 6t-28.5 14q-8 24 -23.5 47t-36 41t-45 28.5t-51.5 10.5q-26 0 -50 -11q-16 -8 -28 -18t-13 -22q15 -1 37.5 -4.5t47.5 -14t49.5 -29.5t41.5 -51q6 -11 9 -23q1 -1 1 -3q0 -1 1 -2h29
q20 0 46 -6t49 -21t38.5 -41.5t15.5 -68.5v-149q0 -26 -7.5 -44.5t-21.5 -32.5q-24 -23 -60 -39.5t-74.5 -29t-75.5 -22.5t-63 -20q-17 -7 -28 -17t-11 -25v-61q0 -29 13.5 -41t37.5 -12h53q24 0 50.5 16.5t49 40.5t37 50.5t14.5 45.5v49l30 16h29l27 -15v-273l-25 -19h-38
l-23 18v102q-9 -15 -25 -33t-36 -33.5t-43.5 -26t-47.5 -10.5h-101q-51 0 -69 18.5t-18 53.5v134q0 38 22.5 57.5t57.5 30.5q30 9 66 18t69.5 20t62.5 25.5t46 34.5q8 11 12 23.5t4 29.5v103q0 24 -9 40t-24 25t-33 12.5t-36 3.5h-49q-18 0 -36.5 -4.5t-33.5 -14.5
t-24.5 -26t-9.5 -38v-125q0 -24 18 -24q5 0 11 3q10 5 16.5 14.5t6.5 16.5q0 4 -3 6q-6 0 -13 3t-14 10t-11.5 19.5t-4.5 30.5q0 39 18 55.5t40 16.5t39.5 -19.5t17.5 -57.5t-13.5 -66.5t-34 -48t-45.5 -29.5t-48 -10h-20q-16 0 -30.5 15t-14.5 35v174q0 26 12 48t31 39
t43 28.5t49 16.5q-1 1 -1 4q-6 22 -21 34.5t-35 19.5q-18 6 -43 6q-13 0 -21 -1.5t-14 -4t-11.5 -4.5t-13.5 -3h-35v32q0 29 16.5 60.5t44 57.5t64 42.5t77.5 16.5q67 0 124 -36.5t96 -99.5q11 -4 24 -4q9 1 16 5.5t12 10.5t8 11.5t4 8.5q1 7 3 11t7 7.5t13 3.5t15 -4
q21 -9 22 -34v-2z" />
    <glyph glyph-name="uni17B4" unicode="&#x17b4;" horiz-adv-x="340" 
d="M215 0h-85v505l-123 103l-99 -62l-34 54l158 100h19l164 -135v-565zM215 710h-49h-36v188q4 2 32 2h23t30 -1v-189z" />
    <glyph glyph-name="uni17B5" unicode="&#x17b5;" horiz-adv-x="340" 
d="M213 0h-85v505l-125 103l-94 -64l-34 54l153 102h19l166 -135v-565z" />
    <glyph glyph-name="uni17B6" unicode="&#x17b6;" horiz-adv-x="340" 
d="M215 0h-85v505l-128 103l-94 -62l-34 54l153 100h19l169 -135v-565z" />
    <glyph glyph-name="uni17B7" unicode="&#x17b7;" 
d="M-205 866q-29 38 -60.5 58.5t-79.5 20.5q-15 0 -31.5 -3t-30 -10t-22 -19t-8.5 -31v-16h232zM-128 800h-403l1 24q2 43 13 80.5t32.5 64.5t55 42.5t79.5 15.5q43 0 77.5 -13t63 -35.5t52.5 -53t45 -66.5z" />
    <glyph glyph-name="uni17B8" unicode="&#x17b8;" 
d="M-198 866q-29 38 -59.5 58t-78.5 20q-15 0 -31.5 -2.5t-31 -9.5t-23.5 -19.5t-9 -31.5l1 -15h232zM-99 1026q0 -24 -3.5 -53t-8 -59t-9 -59.5t-7.5 -54.5h-394v24q0 42 10.5 79.5t32.5 65.5t55.5 44t79.5 16q62 0 108.5 -28t79.5 -77l1 2q2 5 2.5 19.5t0.5 27.5
q0 15 -7 22.5t-15 13.5t-15 13t-7 21q0 22 12.5 36.5t32.5 14.5q26 0 38.5 -22t12.5 -46z" />
    <glyph glyph-name="uni17B9" unicode="&#x17b9;" 
d="M-201 866q-4 13 -14 27t-26 26t-37.5 19.5t-46.5 7.5q-15 0 -33 -3t-33 -10.5t-25.5 -19.5t-10.5 -31v-16h226zM-104 947q0 17 -11.5 28.5t-28.5 11.5q-14 0 -25 -9t-13 -24q12 -11 22.5 -22.5t21.5 -23.5q14 2 24 13.5t10 25.5zM-49 947q0 -15 -5 -30t-15 -27.5
t-25 -21.5t-35 -10l-16 -58h-370v36q0 41 13 76t36 61t54.5 40.5t69.5 14.5q36 0 58 -10.5t52 -30.5q12 26 35 41.5t52 15.5q42 0 69 -27.5t27 -69.5z" />
    <glyph glyph-name="uni17BA" unicode="&#x17ba;" 
d="M-201 866q-29 38 -67 59t-86 21q-30 0 -52.5 -13.5t-22.5 -51.5q0 -13 1 -15h227zM-83 1036q0 -18 -5 -49.5t-12 -66t-14 -67.5t-11 -53h-396l-1 24v17q0 41 9 75.5t28.5 60t50.5 40t75 14.5q31 0 57.5 -9.5t53.5 -24.5v12q0 18 -4 27t-8.5 15t-8.5 13t-4 22
q0 16 8.5 27.5t25.5 11.5q25 0 38 -17.5t13 -40.5q0 -25 -7.5 -50t-10.5 -49q27 -20 55 -51q4 19 8 39t4 40q0 7 -2 15q-11 6 -19 18t-8 25q0 17 8.5 27.5t25.5 10.5q26 0 38.5 -15.5t12.5 -40.5z" />
    <glyph glyph-name="uni17BB" unicode="&#x17bb;" 
d="M-126 -443q0 -24 -19.5 -42t-48.5 -18q-9 0 -22.5 6t-13.5 17v12q0 11 1 12l18 19v253q0 10 -5 21.5t-13 11.5q-17 0 -17 -21q0 -5 1 -6q15 -4 22 -15t7 -35q0 -12 -5.5 -24.5t-19.5 -12.5q-21 0 -29.5 18t-8.5 36q0 19 4 37.5t14 32.5t26 23t40 9q30 0 49.5 -17
t19.5 -34v-283z" />
    <glyph glyph-name="uni17BC" unicode="&#x17bc;" 
d="M-78 -187q1 -5 1.5 -9.5t0.5 -7.5v-10t-1 -15q-4 -50 -22.5 -95t-49 -79.5t-72.5 -55t-94 -20.5q-23 0 -46.5 4t-43.5 15t-36 30t-25 48v21q20 6 48.5 21t50.5 39q12 13 22 29.5t10 36.5q0 12 -1 15q-2 10 -9 16t-14.5 10.5t-13.5 8.5t-6 11v4q0 18 6.5 30t16 18.5
t20.5 9t20 2.5q33 0 55.5 -16.5t27.5 -47.5q1 -6 1.5 -12t0.5 -12q0 -37 -13 -67t-31 -52.5t-37 -38t-31 -22.5q5 -8 18.5 -12.5t28.5 -4.5h7q4 0 6 1q29 4 52.5 21.5t40 43t25 56t8.5 60.5q0 7 -0.5 13.5t-1.5 13.5q14 21 37 23h4q14 0 26 -7.5t14 -16.5z" />
    <glyph glyph-name="uni17BD" unicode="&#x17bd;" 
d="M-49 -190q0 -29 -4 -62.5t-11.5 -66.5t-19.5 -62.5t-28 -50.5q-17 -22 -40.5 -35t-52.5 -13q-21 0 -35 7.5t-23 18.5t-13 23.5t-4 23.5q-20 -29 -46 -51t-68 -22q-20 0 -36.5 7t-28.5 17t-18.5 21.5t-6.5 21.5q0 9 6 15q8 8 28.5 24.5t41.5 38.5t37 47t16 51l-1 9
q-2 12 -10 17.5t-17 9t-16.5 8t-7.5 13.5v29q0 20 17.5 29t35.5 13h15q27 0 46.5 -20.5t23.5 -46.5q1 -6 1.5 -12t0.5 -11q0 -34 -12 -63.5t-27 -52.5t-29.5 -37.5l-18.5 -18.5q11 -11 22 -11h2q12 0 23 9.5t22 23.5q16 22 28 46t20 34q2 3 7.5 7t12.5 4l5 -1q11 -3 16 -21
q-2 -5 -6 -15.5t-8 -24t-7.5 -27.5t-4.5 -26v-5q0 -9 4 -10.5t11 -1.5q23 0 39 19q10 12 17.5 30.5t13 40t8.5 43.5t3 41q0 24 -3 42t-11 23q2 5 8 11t14 11.5t15.5 9.5t12.5 4h4q11 0 20 -3t11 -14q5 -23 6 -45v-13z" />
    <glyph glyph-name="uni17BE" unicode="&#x17be;" horiz-adv-x="1020" 
d="M595 44q0 14 9.5 24t23.5 10t24 -10t10 -24t-10 -23.5t-24 -9.5t-23.5 9.5t-9.5 23.5zM597 660q0 14 9.5 24t23.5 10t24 -10t10 -24t-10 -23.5t-24 -9.5t-23.5 9.5t-9.5 23.5zM569 42.5q-10 -9.5 -24 -9.5t-23.5 9.5t-9.5 23.5t9.5 24t23.5 10t24 -10t10 -24t-10 -23.5z
M499 92.5q-10 -9.5 -24 -9.5t-23.5 9.5t-9.5 23.5t9.5 24t23.5 10t24 -10t10 -24t-10 -23.5zM451 166.5q-10 -9.5 -24 -9.5t-22.5 9.5t-8.5 23.5t8.5 24t22.5 10t24 -10t10 -24t-10 -23.5zM425 246.5q-10 -9.5 -24 -9.5t-23.5 9.5t-9.5 23.5t9.5 24t23.5 10t24 -10t10 -24
t-10 -23.5zM412 328.5q-12 -9.5 -26 -9.5t-19 9.5t-5 23.5t5 24t19 10t26 -10t12 -24t-12 -23.5zM425 408.5q-10 -9.5 -24 -9.5t-23.5 9.5t-9.5 23.5t9.5 24t23.5 10t24 -10t10 -24t-10 -23.5zM453 488.5q-10 -9.5 -24 -9.5t-24 9.5t-10 23.5t10 24t24 10t24 -10t10 -24
t-10 -23.5zM498 562.5q-10 -9.5 -24 -9.5t-23.5 9.5t-9.5 23.5t9.5 24t23.5 10t24 -10t10 -24t-10 -23.5zM567.5 615.5q-9.5 -9.5 -23.5 -9.5t-24 9.5t-10 23.5t10 24t24 10t23.5 -10t9.5 -24t-9.5 -23.5zM677 66q0 14 9.5 24t23.5 10t24 -10t10 -24t-10 -23.5t-24 -9.5
t-23.5 9.5t-9.5 23.5zM747 116q0 14 9.5 24t23.5 10t24 -10t10 -24t-10 -23.5t-24 -9.5t-23.5 9.5t-9.5 23.5zM795 190q0 14 9.5 24t23.5 10t24 -10t10 -24t-10 -23.5t-24 -9.5t-23.5 9.5t-9.5 23.5zM821 270q0 14 9.5 24t23.5 10t24 -10t10 -24t-10 -23.5t-24 -9.5
t-23.5 9.5t-9.5 23.5zM827 352q0 14 9.5 24t23.5 10t24 -10t10 -24t-10 -23.5t-24 -9.5t-23.5 9.5t-9.5 23.5zM821 432q0 14 9.5 24t23.5 10t24 -10t10 -24t-10 -23.5t-24 -9.5t-23.5 9.5t-9.5 23.5zM793 512q0 14 9.5 24t23.5 10t24 -10t10 -24t-10 -23.5t-24 -9.5
t-23.5 9.5t-9.5 23.5zM748 586q0 14 9.5 23.5t23.5 9.5t24 -9.5t10 -23.5t-10 -23.5t-24 -9.5t-23.5 9.5t-9.5 23.5zM679 639q0 14 9.5 24t23.5 10t23.5 -10t9.5 -24t-9.5 -23.5t-23.5 -9.5t-23.5 9.5t-9.5 23.5zM740 865q-29 38 -64 59t-83 21q-15 0 -32 -3t-31.5 -10.5
t-24 -20t-9.5 -31.5l1 -15h243zM854 1025q0 -24 -3 -53t-7 -59t-8.5 -59.5t-7.5 -54.5h-425v32q0 41 12 77.5t35 63.5t57 42.5t79 15.5q31 0 58 -8.5t51 -23.5t46 -34.5t42 -40.5l1 2q3 11 5 22.5t2 24.5q0 15 -5.5 22.5t-12 13.5t-12 13t-5.5 21q0 22 12.5 31t32.5 9
q26 0 39.5 -16.5t13.5 -40.5zM338 201q0 -38 -13.5 -74t-34 -64.5t-45.5 -45.5t-48 -17h-20q-16 0 -31.5 12t-15.5 32v364q0 32 -13 45.5t-36 13.5q-18 0 -28 -2t-16 8t-12.5 23t-18.5 34l137 169h18l99 -68q4 -4 16 -4q9 0 17 5l18 -26l-74 -75q-5 0 -14 8t-22.5 18t-31 18
t-39.5 8q-14 0 -27.5 -15t-21.5 -25l-2 -3q16 3 31 3q49 0 77 -26t28 -59v-388q13 0 23 7.5t17 17.5t11 21t4 18q0 9 -4 9q-5 0 -12.5 3t-14.5 10t-12 19t-5 30q0 28 6.5 44t15.5 24t17 9.5t11 1.5h1q30 0 47.5 -23t17.5 -60z" />
    <glyph glyph-name="uni17BF" unicode="&#x17bf;" horiz-adv-x="1189" 
d="M599 41q0 14 9.5 24t23.5 10t24 -10t10 -24t-10 -23.5t-24 -9.5t-23.5 9.5t-9.5 23.5zM601 657q0 14 9.5 24t23.5 10t24 -10t10 -24t-10 -23.5t-24 -9.5t-23.5 9.5t-9.5 23.5zM573 39.5q-10 -9.5 -24 -9.5t-23.5 9.5t-9.5 23.5t9.5 24t23.5 10t24 -10t10 -24t-10 -23.5z
M503 89.5q-10 -9.5 -24 -9.5t-23.5 9.5t-9.5 23.5t9.5 24t23.5 10t24 -10t10 -24t-10 -23.5zM455 163.5q-10 -9.5 -24 -9.5t-23.5 9.5t-9.5 23.5t9.5 24t23.5 10t24 -10t10 -24t-10 -23.5zM429 243.5q-10 -9.5 -24 -9.5t-23.5 9.5t-9.5 23.5t9.5 24t23.5 10t24 -10t10 -24
t-10 -23.5zM423 325.5q-10 -9.5 -24 -9.5t-23.5 9.5t-9.5 23.5t9.5 24t23.5 10t24 -10t10 -24t-10 -23.5zM429 405.5q-10 -9.5 -24 -9.5t-23.5 9.5t-9.5 23.5t9.5 24t23.5 10t24 -10t10 -24t-10 -23.5zM457 485.5q-10 -9.5 -24 -9.5t-23.5 9.5t-9.5 23.5t9.5 24t23.5 10
t24 -10t10 -24t-10 -23.5zM502 559.5q-10 -9.5 -24 -9.5t-23.5 9.5t-9.5 23.5t9.5 24t23.5 10t24 -10t10 -24t-10 -23.5zM571.5 612.5q-9.5 -9.5 -23.5 -9.5t-24 9.5t-10 23.5t10 24t24 10t23.5 -10t9.5 -24t-9.5 -23.5zM681 63q0 14 9.5 24t23.5 10t24 -10t10 -24
t-10 -23.5t-24 -9.5t-23.5 9.5t-9.5 23.5zM751 113q0 14 9.5 24t23.5 10t24 -10t10 -24t-10 -23.5t-24 -9.5t-23.5 9.5t-9.5 23.5zM799 187q0 14 9.5 24t23.5 10t24 -10t10 -24t-10 -23.5t-24 -9.5t-23.5 9.5t-9.5 23.5zM825 267q0 14 9.5 24t23.5 10t24 -10t10 -24
t-10 -23.5t-24 -9.5t-23.5 9.5t-9.5 23.5zM831 349q0 14 9.5 24t23.5 10t24 -10t10 -24t-10 -23.5t-24 -9.5t-23.5 9.5t-9.5 23.5zM825 429q0 14 9.5 24t23.5 10t24 -10t10 -24t-10 -23.5t-24 -9.5t-23.5 9.5t-9.5 23.5zM797 509q0 14 9.5 24t23.5 10t24 -10t10 -24
t-10 -23.5t-24 -9.5t-23.5 9.5t-9.5 23.5zM752 583q0 14 9.5 23.5t23.5 9.5t24 -9.5t10 -23.5t-10 -23.5t-24 -9.5t-23.5 9.5t-9.5 23.5zM683 636q0 14 9.5 24t23.5 10t23.5 -10t9.5 -24t-9.5 -23.5t-23.5 -9.5t-23.5 9.5t-9.5 23.5zM338 200q0 -38 -13.5 -74t-34 -64.5
t-45.5 -45.5t-48 -17h-20q-16 0 -31.5 12t-15.5 32v365q0 32 -13 45.5t-36 13.5q-18 0 -28 -2t-16 8t-12.5 23t-18.5 34l137 169h18l99 -68q4 -4 16 -4q9 0 17 5l18 -26l-74 -75q-5 0 -14 8t-22.5 18t-31 18t-39.5 8q-14 0 -27.5 -15t-21.5 -25l-2 -3q16 3 31 3q49 0 77 -26
t28 -59v-389q13 0 23 7.5t17 17.5t11 21t4 18q0 9 -4 9q-5 0 -12.5 3t-14.5 10t-12 19t-5 30q0 28 6.5 44t15.5 24t17 9.5t11 1.5h1q30 0 47.5 -23t17.5 -60zM897 857q-26 32 -61.5 50.5t-77.5 18.5q-13 0 -27.5 -2.5t-27 -9t-21 -17.5t-8.5 -27v-7q0 -4 1 -6h222z
M1065 -423q0 -36 -26.5 -58t-59.5 -22h-254q-35 0 -60 20.5t-25 56.5v301q0 4 6 7.5t13.5 5.5t15.5 3t11 1t9.5 -1t13 -3t11.5 -5.5t5 -7.5v-259q0 -32 15 -38.5t43 -6.5h145q27 0 39.5 6.5t12.5 37.5v1077q0 16 -7.5 34.5t-19.5 35t-27 27.5t-30 11h-303v32q0 36 10.5 67
t30.5 53.5t50 35t69 12.5q26 0 53 -8t50 -22v13q0 20 -4.5 29.5t-10 15t-10 11.5t-4.5 18q0 14 7.5 24t22.5 10q22 0 32.5 -16t10.5 -36q0 -23 -2.5 -47t-4.5 -47q22 -16 41 -38q4 19 11 37t7 38q0 6 -3.5 10t-8 8.5t-8 10.5t-3.5 16q0 15 7 25.5t24 10.5q23 0 33 -14
t10 -36q0 -13 -4.5 -34t-10 -44t-11.5 -45t-9 -36q19 -7 36.5 -21t31 -32t21.5 -39.5t8 -43.5v-1141z" />
    <glyph glyph-name="uni17C0" unicode="&#x17c0;" horiz-adv-x="1190" 
d="M594 53q0 14 9.5 24t23.5 10t24 -10t10 -24t-10 -23.5t-24 -9.5t-23.5 9.5t-9.5 23.5zM596 669q0 14 9.5 24t23.5 10t24 -10t10 -24t-10 -23.5t-24 -9.5t-23.5 9.5t-9.5 23.5zM568 51.5q-10 -9.5 -24 -9.5t-23.5 9.5t-9.5 23.5t9.5 24t23.5 10t24 -10t10 -24t-10 -23.5z
M498 101.5q-10 -9.5 -24 -9.5t-23.5 9.5t-9.5 23.5t9.5 24t23.5 10t24 -10t10 -24t-10 -23.5zM450 175.5q-10 -9.5 -24 -9.5t-27 9.5t-13 23.5t13 24t27 10t24 -10t10 -24t-10 -23.5zM424 255.5q-10 -9.5 -24 -9.5t-23.5 9.5t-9.5 23.5t9.5 24t23.5 10t24 -10t10 -24
t-10 -23.5zM414 337.5q-14 -9.5 -28 -9.5t-19.5 9.5t-5.5 23.5t5.5 24t19.5 10t28 -10t14 -24t-14 -23.5zM424 417.5q-10 -9.5 -24 -9.5t-23.5 9.5t-9.5 23.5t9.5 24t23.5 10t24 -10t10 -24t-10 -23.5zM452 497.5q-10 -9.5 -24 -9.5t-28 9.5t-14 23.5t14 24t28 10t24 -10
t10 -24t-10 -23.5zM497 571.5q-10 -9.5 -24 -9.5t-23.5 9.5t-9.5 23.5t9.5 24t23.5 10t24 -10t10 -24t-10 -23.5zM566.5 624.5q-9.5 -9.5 -23.5 -9.5t-24 9.5t-10 23.5t10 24t24 10t23.5 -10t9.5 -24t-9.5 -23.5zM676 75q0 14 9.5 24t23.5 10t24 -10t10 -24t-10 -23.5
t-24 -9.5t-23.5 9.5t-9.5 23.5zM746 125q0 14 9.5 24t23.5 10t24 -10t10 -24t-10 -23.5t-24 -9.5t-23.5 9.5t-9.5 23.5zM794 199q0 14 9.5 24t23.5 10t24 -10t10 -24t-10 -23.5t-24 -9.5t-23.5 9.5t-9.5 23.5zM820 279q0 14 9.5 24t23.5 10t24 -10t10 -24t-10 -23.5
t-24 -9.5t-23.5 9.5t-9.5 23.5zM826 361q0 14 9.5 24t23.5 10t24 -10t10 -24t-10 -23.5t-24 -9.5t-23.5 9.5t-9.5 23.5zM820 441q0 14 9.5 24t23.5 10t24 -10t10 -24t-10 -23.5t-24 -9.5t-23.5 9.5t-9.5 23.5zM792 521q0 14 9.5 24t23.5 10t24 -10t10 -24t-10 -23.5
t-24 -9.5t-23.5 9.5t-9.5 23.5zM747 595q0 14 9.5 23.5t23.5 9.5t24 -9.5t10 -23.5t-10 -23.5t-24 -9.5t-23.5 9.5t-9.5 23.5zM678 648q0 14 9.5 24t23.5 10t23.5 -10t9.5 -24t-9.5 -23.5t-23.5 -9.5t-23.5 9.5t-9.5 23.5zM338 201q0 -38 -13.5 -74t-34 -64.5t-45.5 -45.5
t-48 -17h-20q-16 0 -31.5 12t-15.5 32v365q0 32 -13 45.5t-36 13.5q-18 0 -28 -2t-16 8t-12.5 23t-18.5 34l137 169h18l99 -68q4 -4 16 -4q9 0 17 5l18 -26l-74 -75q-5 0 -14 8t-22.5 18t-31 18t-39.5 8q-14 0 -27.5 -15t-21.5 -25l-2 -3q16 3 31 3q49 0 77 -26t28 -59v-389
q13 0 23 7.5t17 17.5t11 21t4 18q0 9 -4 9q-5 0 -12.5 3t-14.5 10t-12 19t-5 30q0 28 6.5 44t15.5 24t17 9.5t11 1.5h1q30 0 47.5 -23t17.5 -60zM1065 -424q0 -18 -8 -33t-20.5 -25.5t-29 -16t-32.5 -5.5h-250q-33 0 -59 20t-26 56v295q0 4 5.5 8t13 7t15 4.5t10.5 1.5
t10 -1.5t13.5 -4t12 -6.5t5.5 -9v-261q0 -32 14.5 -38.5t43.5 -6.5h144q29 0 41 7.5t12 39.5v1209q0 17 -15.5 30.5t-36.5 23t-43.5 14.5t-35.5 5q-12 0 -33 -3t-41.5 -9.5t-35 -18t-14.5 -28.5v-31h-85v55q0 22 -2.5 42.5t-16.5 39.5q-8 11 -17.5 14.5t-18 5.5t-14 5
t-5.5 14q0 19 15 34.5t34 15.5q22 0 39.5 -10t30 -26t20 -35.5t10.5 -38.5q35 15 65.5 25.5t68.5 10.5q36 0 74.5 -7.5t70 -22.5t51.5 -38t20 -54v-1254z" />
    <glyph glyph-name="uni17C1" unicode="&#x17c1;" horiz-adv-x="341" 
d="M337 202q0 -38 -13.5 -74t-34 -64.5t-45.5 -45.5t-48 -17h-20q-16 0 -31 12t-15 32v364q0 32 -13.5 45.5t-36.5 13.5q-18 0 -28 -2t-16 8t-12.5 23t-18.5 34l137 169h18l99 -68q4 -4 16 -4q9 0 17 5l18 -26l-74 -75q-5 0 -14 8t-22.5 18t-31 18t-39.5 8q-14 0 -27.5 -15
t-21.5 -25l-2 -3q16 3 31 3q49 0 77.5 -26t28.5 -59v-388q13 0 23 7.5t17 17.5t10.5 21t3.5 18q0 9 -4 9q-5 0 -12.5 3t-14.5 10t-12 19t-5 30q0 28 6.5 44t15.5 24t17 9.5t11 1.5h1q30 0 47.5 -23t17.5 -60z" />
    <glyph glyph-name="uni17C2" unicode="&#x17c2;" horiz-adv-x="341" 
d="M337 202q0 -38 -13.5 -74t-34 -64.5t-45.5 -46t-48 -17.5h-20q-16 0 -31 12t-15 32v365q0 32 -13.5 45.5t-36.5 13.5q-18 0 -28 -2t-16 8t-12.5 23t-18.5 34l137 169h18l99 -68q4 -4 16 -4q9 0 17 5l18 -26l-74 -75q-5 0 -14 8t-22.5 18t-31 18t-39.5 8q-14 0 -27.5 -15
t-21.5 -25l-2 -3q16 3 31 3q49 0 77.5 -26t28.5 -59v-388q13 0 23 7.5t17 17.5t10.5 21t3.5 18q0 9 -4 9q-5 0 -12.5 3t-14.5 10t-12 19t-5 30q0 28 6.5 44t15.5 24t17 9.5t11 1.5h1q30 0 47.5 -23t17.5 -60zM371 986q0 -40 -16.5 -74t-44.5 -59t-64 -39t-75 -14
q-30 0 -59.5 9.5t-52.5 27.5t-37 44.5t-14 60.5q0 38 22 61.5t60 23.5q29 0 47 -19.5t18 -46.5q0 -14 -5.5 -22t-12 -14t-12 -11.5t-5.5 -13.5q0 -12 7 -19t17.5 -10t22.5 -4t21 -1q20 0 38.5 5.5t32.5 16t22.5 27t8.5 37.5q0 18 -4.5 30t-10.5 21t-10.5 18t-4.5 21
q0 18 14 31t32 13q19 0 31.5 -10t20 -25t10.5 -32.5t3 -32.5z" />
    <glyph glyph-name="uni17C3" unicode="&#x17c3;" horiz-adv-x="341" 
d="M337 202q0 -38 -13.5 -74t-34 -64.5t-45.5 -46t-48 -17.5h-20q-16 0 -31 12t-15 32v365q0 32 -13.5 45.5t-36.5 13.5q-18 0 -28 -2t-16 8t-12.5 23t-18.5 34l137 169h18l99 -68q4 -4 16 -4q9 0 17 5l18 -26l-74 -75q-5 0 -14 8t-22.5 18t-31 18t-39.5 8q-14 0 -27.5 -15
t-21.5 -25l-2 -3q16 3 31 3q49 0 77.5 -26t28.5 -59v-388q13 0 23 7.5t17 17.5t10.5 21t3.5 18q0 9 -4 9q-5 0 -12.5 3t-14.5 10t-12 19t-5 30q0 28 6.5 44t15.5 24t17 9.5t11 1.5h1q30 0 47.5 -23t17.5 -60zM313 932q0 -21 -6 -44t-18 -42.5t-31 -32t-44 -12.5
q-33 0 -60 16.5t-27 54.5q0 23 16 36t37 13q15 0 21.5 -5.5t10 -12.5t7.5 -12.5t13 -5.5q14 0 19.5 12t5.5 23q0 32 -14.5 53.5t-46.5 21.5q-11 0 -25 -1.5t-26.5 -6t-21.5 -13.5t-9 -23l6 -30q0 -16 -11.5 -22.5t-25.5 -6.5q-6 0 -12.5 4.5t-14.5 10.5l-2 2
q-8 30 -15.5 56.5t-29.5 49.5q-12 12 -20 17t-14 8.5t-9 8t-4 15.5v4q0 16 12 28t37 12q9 0 20 -6.5t21 -18.5t17.5 -28t8.5 -34q2 11 14 20.5t27.5 16t31.5 10.5t26 4q64 0 100 -38.5t36 -101.5z" />
    <glyph glyph-name="uni17C4" unicode="&#x17c4;" horiz-adv-x="1360" 
d="M602 49q0 14 9.5 24t23.5 10t25 -10t11 -24t-11 -23.5t-25 -9.5t-23.5 9.5t-9.5 23.5zM604 665q0 14 11 24t25 10t22.5 -10t8.5 -24t-8.5 -23.5t-22.5 -9.5t-25 9.5t-11 23.5zM578 47.5q-8 -9.5 -22 -9.5t-25.5 9.5t-11.5 23.5t11.5 24t25.5 10t22 -10t8 -24t-8 -23.5z
M506 97.5q-10 -9.5 -24 -9.5t-23.5 9.5t-9.5 23.5t9.5 24t23.5 10t24 -10t10 -24t-10 -23.5zM458 171.5q-10 -9.5 -24 -9.5t-23.5 9.5t-9.5 23.5t9.5 24t23.5 10t24 -10t10 -24t-10 -23.5zM432 251.5q-10 -9.5 -24 -9.5t-23.5 9.5t-9.5 23.5t9.5 24t23.5 10t24 -10t10 -24
t-10 -23.5zM426 333.5q-10 -9.5 -24 -9.5t-23.5 9.5t-9.5 23.5t9.5 24t23.5 10t24 -10t10 -24t-10 -23.5zM432 413.5q-10 -9.5 -24 -9.5t-23.5 9.5t-9.5 23.5t9.5 24t23.5 10t24 -10t10 -24t-10 -23.5zM460.5 493.5q-10.5 -9.5 -24.5 -9.5t-23.5 9.5t-9.5 23.5t9.5 24
t23.5 10t24.5 -10t10.5 -24t-10.5 -23.5zM505 567.5q-10 -9.5 -24 -9.5t-23.5 9.5t-9.5 23.5t9.5 24t23.5 10t24 -10t10 -24t-10 -23.5zM577 620.5q-7 -9.5 -21 -9.5t-26.5 9.5t-12.5 23.5t12.5 24t26.5 10t21 -10t7 -24t-7 -23.5zM684 71q0 14 9.5 24t23.5 10t24 -10
t10 -24t-10 -23.5t-24 -9.5t-23.5 9.5t-9.5 23.5zM754 121q0 14 9.5 24t23.5 10t24 -10t10 -24t-10 -23.5t-24 -9.5t-23.5 9.5t-9.5 23.5zM802 195q0 14 9.5 24t23.5 10t24 -10t10 -24t-10 -23.5t-24 -9.5t-23.5 9.5t-9.5 23.5zM828 275q0 14 9.5 24t23.5 10t24 -10t10 -24
t-10 -23.5t-24 -9.5t-23.5 9.5t-9.5 23.5zM834 357q0 14 9.5 24t23.5 10t24 -10t10 -24t-10 -23.5t-24 -9.5t-23.5 9.5t-9.5 23.5zM828 437q0 14 9.5 24t23.5 10t24 -10t10 -24t-10 -23.5t-24 -9.5t-23.5 9.5t-9.5 23.5zM800 517q0 14 9.5 24t23.5 10t24 -10t10 -24
t-10 -23.5t-24 -9.5t-23.5 9.5t-9.5 23.5zM755 591q0 14 9.5 23.5t23.5 9.5t24 -9.5t10 -23.5t-10 -23.5t-24 -9.5t-23.5 9.5t-9.5 23.5zM686 644q0 14 12.5 24t26.5 10t20.5 -10t6.5 -24t-6.5 -23.5t-20.5 -9.5t-26.5 9.5t-12.5 23.5zM339 201q0 -38 -13.5 -74t-34 -64.5
t-45.5 -45.5t-48 -17h-20q-16 0 -32 12t-16 32v365q0 32 -12.5 45.5t-35.5 13.5q-18 0 -28 -2t-16 8t-12.5 23t-18.5 34l137 169h18l99 -68q4 -4 16 -4q9 0 17 5l18 -26l-74 -75q-5 0 -14 8t-22.5 18t-31 18t-39.5 8q-14 0 -27.5 -15t-21.5 -25l-2 -3q16 3 31 3
q49 0 76.5 -26t27.5 -59v-389q13 0 23.5 7.5t17.5 18t11 21.5t4 18q0 8 -4 8q-5 0 -12.5 3t-14.5 10t-12 19t-5 30q0 28 6.5 44t15.5 24t17 9.5t11 1.5h1q30 0 47.5 -23t17.5 -60zM1237 0h-87v505l-137 103l-117 -55l-34 54l176 93h19l180 -135v-565z" />
    <glyph glyph-name="uni17C5" unicode="&#x17c5;" horiz-adv-x="1360" 
d="M594 47q0 14 9.5 24t23.5 10t24 -10t10 -24t-10 -23.5t-24 -9.5t-23.5 9.5t-9.5 23.5zM596 663q0 14 9.5 24t23.5 10t24 -10t10 -24t-10 -23.5t-24 -9.5t-23.5 9.5t-9.5 23.5zM550 36q-14 0 -24.5 11t-10.5 25t10.5 22.5t24.5 8.5t22 -10t8 -24t-8 -23.5t-22 -9.5z
M471 86q-14 0 -22 9.5t-8 23.5t8 24t22 10t25.5 -10t11.5 -24t-11.5 -23.5t-25.5 -9.5zM400 240q-14 0 -23.5 9.5t-9.5 23.5t9.5 24t23.5 10t24 -10t10 -24t-10 -23.5t-24 -9.5zM386 322q-14 0 -19.5 9.5t-5.5 23.5t5.5 24t19.5 10t28 -10t14 -24t-14 -23.5t-28 -9.5z
M400 402q-14 0 -23.5 9.5t-9.5 23.5t9.5 24t23.5 10t24 -10t10 -24t-10 -23.5t-24 -9.5zM428 482q-14 0 -28 9.5t-14 23.5t14 24t28 10t24 -10t10 -24t-10 -23.5t-24 -9.5zM471 556q-14 0 -22.5 9.5t-8.5 23.5t8.5 24t22.5 10t25 -10t11 -24t-11 -23.5t-25 -9.5zM549 609
q-14 0 -26.5 9.5t-12.5 23.5t12.5 24t26.5 10t21.5 -10t7.5 -24t-7.5 -23.5t-21.5 -9.5zM676 69q0 14 9.5 24t23.5 10t24 -10t10 -24t-10 -23.5t-24 -9.5t-23.5 9.5t-9.5 23.5zM746 119q0 14 9.5 24t23.5 10t24 -10t10 -24t-10 -23.5t-24 -9.5t-23.5 9.5t-9.5 23.5zM794 193
q0 14 9.5 24t23.5 10t24 -10t10 -24t-10 -23.5t-24 -9.5t-23.5 9.5t-9.5 23.5zM820 273q0 14 9.5 24t23.5 10t24 -10t10 -24t-10 -23.5t-24 -9.5t-23.5 9.5t-9.5 23.5zM826 355q0 14 9.5 24t23.5 10t24 -10t10 -24t-10 -23.5t-24 -9.5t-23.5 9.5t-9.5 23.5zM820 435
q0 14 9.5 24t23.5 10t24 -10t10 -24t-10 -23.5t-24 -9.5t-23.5 9.5t-9.5 23.5zM792 515q0 14 9.5 24t23.5 10t24 -10t10 -24t-10 -23.5t-24 -9.5t-23.5 9.5t-9.5 23.5zM747 589q0 14 9.5 23.5t23.5 9.5t24 -9.5t10 -23.5t-10 -23.5t-24 -9.5t-23.5 9.5t-9.5 23.5zM678 642
q0 14 9.5 24t23.5 10t23.5 -10t9.5 -24t-9.5 -23.5t-23.5 -9.5t-23.5 9.5t-9.5 23.5zM337 201q0 -38 -13.5 -74t-34 -64.5t-45.5 -45.5t-48 -17h-20q-16 0 -31 12t-15 32v366q0 32 -13.5 45.5t-36.5 13.5q-9 0 -16.5 -1t-12.5 -1q-10 0 -15 8q-6 10 -12.5 23t-18.5 34
l137 168h18l99 -67q4 -4 16 -4q9 0 17 5l18 -26l-74 -75q-5 0 -14 8t-22.5 18t-31 18t-39.5 8q-14 0 -27.5 -15t-21.5 -25l-2 -3q17 3 31 3q49 0 77.5 -26t28.5 -59v-390q13 0 23 7.5t17 17.5t10.5 21t3.5 18q0 9 -4 9q-5 0 -12.5 3t-14.5 10t-12 19t-5 30q0 29 6.5 44.5
t15.5 23.5t17 9.5t11 1.5h1q30 0 47.5 -23t17.5 -60zM1259 710q0 -13 -3 -31.5t-7 -38t-9 -37t-9 -28.5l5 -5v-570h-86v506l-170 103l-97 -55l-34 54l156 92h19l141 -86q4 10 8 21.5t7.5 23.5t5.5 22.5t2 17.5q0 28 -6 46.5t-19 36.5q-6 11 -16 11q-5 0 -16 -3h-7q-7 0 -9 1
q-23 2 -35.5 17t-13.5 37v2q0 32 21 49.5t51 17.5q31 0 53.5 -18t37.5 -47t22.5 -65.5t7.5 -73.5zM422 158q-14 0 -22 9.5t-8 23.5t8 24t22 10t25.5 -10t11.5 -24t-11.5 -23.5t-25.5 -9.5z" />
    <glyph glyph-name="uni17C6" unicode="&#x17c6;" 
d="M-283 927q0 23 -16.5 40t-40.5 17q-23 0 -39.5 -17t-16.5 -40t16.5 -40t39.5 -17q24 0 40.5 17t16.5 40zM-214 927q0 -26 -10 -49t-27 -40t-40 -27t-49 -10t-49 10t-40 27t-27 40t-10 49t10 49t27 40.5t40 27.5t49 10t49 -10t40 -27.5t27 -40.5t10 -49z" />
    <glyph glyph-name="uni17C7" unicode="&#x17c7;" horiz-adv-x="510" 
d="M314 141q0 23 -17 40t-40 17t-39 -17t-16 -40t16 -40t39 -17t40 17t17 40zM314 566q0 23 -16.5 40t-39.5 17q-24 0 -40 -17t-16 -40t16 -40t40 -17q23 0 39.5 17t16.5 40zM386 141q0 -26 -10.5 -49t-28 -40t-41 -27t-49.5 -10t-49 10t-40.5 27t-27.5 40t-10 49t10 49
t27.5 40.5t40.5 27.5t49 10t49.5 -10t41 -27.5t28 -40.5t10.5 -49zM386 566q0 -26 -10.5 -49t-28 -40t-40.5 -27t-49 -10t-49.5 10t-41 27t-27.5 40t-10 49t10 49t27.5 40.5t41 27.5t49.5 10t49 -10t40.5 -27.5t28 -40.5t10.5 -49z" />
    <glyph glyph-name="uni17C8" unicode="&#x17c8;" horiz-adv-x="426" 
d="M304 115q0 -37 -26.5 -63t-63.5 -26t-62 26t-25 63t25 62.5t62 25.5t63.5 -25.5t26.5 -62.5zM304 577q0 -37 -26.5 -62.5t-63.5 -25.5t-62 25.5t-25 62.5t25 63t62 26t63.5 -26t26.5 -63z" />
    <glyph glyph-name="uni17C9" unicode="&#x17c9;" 
d="M-369 1025v-79l-15 -145h-67l-15 144v80l23 20h51zM-211 1025v-79l-15 -145h-67l-15 144v80l23 20h51z" />
    <glyph glyph-name="uni17CA" unicode="&#x17ca;" 
d="M-117 799h-6l-113 88l-93 -83h-24l-110 84l-54 -49q10 -8 13 -11t3 -5v-1h-1l-34 -29l-57 53l143 133h19l118 -94l90 94h19l108 -91q8 -5 15 -5q9 0 18 6l18 -16z" />
    <glyph glyph-name="uni17CB" unicode="&#x17cb;" 
d="M-290 1024v-79l-15 -145h-67l-15 144v80l23 20h51z" />
    <glyph glyph-name="uni17CC" unicode="&#x17cc;" 
d="M-43 1030q0 -21 -8.5 -38.5t-23 -30t-33 -19.5t-38.5 -7q-32 0 -54.5 8t-43 17t-43 17t-54.5 8q-18 0 -36 -4.5t-32.5 -14t-24 -24.5t-10.5 -35q13 11 32 17t36 6q24 0 45.5 -4t38 -14t26.5 -27.5t10 -45.5q0 -19 -16.5 -27.5t-32.5 -8.5q-17 0 -29.5 8.5t-16.5 25.5
q-13 18 -23 22t-32 4t-43 -11.5t-32 -29.5q-31 0 -40.5 21.5t-9.5 47.5q0 36 15.5 67t41.5 53t59 34.5t68 12.5q46 0 74 -7.5t47.5 -16.5t35 -16.5t35.5 -7.5q14 0 27.5 8.5t13.5 23.5q0 7 -3 13q10 18 32 18q17 0 29.5 -13t12.5 -30z" />
    <glyph glyph-name="uni17CD" unicode="&#x17cd;" 
d="M-72 1154q0 -64 -19 -101t-48.5 -56t-65 -25t-68 -8t-57.5 -4.5t-34 -14.5q-11 -17 -11 -38t12 -28.5t32 -7.5q21 0 27 9t8.5 20t8 20t26.5 9q10 0 23 -9.5t13 -20.5q0 -46 -30.5 -73t-75.5 -27q-51 0 -84 28t-33 82q0 29 10 53.5t33 42.5q22 18 50.5 24t58.5 7.5t59 3.5
t52 12.5t37 33.5t14 67l6 12q8 8 12 8q2 0 5.5 -1t9.5 -1q13 0 18 -3t11 -14z" />
    <glyph glyph-name="uni17CE" unicode="&#x17ce;" 
d="M-304 908v-108h-70v108h-118v68h118v100h70v-100h118v-68h-118z" />
    <glyph glyph-name="uni17CF" unicode="&#x17cf;" 
d="M-161 1123q0 -45 -12 -74.5t-29 -48.5q-23 -26 -55 -35t-63.5 -11.5t-59 -3t-41.5 -8.5q-11 -6 -15 -19.5t-4 -24.5q0 -19 11.5 -26t28.5 -7q12 0 18 4t9 10t4.5 13.5t4.5 13.5q2 7 8 11.5t19 4.5q15 0 25 -6.5t10 -20.5l-2 -22q6 -6 21 -6h6q13 2 24.5 10.5t11.5 20.5
l-4 20q0 13 11 19t22 6q15 0 26.5 -11t11.5 -26q0 -48 -30 -78q-13 -13 -30.5 -20.5t-38.5 -7.5q-17 0 -35 3.5t-32 14.5q-27 -18 -60 -18q-48 0 -77 26t-29 74q0 55 39 87q22 18 52 22.5t61 6t59 5.5t47 21q26 23 26 81q5 19 31 19q11 0 20.5 -5.5t9.5 -13.5z" />
    <glyph glyph-name="uni17D0" unicode="&#x17d0;" 
d="M-154 986q0 -40 -16.5 -74t-44.5 -59t-64 -39t-75 -14q-30 0 -59.5 9.5t-52.5 28t-37 45t-14 59.5q0 38 22.5 61.5t60.5 23.5q28 0 46.5 -19.5t18.5 -46.5q0 -14 -5.5 -22t-12.5 -14t-12.5 -11.5t-5.5 -13.5q0 -12 7 -19t17.5 -10t22.5 -4t21 -1q20 0 38.5 5.5t32.5 16
t22.5 27t8.5 37.5q0 19 -4.5 30.5t-10.5 20.5t-10.5 18t-4.5 21q0 19 14 31.5t32 12.5q19 0 31.5 -10t20 -25t10.5 -32.5t3 -32.5z" />
    <glyph glyph-name="uni17D1" unicode="&#x17d1;" 
d="M-536 800v77h398v-77h-398z" />
    <glyph glyph-name="uni17D2" unicode="&#x17d2;" 
d="M-134 -271v-105h-70v105h-108v68h108v94h70v-94h107v-68h-107z" />
    <glyph glyph-name="uni17D3" unicode="&#x17d3;" 
d="M-79 1141q0 33 -12.5 62.5t-34 51.5t-51 35t-63.5 13q-33 0 -62 -13t-50.5 -35t-34 -51.5t-12.5 -62.5t12.5 -62.5t34 -51t50.5 -34.5t62 -13q34 0 63.5 13t51 34.5t34 51t12.5 62.5zM0 1140q0 -50 -19.5 -94t-52.5 -77t-77 -52.5t-94 -19.5t-94 19.5t-77 52.5t-52 77
t-19 94t19 94.5t52 77.5t77 52.5t94 19.5t94 -19.5t77 -52.5t52.5 -77.5t19.5 -94.5z" />
    <glyph glyph-name="uni17D4" unicode="&#x17d4;" horiz-adv-x="680" 
d="M470 0v467q-5 -11 -18 -22.5t-35.5 -20.5t-48 -14.5t-46.5 -5.5q-36 0 -67 10t-53.5 30t-35 49t-12.5 67q0 28 10 54t28 45.5t43 31.5t54 12q17 0 37.5 -4t37 -14t26.5 -26.5t10 -40.5q0 -25 -17 -42t-42 -17t-44.5 17t-19.5 43q0 4 1 7t1 6q0 7 -10 7q-12 0 -20 -6.5
t-13.5 -16.5t-8 -21.5t-2.5 -20.5q0 -25 9.5 -42.5t25.5 -28t37 -15t43 -4.5q35 0 59.5 11t40 29.5t23 44t7.5 54.5v75h86v-698h-86z" />
    <glyph glyph-name="uni17D5" unicode="&#x17d5;" horiz-adv-x="849" 
d="M471 0v485q0 -18 -15.5 -33t-38.5 -25.5t-49 -16t-47 -5.5q-36 0 -67 10t-53.5 30t-35 49t-12.5 67q0 28 10 54t28 45.5t42.5 31.5t53.5 12h6q38 0 65.5 -20t27.5 -65q0 -25 -10.5 -42t-35.5 -17q-26 0 -45 17t-19 43q0 4 1 7t1 6q0 7 -10 7q-12 0 -20 -6.5t-13.5 -16.5
t-8 -21t-2.5 -21q0 -26 9.5 -43t25.5 -27.5t36.5 -15t43.5 -4.5q31 0 55.5 14t41.5 36.5t26 50.5t9 56v57h85v-699h-85zM640 0v699h85v-699h-85z" />
    <glyph glyph-name="uni17D6" unicode="&#x17d6;" horiz-adv-x="510" 
d="M311 195q0 19 -14 32t-33 13q-20 0 -31.5 -12.5t-11.5 -32.5q0 -18 12.5 -31t30.5 -13t32.5 13t14.5 31zM311 503q0 18 -14.5 31.5t-32.5 13.5q-19 0 -31 -13t-12 -32t12 -31.5t31 -12.5t33 12.5t14 31.5zM359 198q0 -40 -26.5 -68.5t-68.5 -28.5q-20 0 -37.5 7.5t-31 21
t-21 31t-7.5 37.5q0 42 28.5 68.5t68.5 26.5q19 0 36.5 -7.5t30.5 -20.5t20.5 -30.5t7.5 -36.5zM129 316v70h258v-70h-258zM359 505q0 -20 -7.5 -37t-20 -30.5t-30 -21t-37.5 -7.5t-37.5 7.5t-31 20.5t-21 30.5t-7.5 37.5t7.5 37.5t21 30.5t31 20.5t37.5 7.5q42 0 68.5 -27
t26.5 -69z" />
    <glyph glyph-name="uni17D7" unicode="&#x17d7;" horiz-adv-x="680" 
d="M556 143q0 -50 -14 -81.5t-39.5 -49.5t-62 -24.5t-81.5 -6.5q-52 0 -91 21.5t-74 58.5q-5 10 -5 19q0 8 5 15t10 11q4 4 13 4q14 0 31 -17q7 -7 18.5 -15t25.5 -15t30 -12t37 -5q57 0 84 21t27 79v417q0 7 -8 16t-19 17.5t-22 14t-17 5.5q-4 0 -17.5 -7.5t-29.5 -16.5
t-30 -18t-19 -12q-15 11 -34 21.5t-45 22.5l-14 -13v-181q0 -8 9.5 -12.5t16.5 -4.5q12 0 26.5 6.5t14.5 20.5q0 8 -6 8l-13 -1q-13 0 -20.5 6.5t-12 16t-6 21t-1.5 21.5q0 22 14 38.5t36 16.5q29 0 42 -21t13 -47q0 -27 -7 -53t-21.5 -47t-35.5 -33.5t-50 -12.5
q-9 0 -23.5 3.5t-28 9.5t-23 15t-9.5 20v232q1 4 11 15.5t23 24.5t26.5 25.5t20.5 19.5h21q3 -2 18.5 -10.5t34 -19t35 -20t22.5 -13.5q5 3 19.5 13.5t31 21.5t29.5 19.5t14 8.5h22q25 -16 41.5 -27t32.5 -22.5t24 -17.5v-490z" />
    <glyph glyph-name="uni17D8" unicode="&#x17d8;" horiz-adv-x="2069" 
d="M1877 0v486q-8 -21 -24.5 -36.5t-37 -25t-43.5 -14t-44 -4.5q-36 0 -67 10t-53.5 30t-35 49t-12.5 67q0 28 10 54t28 45.5t43 31.5t51 12q20 0 40.5 -4t37 -14t26.5 -26.5t10 -40.5q0 -25 -17 -42t-42 -17t-44.5 17t-19.5 43q0 4 1 7t1 6q0 7 -10 7q-12 0 -20 -6.5
t-13.5 -16.5t-8 -21.5t-2.5 -20.5q0 -25 9.5 -42.5t25.5 -28t37 -15t43 -4.5q35 0 59.5 15t40.5 38.5t23.5 53t7.5 58.5v49h73v-700h-73zM1427 531q-5 0 -14 8t-22.5 18t-31.5 18t-40 8q-7 0 -15 -5t-15 -11.5t-12.5 -14t-8.5 -12.5q17 3 31 3q49 0 77.5 -26t28.5 -59v-343
q0 -30 -10.5 -52t-26 -36t-32.5 -20.5t-31 -6.5h-227q-27 0 -45.5 8.5t-30.5 22t-17 32t-5 37.5v445q0 24 -11 40t-28.5 25t-37.5 12.5t-38 3.5h-36q-18 0 -36.5 -4.5t-33.5 -14.5t-24.5 -25.5t-9.5 -38.5v-472q13 0 22.5 7.5t16 18t9.5 21.5t3 18q0 8 -4 8q-5 0 -13 3
t-15.5 10t-12.5 19.5t-5 30.5q0 27 6 42t14.5 22t17 8.5t21.5 1.5q27 0 43 -22t16 -57q0 -37 -13.5 -73.5t-34 -65t-45.5 -46t-48 -17.5h-20q-16 0 -29.5 12.5t-13.5 32.5v520q0 32 14.5 57t37.5 42t51 26.5t55 9.5h87q20 0 51 -5.5t59.5 -20.5t49 -41.5t20.5 -68.5v-424
q0 -32 14.5 -50t59.5 -18h106q34 0 54.5 18t20.5 52v265q0 33 -14 46.5t-38 13.5q-7 0 -13.5 -1t-12.5 -1q-10 0 -15 7q-6 11 -13 23.5t-19 34.5l137 170h18l99 -68q8 -5 16 -5q9 0 17 5l18 -26zM447 0v486q-8 -21 -24.5 -36.5t-37 -25t-43.5 -14t-44 -4.5q-36 0 -67 10
t-53.5 30t-35 49t-12.5 67q0 28 10 54t28 45.5t43 31.5t51 12q20 0 40.5 -4t37 -14t26.5 -26.5t10 -40.5q0 -25 -17 -42t-42 -17t-44.5 17t-19.5 43q0 4 1 7t1 6q0 7 -10 7q-12 0 -18 -6.5t-9 -16.5t-3.5 -21.5t-0.5 -20.5q0 -51 28.5 -70.5t73.5 -19.5q35 0 59.5 15
t40.5 38.5t23.5 53t7.5 58.5v49h73v-700h-73z" />
    <glyph glyph-name="uni17D9" unicode="&#x17d9;" horiz-adv-x="849" 
d="M466 383q0 31 -19.5 55t-48.5 24t-48 -24t-19 -55q0 -32 19 -56t48 -24q30 0 49 24.5t19 55.5zM538 383q0 -29 -10 -56.5t-28.5 -48.5t-44.5 -34t-57 -13q-32 0 -57.5 13t-43.5 34t-28 48.5t-10 56.5q0 28 8 55.5t24 48.5t39.5 34t55.5 13q31 0 59 -13t48.5 -34
t32.5 -48.5t12 -55.5zM592 379q0 42 -16.5 81t-44.5 69t-65.5 48t-79.5 18t-76 -18t-57.5 -48t-36 -69t-12.5 -81t14.5 -81t40 -69t61.5 -48t78 -18t78 18t61.5 48t40 69t14.5 81zM664 379q0 -55 -19.5 -107.5t-54.5 -94t-84 -66.5t-108 -25t-108 25t-84 66.5t-54.5 94
t-19.5 107.5t17 108t50 93.5t80 65.5t107 25t111 -25t88 -65.5t58 -93.5t21 -108z" />
    <glyph glyph-name="uni17DA" unicode="&#x17da;" horiz-adv-x="1108" 
d="M980 434q0 -8 -0.5 -12t-5.5 -6q-2 0 -16.5 -2t-36.5 -5q-22 -2 -29.5 -3t-9.5 -5q-6 -11 -15 -29t-20.5 -34.5t-23.5 -28.5t-24 -12q-8 0 -17.5 17t-17.5 38l-21 -102q-2 -9 -10 -20.5t-25 -11.5q-8 0 -19.5 4.5t-22 10.5t-18.5 13t-8 13v89q-9 -50 -34.5 -95t-62.5 -79
t-83.5 -54t-96.5 -20q-68 0 -112.5 29.5t-71.5 75t-38 99.5t-11 103q0 43 14 94t42 95.5t70 74t97 29.5q51 0 89.5 -21t63.5 -55t37.5 -76t12.5 -85q0 -29 -8 -64t-26 -65.5t-47 -51t-72 -20.5q-37 0 -63.5 13.5t-43.5 34.5t-25 46.5t-8 49.5q0 8 2 18.5t6.5 19.5t11.5 15.5
t18 6.5q13 0 27 -9t14 -26q0 -8 -2.5 -13.5t-2.5 -12.5q0 -12 6.5 -24.5t16 -22.5t21 -16.5t22.5 -6.5q22 0 36.5 13.5t22.5 33t11.5 41.5t3.5 39q0 31 -7.5 60.5t-22.5 53t-38.5 37.5t-55.5 14q-34 0 -60 -22t-43.5 -55t-26.5 -71.5t-9 -71.5q0 -44 6.5 -85.5t23.5 -74.5
t47 -53t78 -20q27 0 45 7q31 13 61.5 36t54.5 56t39 77t15 99q0 22 -3 45q-1 3 -1 15q0 19 8 37.5t32 18.5q16 0 24 -10.5t11 -18.5l44 -136q4 18 7 41.5t9 45.5t15 37t25 15t24.5 -10.5t11.5 -19.5l23 -75q6 12 20.5 27.5t30.5 15.5l95 -11q9 0 13.5 -7.5t6.5 -16.5v-8z
" />
    <glyph glyph-name="uni17DB" unicode="&#x17db;" horiz-adv-x="595" 
d="M548 410q-29 -53 -70.5 -76.5t-91.5 -34.5v-255q0 -20 -15 -32t-31 -12h-20q-23 0 -48 17.5t-46 46.5t-34.5 65.5t-13.5 74.5t18 60.5t47 22.5h1q3 0 11 -1.5t17 -9t15.5 -23.5t6.5 -44q0 -18 -5 -30.5t-11.5 -19.5t-14 -10t-13.5 -3q-4 0 -4 -8q0 -7 3.5 -18.5
t10.5 -22.5t17 -19t23 -8v226q-29 3 -56.5 6t-56.5 15h-5q-28 0 -47 19.5t-19 46.5t19 46t47 19q24 0 42 -13.5t23 -35.5q9 -5 21.5 -9t31.5 -12v33q0 32 -13.5 45t-36.5 13q-18 0 -28 -2t-16 8t-12.5 23t-18.5 34l137 168h18l99 -67q4 -4 16 -4q9 0 17 5l18 -26l-74 -75
q-5 0 -14 8t-22.5 18t-31 18t-39.5 8q-14 0 -27.5 -15t-21.5 -25l-2 -3q16 3 31 3q49 0 78 -25.5t29 -59.5v-91q27 6 58.5 18t69.5 49z" />
    <glyph glyph-name="uni17DC" unicode="&#x17dc;" horiz-adv-x="680" 
d="M556 509q0 -17 -9.5 -30t-26.5 -13q-20 0 -34.5 7t-14.5 27v133q0 16 -15.5 27.5t-37 18t-43.5 9.5t-34 3q-14 0 -35 -3t-41.5 -10.5t-35 -19t-14.5 -29.5v-92q0 -36 25.5 -61t63 -45.5t82 -38.5t82 -39t63 -47.5t25.5 -64.5v-128q0 -33 -19 -54.5t-49.5 -34.5t-69.5 -18
t-79 -5q-57 0 -97 9t-65 29t-36 51t-11 75v97q0 6 5.5 10t12.5 7t14.5 4.5t12.5 1.5q9 0 24.5 -6t15.5 -17v-95q0 -22 5.5 -41.5t20 -33.5t38.5 -22.5t60 -8.5q26 0 50 4t42 13t29 23t11 34v87q0 20 -25.5 39.5t-63 38.5t-82 39t-82 42t-63 46.5t-25.5 53.5v160q0 31 24 52
t57.5 34t69.5 18t60 5q33 0 70.5 -5t70 -19t53.5 -39t21 -65v-1v-112z" />
    <glyph glyph-name="uni17DD" unicode="&#x17dd;" 
d="M-75 778q4 -11 4 -22q0 -19 -11.5 -29t-23.5 -10h-16q-12 0 -22 7t-12 28q-2 19 -16 36t-36.5 30t-52 20.5t-62.5 7.5h-48q-19 0 -43.5 -9t-47 -22.5t-38.5 -29.5t-18 -31q-3 -21 -15 -31.5t-29 -10.5q-7 0 -11 1q-20 3 -26.5 13t-6.5 33q0 24 22.5 52.5t58 54t77.5 42.5
t81 17h39q38 0 76.5 -9t71.5 -25t58.5 -39t37.5 -52z" />
    <glyph glyph-name="uni17E0" unicode="&#x17e0;" horiz-adv-x="680" 
d="M470 516q0 30 -10.5 52t-28 36t-41 21t-50.5 7q-20 0 -42 -7t-40.5 -20.5t-30.5 -33t-12 -44.5v-342q0 -28 11.5 -49.5t30.5 -36t42 -22t46 -7.5q26 0 49 7t40 21t26.5 35.5t9.5 51.5v331zM556 180q0 -49 -14 -83.5t-41 -56t-66 -31t-88 -9.5q-48 0 -88 10.5t-68.5 32
t-44.5 54t-16 76.5v366q0 45 19.5 76.5t50 51t68 28t73.5 8.5q40 0 78.5 -10t69 -31t49 -54.5t18.5 -79.5v-348z" />
    <glyph glyph-name="uni17E1" unicode="&#x17e1;" horiz-adv-x="680" 
d="M556 214q0 -56 -16 -96t-44.5 -66.5t-69.5 -39t-90 -12.5q-60 0 -113.5 21.5t-90.5 69.5l-4 22q0 16 8 20.5t24 4.5q22 -23 41.5 -36t40.5 -19.5t45.5 -8t56.5 -1.5q66 0 96 37.5t30 103.5v312q0 29 -10.5 50t-28.5 34t-41.5 19t-49.5 6q-20 0 -42 -5.5t-40.5 -17.5
t-30.5 -30t-12 -43v-199q0 -14 14 -22t26 -8q11 0 26 9t15 22l-3 3q-32 0 -46 19t-14 52q0 30 15 52.5t53 22.5q16 0 28 -8t19.5 -21t11 -28t3.5 -28q0 -30 -12 -57t-32 -47.5t-47 -32.5t-58 -12q-43 0 -63.5 23.5t-20.5 66.5v206q0 40 21 68.5t52.5 46t69 25.5t70.5 8
q39 0 77 -8.5t68 -28t49 -52t19 -79.5v-318z" />
    <glyph glyph-name="uni17E2" unicode="&#x17e2;" horiz-adv-x="849" 
d="M725 79q0 -17 -8.5 -31t-21 -25t-28.5 -17t-31 -6q-26 0 -51 7t-50 16t-51 16t-53 7t-49.5 -7t-44 -16t-44 -16t-50.5 -7q-52 0 -82.5 26t-30.5 80v536q0 36 -10 52t-22 25t-22 16t-10 25q0 20 14.5 29.5t31.5 9.5q46 0 74 -28.5t28 -76.5v-567q0 -23 11 -36.5t36 -13.5
t45 8.5t39.5 18t40 18t45.5 8.5q24 0 49.5 -6.5t50 -14t47 -13.5t40.5 -6q17 0 19.5 9.5t2.5 24.5v436q0 7 -8 16t-19.5 16.5t-23 13t-18.5 5.5q-3 0 -19 -9.5t-35 -21.5t-36 -23t-22 -14q-54 40 -116 63l-13 -14v-297q0 -8 11 -13t18 -5q22 0 32.5 10.5t10.5 18.5
q0 5 -5.5 7.5t-10.5 1.5v-1q-14 0 -23.5 6.5t-15.5 17t-8.5 23t-2.5 23.5q0 23 13 41.5t37 18.5q30 0 48 -23t18 -51q0 -30 -10 -57.5t-28 -48.5t-43.5 -34t-56.5 -13q-10 0 -22 3t-22.5 8.5t-18 14.5t-7.5 21v364q7 6 22 18t31.5 24t31.5 21t22 9q6 0 26 -10t42 -22.5
t41 -25t24 -17.5q7 6 26.5 18t41.5 25t41 22.5t27 9.5q9 -4 22.5 -13t28.5 -19.5t29.5 -21t24.5 -16.5v-551z" />
    <glyph glyph-name="uni17E3" unicode="&#x17e3;" horiz-adv-x="1019" 
d="M810 0v527q0 25 -9.5 45.5t-25.5 34.5t-37 21.5t-44 7.5q-13 0 -36.5 -3.5t-46 -11t-39 -20t-16.5 -30.5v-571h-86v571q0 9 -6.5 19t-13.5 15q-23 17 -57 23.5t-61 6.5q-54 0 -85.5 -27t-31.5 -87v-443q0 -6 5.5 -10t10.5 -4q12 0 21.5 7t17 17.5t11.5 22.5t4 23
q0 2 -0.5 8t-4.5 6q-35 0 -47 17.5t-12 52.5q0 12 3 25t10 23.5t17 17t24 6.5q17 0 28 -8.5t17 -22t8.5 -29t2.5 -29.5q0 -27 -6.5 -61.5t-20.5 -65.5t-36 -52t-54 -21q-10 0 -24 3t-27.5 8.5t-23 14t-9.5 20.5v489q0 43 18 74t47 51t65 29.5t72 9.5q20 0 44 -2.5t48.5 -8.5
t46.5 -15t38 -22q39 29 90 39t99 10q39 0 74.5 -11t63 -32.5t43.5 -54.5t16 -77v-526h-85z" />
    <glyph glyph-name="uni17E4" unicode="&#x17e4;" horiz-adv-x="766" 
d="M641 326q0 -19 -5.5 -38t-16 -34.5t-26.5 -25t-37 -9.5q-26 0 -45 18.5t-19 44.5q0 28 17.5 49.5t46.5 21.5l14 -1q6 0 8 3v7q0 29 -20.5 44.5t-46.5 15.5q-33 0 -53 -12.5t-30.5 -32.5t-13.5 -45.5t-3 -51.5q0 -36 22.5 -70t57 -60.5t74.5 -42.5t75 -16q5 -9 12.5 -18
t7.5 -18q0 -18 -9.5 -33t-23.5 -26q-35 6 -73 14.5t-73 8.5l-192 -20q-40 0 -70 16t-49.5 42t-29.5 60.5t-10 70.5v114q0 43 5 76.5t15.5 60.5t26.5 49.5t37 43.5q36 36 87.5 60.5t120.5 41.5q29 8 62 19.5t54 34.5q9 9 13.5 17.5t4.5 20.5v36q0 17 5.5 27.5t35.5 10.5
q22 0 33 -8t11 -32v-30q0 -17 -2 -36t-10 -32q-26 -41 -69 -61t-91.5 -35t-97.5 -32t-87 -52q-30 -29 -50 -70.5t-20 -110.5v-107q0 -45 25.5 -76t73.5 -31q35 0 74 7t77 8q-34 10 -60.5 32t-45 49.5t-28 58t-9.5 57.5q0 36 11.5 71.5t33 64.5t53 47t72.5 18q69 0 108 -38
t41 -104v4q1 -3 1 -18v-18z" />
    <glyph glyph-name="uni17E5" unicode="&#x17e5;" horiz-adv-x="680" 
d="M321 607q0 20 -14 31t-37 11q-21 0 -35.5 -11.5t-14.5 -33.5t15 -32t35 -10q22 0 36.5 12t14.5 33zM556 649q0 -62 -8.5 -97.5t-27 -52.5t-48 -21t-71.5 -3q-33 1 -66 -5t-63 -18.5t-55.5 -31.5t-43.5 -46q-28 -40 -28 -94v-77q0 -19 6.5 -38.5t18.5 -35.5t29 -26t38 -10
q12 0 31 2t39.5 5.5t40 7t33.5 6.5q-24 10 -45 28.5t-37 42t-25 50t-9 52.5q0 30 10.5 59.5t29.5 53t46.5 38t62.5 14.5q36 0 62.5 -12t44.5 -29.5t26.5 -37t8.5 -34.5v-19q0 -23 -4.5 -45t-15 -39.5t-26.5 -28.5t-39 -11q-26 0 -42.5 18.5t-16.5 44.5q0 28 18 49t47 21
l13 -1q9 0 9 11q0 14 -6.5 23.5t-16.5 15t-23 7.5t-26 2q-22 0 -36.5 -7.5t-23.5 -20t-13 -29.5t-4 -35q0 -38 22 -67.5t54.5 -52.5t70.5 -40t70 -30q6 -2 11.5 -4.5t10.5 -4.5q12 -20 12 -42q0 -49 -45 -56q-36 13 -76.5 23.5t-79.5 10.5q-28 0 -54.5 -4.5t-51.5 -10.5
t-48 -10.5t-44 -4.5q-26 0 -50 11.5t-42 30.5q-29 32 -41.5 73.5t-12.5 83.5v104q0 34 13.5 65.5t36 56t51.5 42t60 24.5q-35 15 -50 47t-15 68q0 24 9.5 44.5t26 35t38.5 23t48 8.5q51 0 79 -24.5t33 -65.5q2 -11 -0.5 -25t-4.5 -27q-4 -15 -7 -30h49q19 0 29 12t14 28.5
t4 33.5v29v100q0 7 4 16t11 16.5t15 12.5t16 5h10q9 0 10 -1q25 -12 29.5 -17.5t4.5 -14.5v-17q0 -11 -7 -18.5t-7 -16.5v-66z" />
    <glyph glyph-name="uni17E6" unicode="&#x17e6;" horiz-adv-x="680" 
d="M556 177q0 -50 -13.5 -84t-39.5 -54.5t-63 -29.5t-84 -9q-35 0 -74.5 5.5t-73.5 22t-56 47t-22 79.5v193q0 21 7.5 39.5t20.5 33t31 22.5t39 8q31 0 56 -10.5t43 -29.5t28 -45t10 -56q0 -16 -4 -33.5t-12 -32.5t-21.5 -25t-32.5 -10q-35 0 -52 19.5t-17 50.5q0 13 6 31
t17 26q6 5 15 7.5t17 4.5t14 4t6 5q0 18 -15.5 27t-31.5 9q-40 0 -40 -40v-198q0 -25 14 -40t35 -23.5t45 -11t44 -2.5q57 0 88 24.5t31 78.5v314q0 69 -34 100t-96 31q-36 0 -65.5 -13.5t-50.5 -29.5t-33.5 -29.5t-15.5 -13.5q-27 0 -42.5 18.5t-17.5 44.5q9 11 19.5 31.5
t10.5 35.5q0 32 -6.5 49.5t-14 28.5t-13.5 19.5t-6 23.5q0 19 17 31t34 12q62 0 73 -64v-1q2 -7 1 -14.5t-1 -15.5l-16 -70q29 14 62 23t64 9q48 0 87.5 -10.5t68 -34t44.5 -62t16 -93.5v-323z" />
    <glyph glyph-name="uni17E7" unicode="&#x17e7;" horiz-adv-x="849" 
d="M654 799q21 -3 34.5 -12.5t21.5 -28.5t11.5 -48t3.5 -71v-533q0 -36 -11.5 -57.5t-29.5 -32t-40.5 -13.5t-45.5 -3q-22 0 -44.5 4.5t-41 16t-30 31.5t-11.5 51v456q0 7 -8.5 16.5t-20 17t-23 13t-18.5 5.5q-3 0 -14 -9t-24 -21t-24.5 -22.5t-17.5 -13.5
q-13 10 -23.5 18.5t-21 16t-22 14t-26.5 12.5l-13 -14v-513q0 -5 6 -9.5t11 -4.5q11 0 21 7.5t18 18t12.5 23t4.5 22.5t-6 12t-15 3t-18 3.5t-15 13.5q-8 11 -10 25t-2 27q0 25 14.5 42.5t42.5 17.5q16 0 29 -7.5t22 -19t14 -25.5t5 -27q0 -38 -9.5 -74t-26.5 -63.5
t-42.5 -44.5t-56.5 -17q-11 0 -25.5 3t-27.5 9t-22 15t-9 22v557q7 6 21.5 21t30.5 30.5t31 27.5t22 12t23 -9.5t32.5 -21.5t31 -24t20.5 -18q7 6 20.5 18t28 24t28 21.5t21.5 9.5q7 0 21 -7.5t30.5 -18t33.5 -22.5t31 -21v-554q0 -5 10 -16.5t30 -11.5q27 0 36 10.5t9 20.5
v558q0 31 -6.5 49.5t-37.5 28.5q-12 4 -17.5 12t-5.5 18q0 19 17.5 37.5t46.5 18.5q3 0 7 -0.5t9 -1.5z" />
    <glyph glyph-name="uni17E8" unicode="&#x17e8;" horiz-adv-x="766" 
d="M680 761q0 -16 -6.5 -22.5t-14 -10t-13.5 -8t-6 -16.5v-131q0 -23 -13 -39t-34 -16h-46q0 12 -13.5 29.5t-37.5 33.5t-57.5 27.5t-74.5 11.5q-29 0 -56 -10.5t-47.5 -30t-33 -48t-12.5 -64.5v-308q0 -24 12.5 -39.5t23.5 -26.5q8 -8 12 -10.5t7 -2.5l18 5l85 116h28
l73 -116q6 -1 12 -2.5t13 -1.5t16 3t18 11q11 11 17 26.5t6 39.5v232q0 5 -9 8.5t-14 3.5q-21 0 -36.5 -15.5t-15.5 -33.5q0 -2 0.5 -7t4.5 -5q63 0 63 -62q0 -10 -4 -20.5t-11.5 -19t-17.5 -14t-22 -5.5q-16 0 -28 9.5t-20 23t-12 29.5t-4 29q0 29 10 55.5t28.5 46.5t45 32
t58.5 12q27 0 47.5 -11t20.5 -30v-265q0 -32 -4.5 -59.5t-18.5 -45.5q-19 -25 -47 -37t-48 -12h-83l-53 104l-67 -104h-72q-20 0 -44 11t-43 36q-14 18 -22 43t-8 58v3v14v32v56v89v128q0 52 19 94.5t51 72.5t74 46.5t89 16.5q79 0 124 -19t69 -50v97q0 45 22 64
q19 19 62 19q15 0 27.5 -16.5t12.5 -33.5z" />
    <glyph glyph-name="uni17E9" unicode="&#x17e9;" horiz-adv-x="680" 
d="M599 799q0 -19 -6.5 -25.5t-15 -14t-15 -22.5t-6.5 -52v-105q0 -12 -6 -18.5t-16.5 -9.5t-25 -3.5t-30.5 -0.5q-6 6 -15 15.5t-30 26.5q-17 14 -37.5 26t-61.5 12q-20 0 -41 -2t-38.5 -11.5t-29 -28t-11.5 -51.5q0 -38 19.5 -57t67.5 -19h199q17 0 25 -12t8 -28
q0 -15 -7 -31t-24 -16h-201q-17 0 -32.5 -10t-27.5 -25t-19.5 -31.5t-7.5 -28.5v-96q0 -31 11 -52.5t29.5 -35t43 -19.5t50.5 -6q32 0 58 8.5t48 34.5q6 8 11 26t5 32v68q0 26 -8.5 42.5t-37.5 16.5q-16 0 -32.5 -9t-16.5 -28q0 -3 6 -4.5t14.5 -3t18 -4.5t15.5 -8
q17 -16 17 -41v-14q0 -17 -14.5 -35t-45.5 -18q-39 0 -55.5 26t-16.5 59q0 60 31.5 97.5t88.5 37.5q19 0 40.5 -5.5t39.5 -16.5t30 -27.5t12 -38.5v-147q0 -9 -5.5 -19.5t-10.5 -18.5q-16 -24 -37.5 -39.5t-46.5 -24t-52.5 -11.5t-54.5 -3q-47 0 -87 9t-69 30.5t-46 57.5
t-17 90v116q0 14 7.5 30.5t19.5 31.5t27 27t30 18q-15 3 -29.5 12.5t-25.5 22t-18.5 27.5t-8.5 30q-1 13 -1.5 19t-0.5 17q0 45 18.5 76t48 50t65.5 27.5t72 8.5q20 0 40 -5t38 -12.5t33 -17t25 -18.5v88q0 14 1 27.5t6 25.5q11 32 32.5 43t46.5 11q17 0 30 -12t13 -31z" />
    <glyph glyph-name="uni17F0" unicode="&#x17f0;" horiz-adv-x="600" 
d="M456 406q-2 -65 -15 -113t-34 -79.5t-47.5 -47t-56.5 -15.5q-33 0 -63 15t-53 46.5t-37 79t-15 111.5v6q0 36 12.5 82t34.5 86.5t51.5 68t63.5 27.5q70 0 114.5 -64t44.5 -185v-18zM363 406q0 36 -6 63.5t-15.5 47t-20.5 29.5t-22 10h-2q-12 0 -25.5 -10t-25 -29.5
t-19 -47.5t-7.5 -63q0 -39 7 -67t18 -47t24 -28t25 -9q11 0 23 9t22.5 27.5t17 47t6.5 67.5z" />
    <glyph glyph-name="uni17F1" unicode="&#x17f1;" horiz-adv-x="711" 
d="M606 151h-104l-145 351l-141 -351h-111l210 471h85z" />
    <glyph glyph-name="uni17F2" unicode="&#x17f2;" horiz-adv-x="423" 
d="M258 148h-101v444h101v-444z" />
    <glyph glyph-name="uni17F3" unicode="&#x17f3;" horiz-adv-x="1113" 
d="M1003 151h-103l-146 351l-141 -351h-111l-145 351l-141 -351h-111l210 471h85l155 -354l157 354h86z" />
    <glyph glyph-name="uni17F4" unicode="&#x17f4;" horiz-adv-x="711" 
d="M400 151h-85l-210 471h111l141 -351l145 351h104z" />
    <glyph glyph-name="uni17F5" unicode="&#x17f5;" horiz-adv-x="600" 
d="M379 361q0 37 -6 64t-16 45t-21.5 27t-22.5 8q-12 0 -25 -9.5t-24.5 -27.5t-19 -44.5t-7.5 -62.5q0 -40 6.5 -63.5t16 -36t22 -16t24.5 -2.5q10 1 23 5.5t24 16.5t18.5 35t7.5 61zM387 598q42 -28 65.5 -86t19.5 -151q-2 -65 -16.5 -108t-36.5 -68.5t-49.5 -35.5
t-57.5 -10q-33 0 -62 10t-50 35t-34 67t-15 107q0 25 6 56.5t18 62.5t28.5 59.5t37.5 49.5l-202 218h111l162 -159l145 153h104z" />
    <glyph glyph-name="uni17F6" unicode="&#x17f6;" horiz-adv-x="576" 
d="M433 148h-103l-188 471h86z" />
    <glyph glyph-name="uni17F7" unicode="&#x17f7;" horiz-adv-x="951" 
d="M613 151h-111l-145 351l-141 -351h-111l210 471h85l155 -354l157 354h86z" />
    <glyph glyph-name="uni17F8" unicode="&#x17f8;" horiz-adv-x="583" 
d="M216 151h-111l210 471h85z" />
    <glyph glyph-name="uni17F9" unicode="&#x17f9;" horiz-adv-x="906" 
d="M796 154h-103l-146 351l-141 -351h-111l-187 471h85l155 -354l157 354h86z" />
    <glyph glyph-name="uni19E0" unicode="&#x19e0;" horiz-adv-x="700" 
d="M450 747q0 33 -12.5 62.5t-34 51.5t-51 35t-63.5 13q-33 0 -62 -13t-50.5 -35t-34 -51.5t-12.5 -62.5t12.5 -62.5t34 -51t50.5 -34.5t62 -13q34 0 63.5 13t51 34.5t34 51t12.5 62.5zM529 746q0 -49 -19.5 -93.5t-52.5 -77.5t-77 -52.5t-94 -19.5t-94 19.5t-77 52.5
t-52 77.5t-19 93.5q0 50 19 94.5t52 77.5t77 52.5t94 19.5t94 -19.5t77 -52.5t52.5 -77.5t19.5 -94.5zM597 362q0 -16 -6.5 -22.5t-14 -10t-14 -8t-6.5 -16.5v-131q0 -25 -13 -40t-35 -15h-44q0 12 -13 29.5t-37 33.5t-57.5 27.5t-74.5 11.5q-29 0 -59 -9t-54 -28.5
t-39.5 -51t-15.5 -77.5v-296q0 -24 10 -39.5t21 -26.5q8 -8 12.5 -10t7.5 -3q4 0 6.5 2.5t10.5 2.5l85 125h46l88 -129q7 0 22 3t24 11q11 11 17.5 26.5t6.5 39.5v233q0 5 -8.5 8.5t-13.5 3.5q-21 0 -36 -15.5t-15 -33.5q0 -2 0.5 -7t4.5 -5q32 0 47.5 -12.5t15.5 -43.5
q0 -10 -4.5 -21.5t-12 -21.5t-17.5 -16.5t-21 -6.5q-16 0 -28 9.5t-20 23.5t-12 30t-4 29q0 29 10 55.5t28.5 46.5t45 32t58.5 12q27 0 47 -11t20 -30v-266q0 -68 -30 -105q-19 -25 -43 -37t-44 -12h-83l-70 117l-73 -117h-72q-20 0 -43.5 11t-43.5 36q-14 18 -22 43t-8 58
v55v268q0 47 21 88.5t56 73t79.5 50t91.5 18.5q79 0 127 -19t72 -50v97q0 23 6 38t18 26q19 19 61 19q15 0 28 -16.5t13 -33.5z" />
    <glyph glyph-name="uni19E1" unicode="&#x19e1;" horiz-adv-x="723" 
d="M472 -292v380q-8 -21 -24.5 -36.5t-37 -25t-43.5 -14t-44 -4.5q-36 0 -67 10t-53.5 30t-35 49t-12.5 67q0 28 10 54t28 45.5t43 31.5t51 12q20 0 40.5 -4t37 -14t26.5 -26.5t10 -40.5q0 -25 -17 -42t-42 -17t-44.5 17t-19.5 43q0 4 1 7t1 6q0 7 -10 7q-12 0 -20 -6.5
t-13.5 -16.5t-8 -21.5t-2.5 -20.5q0 -25 9.5 -42.5t25.5 -28t37 -15t43 -4.5q35 0 59.5 15t40.5 38.5t23.5 53t7.5 58.5v49h86v-594h-86zM598 694q0 -55 -22.5 -96t-59 -67t-83.5 -39t-97 -13q-60 0 -113.5 22t-90.5 70v2q0 5 -2 10t-2 10q0 16 14 28t30 12q22 -23 41 -37.5
t39.5 -23t44.5 -12t56 -3.5q33 0 61.5 12t50.5 33t34.5 49t12.5 61v275q0 29 -14 53t-36 40.5t-49.5 25.5t-53.5 9q-20 0 -45.5 -5.5t-47.5 -17.5t-37 -30t-15 -43v-199q0 -14 14.5 -22t26.5 -8q11 0 26 9t15 22l-3 3q-32 0 -46 12t-14 45q0 15 4 30t12.5 27t21.5 19.5
t32 7.5q16 0 27.5 -7.5t18.5 -19t10.5 -25.5t3.5 -28q0 -30 -11.5 -57t-32 -47.5t-47.5 -32.5t-58 -12q-43 0 -64 23.5t-21 66.5v206q0 41 24 69t59.5 45.5t76 25.5t73.5 8q39 0 80.5 -8.5t76 -28t57 -52t22.5 -79.5v-318z" />
    <glyph glyph-name="uni19E2" unicode="&#x19e2;" horiz-adv-x="872" 
d="M545 -292v380q-8 -21 -24.5 -36.5t-37 -25t-43.5 -14t-44 -4.5q-36 0 -67 10t-53.5 30t-35 49t-12.5 67q0 28 9.5 54t27 45.5t42 31.5t53.5 12q20 0 40.5 -4t37 -14t26.5 -26.5t10 -40.5q0 -25 -17 -42t-42 -17t-44.5 17t-19.5 43q0 4 1 7t1 6q0 7 -10 7q-12 0 -20 -6.5
t-13.5 -16.5t-8 -21.5t-2.5 -20.5q0 -26 9.5 -43t25.5 -27.5t36.5 -15t43.5 -4.5q34 0 59 15t41 38.5t23.5 53t7.5 58.5v49h86v-594h-86zM748 552q0 -17 -8.5 -31t-22 -25t-29.5 -17t-31 -6q-26 0 -51 7t-49.5 16t-50.5 16t-53 7q-23 0 -55.5 -9t-68.5 -18t-72 -15t-64.5 1
t-46 30t-17.5 71v440q0 36 -9.5 52t-21.5 25t-21.5 16t-9.5 25q0 20 13.5 29.5t30.5 9.5q46 0 74.5 -28.5t28.5 -76.5v-471q0 -23 10.5 -36.5t35.5 -13.5t48.5 8.5t47.5 18t48 18t49 8.5q24 0 48 -6.5t46.5 -14t44 -13.5t39.5 -6q17 0 23 9.5t6 24.5v441q0 7 -8 16t-19 16.5
t-22.5 13t-18.5 5.5q-3 0 -19 -9.5t-35 -21.5t-36 -23t-22 -14q-54 40 -116 63l-13 -14v-350q0 -8 11 -13t18 -5q16 0 25.5 6t14 13t3 13t-7.5 6q-3 0 -6.5 -0.5t-6.5 -0.5q-14 0 -23 6.5t-14.5 17t-7.5 23t-2 23.5q0 23 16.5 41.5t40.5 18.5q30 0 45.5 -23t15.5 -51
q0 -30 -10 -57.5t-28 -48.5t-43.5 -34t-56.5 -13q-10 0 -22 3t-22.5 8.5t-18 14.5t-7.5 21v398q7 6 22 20.5t31.5 30.5t31.5 28t22 12q6 0 26 -10.5t42 -24t41 -26.5t24 -18q7 6 26.5 19t41.5 26.5t41 23.5t27 10q9 -4 23 -13t29.5 -19.5t30 -21t24.5 -16.5v-556z" />
    <glyph glyph-name="uni19E3" unicode="&#x19e3;" horiz-adv-x="1052" 
d="M631 -292v380q-8 -21 -24.5 -36.5t-37 -25t-43.5 -14t-44 -4.5q-36 0 -67 10t-53.5 30t-35 49t-12.5 67q0 28 7.5 54.5t22 47t36.5 32t51 9.5h15q20 -1 40.5 -5.5t37 -14t26.5 -25.5t10 -40q0 -25 -17 -42t-42 -17t-44.5 17t-19.5 43q0 4 1 7t1 6q0 7 -10 7
q-12 0 -20 -6.5t-13 -16.5t-7.5 -21.5t-2.5 -20.5q0 -26 9.5 -43t25 -27.5t36 -15t43.5 -4.5q34 0 59 15t41 38.5t23.5 53t7.5 58.5v49h86v-594h-86zM839 472v531q0 25 -12 45.5t-30.5 34.5t-42 21.5t-46.5 7.5q-13 0 -35 -3t-43.5 -10.5t-37 -19.5t-15.5 -30v-576h-88v578
q0 9 -4.5 17t-11.5 13q-23 17 -57 23.5t-61 6.5t-52 -6.5t-45 -20.5t-32 -35.5t-12 -51.5v-447q0 -6 7 -10t12 -4q12 0 21.5 7t17 17.5t11.5 22.5t4 23q0 2 -0.5 8t-4.5 6q-35 0 -48 17.5t-13 52.5q0 12 3.5 25t10.5 23.5t17.5 17t24.5 6.5q17 0 28.5 -8.5t19 -22t10.5 -29
t3 -29.5q0 -27 -7.5 -61.5t-22.5 -65.5t-38.5 -52t-55.5 -21q-10 0 -24 3t-27 8.5t-22.5 14t-9.5 20.5v493q0 43 21.5 74t54.5 51t72.5 29.5t75.5 9.5q20 0 44 -2.5t48.5 -8.5t46.5 -15t38 -22q39 29 85.5 39t94.5 10q39 0 77.5 -11t68.5 -32.5t49 -54.5t19 -77v-530h-87z
" />
    </font>
</defs>
</svg>
